<?xml version="1.0" encoding="UTF-8" standalone="no"?>
<svg
   xmlns:dc="http://purl.org/dc/elements/1.1/"
   xmlns:cc="http://creativecommons.org/ns#"
   xmlns:rdf="http://www.w3.org/1999/02/22-rdf-syntax-ns#"
   xmlns:svg="http://www.w3.org/2000/svg"
   xmlns="http://www.w3.org/2000/svg"
   xmlns:xlink="http://www.w3.org/1999/xlink"
   id="SVGRoot"
   version="1.1"
   viewBox="0 0 800 600"
   height="600px"
   width="800px">
  <defs
     id="defs5741" />
  <metadata
     id="metadata5744">
    <rdf:RDF>
      <cc:Work
         rdf:about="">
        <dc:format>image/svg+xml</dc:format>
        <dc:type
           rdf:resource="http://purl.org/dc/dcmitype/StillImage" />
        <dc:title></dc:title>
      </cc:Work>
    </rdf:RDF>
  </metadata>
  <g
     id="layer1">
    <rect
       y="105.57462"
       x="63.899292"
       height="389.00302"
       width="679.31659"
       id="rect11392"
       style="fill:none;stroke:#000000;stroke-width:1.21295464;stroke-opacity:1" />
    <path
       id="path11740-0"
       d="m 294.92145,490.38893 v 10.35722"
       style="fill:none;stroke:#000000;stroke-width:0.99999994px;stroke-linecap:butt;stroke-linejoin:miter;stroke-opacity:1" />
    <path
       id="path11740"
       d="m 223.2374,490.38893 v 10.35722"
       style="fill:none;stroke:#000000;stroke-width:0.99999994px;stroke-linecap:butt;stroke-linejoin:miter;stroke-opacity:1" />
    <path
       id="path11740-3"
       d="m 355.97441,490.38893 v 10.35722"
       style="fill:none;stroke:#000000;stroke-width:0.99999994px;stroke-linecap:butt;stroke-linejoin:miter;stroke-opacity:1" />
    <path
       id="path11740-7"
       d="m 282.06431,490.38893 v 10.35722"
       style="fill:none;stroke:#000000;stroke-width:0.99999994px;stroke-linecap:butt;stroke-linejoin:miter;stroke-opacity:1" />
    <a
       id="delt-1"
       xlink:href=""
       transform="matrix(0.999899,0,0,0.999899,90.096027,32.826608)">
      <rect
         id="r-delt-1"
         y="90"
         x="29.999996"
         width="20"
         ry="2"
         rx="2"
         height="30" />
    </a>
    <a
       id="delt-2"
       xlink:href=""
       transform="matrix(0.999899,0,0,0.999899,90.096027,62.823588)">
      <rect
         id="r-delt-2"
         y="90"
         x="29.999996"
         width="20"
         ry="2"
         rx="2"
         height="30" />
    </a>
    <a
       id="delt-3"
       xlink:href=""
       transform="matrix(0.999899,0,0,0.999899,90.096027,92.820556)">
      <rect
         id="r-delt-3"
         y="90"
         x="29.999996"
         width="20"
         ry="2"
         rx="2"
         height="30" />
    </a>
    <a
       id="delt-4"
       xlink:href=""
       transform="matrix(0.999899,0,0,0.999899,90.096027,122.81758)">
      <rect
         id="r-delt-4"
         y="90"
         x="29.999996"
         width="20"
         ry="2"
         rx="2"
         height="30" />
    </a>
    <a
       id="delt-5"
       xlink:href=""
       transform="matrix(0.999899,0,0,0.999899,90.096027,152.81455)">
      <rect
         id="r-delt-5"
         y="90"
         x="29.999996"
         width="20"
         ry="2"
         rx="2"
         height="30" />
    </a>
    <a
       id="delt-6"
       xlink:href=""
       transform="matrix(0.999899,0,0,0.999899,90.096027,182.81153)">
      <rect
         id="r-delt-6"
         y="90"
         x="29.999996"
         width="20"
         ry="2"
         rx="2"
         height="30" />
    </a>
    <a
       id="delt-7"
       xlink:href=""
       transform="matrix(0.999899,0,0,0.999899,90.096027,212.80851)">
      <rect
         id="r-delt-7"
         y="90"
         x="29.999996"
         width="20"
         ry="2"
         rx="2"
         height="30" />
    </a>
    <a
       id="delt-8"
       xlink:href=""
       transform="matrix(0.999899,0,0,0.999899,90.096027,242.80552)">
      <rect
         id="r-delt-8"
         y="90"
         x="29.999996"
         width="20"
         ry="2"
         rx="2"
         height="30" />
    </a>
    <a
       id="delt-9"
       xlink:href=""
       transform="matrix(0.999899,0,0,0.999899,110.09401,32.826608)">
      <rect
         id="r-delt-9"
         y="90"
         x="29.999996"
         width="20"
         ry="2"
         rx="2"
         height="30" />
    </a>
    <a
       id="delt-10"
       xlink:href=""
       transform="matrix(0.999899,0,0,0.999899,110.09401,62.823588)">
      <rect
         id="r-delt-10"
         y="90"
         x="29.999996"
         width="20"
         ry="2"
         rx="2"
         height="30" />
    </a>
    <a
       id="delt-11"
       xlink:href=""
       transform="matrix(0.999899,0,0,0.999899,110.09401,92.820556)">
      <rect
         id="r-delt-11"
         y="90"
         x="29.999996"
         width="20"
         ry="2"
         rx="2"
         height="30" />
    </a>
    <a
       id="delt-12"
       xlink:href=""
       transform="matrix(0.999899,0,0,0.999899,110.09401,122.81758)">
      <rect
         id="r-delt-12"
         y="90"
         x="29.999996"
         width="20"
         ry="2"
         rx="2"
         height="30" />
    </a>
    <a
       id="delt-13"
       xlink:href=""
       transform="matrix(0.999899,0,0,0.999899,110.09401,152.81455)">
      <rect
         id="r-delt-13"
         y="90"
         x="29.999996"
         width="20"
         ry="2"
         rx="2"
         height="30" />
    </a>
    <a
       id="delt-14"
       xlink:href=""
       transform="matrix(0.999899,0,0,0.999899,110.09401,182.81153)">
      <rect
         id="r-delt-14"
         y="90"
         x="29.999996"
         width="20"
         ry="2"
         rx="2"
         height="30" />
    </a>
    <a
       id="delt-15"
       xlink:href=""
       transform="matrix(0.999899,0,0,0.999899,110.09401,212.80851)">
      <rect
         id="r-delt-15"
         y="90"
         x="29.999996"
         width="20"
         ry="2"
         rx="2"
         height="30" />
    </a>
    <a
       id="delt-16"
       xlink:href=""
       transform="matrix(0.999899,0,0,0.999899,110.09401,242.80552)">
      <rect
         id="r-delt-16"
         y="90"
         x="29.999996"
         width="20"
         ry="2"
         rx="2"
         height="30" />
    </a>
    <a
       id="delt-17"
       xlink:href=""
       transform="matrix(0.999899,0,0,0.999899,184.58421,32.826608)">
      <rect
         id="r-delt-17"
         y="90"
         x="29.999996"
         width="20"
         ry="2"
         rx="2"
         height="30" />
    </a>
    <a
       id="delt-18"
       xlink:href=""
       transform="matrix(0.999899,0,0,0.999899,184.58421,62.823588)">
      <rect
         id="r-delt-18"
         y="90"
         x="29.999996"
         width="20"
         ry="2"
         rx="2"
         height="30" />
    </a>
    <a
       id="delt-19"
       xlink:href=""
       transform="matrix(0.999899,0,0,0.999899,184.58421,92.820556)">
      <rect
         id="r-delt-19"
         y="90"
         x="29.999996"
         width="20"
         ry="2"
         rx="2"
         height="30" />
    </a>
    <a
       id="delt-20"
       xlink:href=""
       transform="matrix(0.999899,0,0,0.999899,184.58421,122.81758)">
      <rect
         id="r-delt-20"
         y="90"
         x="29.999996"
         width="20"
         ry="2"
         rx="2"
         height="30" />
    </a>
    <a
       id="delt-21"
       xlink:href=""
       transform="matrix(0.999899,0,0,0.999899,184.58421,152.81455)">
      <rect
         id="r-delt-21"
         y="90"
         x="29.999996"
         width="20"
         ry="2"
         rx="2"
         height="30" />
    </a>
    <a
       id="delt-22"
       xlink:href=""
       transform="matrix(0.999899,0,0,0.999899,184.58421,182.81153)">
      <rect
         id="r-delt-22"
         y="90"
         x="29.999996"
         width="20"
         ry="2"
         rx="2"
         height="30" />
    </a>
    <a
       id="delt-23"
       xlink:href=""
       transform="matrix(0.999899,0,0,0.999899,184.58421,212.80851)">
      <rect
         id="r-delt-23"
         y="90"
         x="29.999996"
         width="20"
         ry="2"
         rx="2"
         height="30" />
    </a>
    <a
       id="delt-24"
       xlink:href=""
       transform="matrix(0.999899,0,0,0.999899,184.58421,242.80552)">
      <rect
         id="r-delt-24"
         y="90"
         x="29.999996"
         width="20"
         ry="2"
         rx="2"
         height="30" />
    </a>
    <a
       id="delt-25"
       xlink:href=""
       transform="matrix(0.999899,0,0,0.999899,204.58219,32.826608)">
      <rect
         id="r-delt-25"
         y="90"
         x="29.999996"
         width="20"
         ry="2"
         rx="2"
         height="30" />
    </a>
    <a
       id="delt-26"
       xlink:href=""
       transform="matrix(0.999899,0,0,0.999899,204.58219,62.823588)">
      <rect
         id="r-delt-26"
         y="90"
         x="29.999996"
         width="20"
         ry="2"
         rx="2"
         height="30" />
    </a>
    <a
       id="delt-27"
       xlink:href=""
       transform="matrix(0.999899,0,0,0.999899,204.58219,92.820556)">
      <rect
         id="r-delt-27"
         y="90"
         x="29.999996"
         width="20"
         ry="2"
         rx="2"
         height="30" />
    </a>
    <a
       id="delt-28"
       xlink:href=""
       transform="matrix(0.999899,0,0,0.999899,204.58219,122.81758)">
      <rect
         id="r-delt-28"
         y="90"
         x="29.999996"
         width="20"
         ry="2"
         rx="2"
         height="30" />
    </a>
    <a
       id="delt-29"
       xlink:href=""
       transform="matrix(0.999899,0,0,0.999899,204.58219,152.81455)">
      <rect
         id="r-delt-29"
         y="90"
         x="29.999996"
         width="20"
         ry="2"
         rx="2"
         height="30" />
    </a>
    <a
       id="delt-30"
       xlink:href=""
       transform="matrix(0.999899,0,0,0.999899,204.58219,182.81153)">
      <rect
         id="r-delt-30"
         y="90"
         x="29.999996"
         width="20"
         ry="2"
         rx="2"
         height="30" />
    </a>
    <a
       id="delt-31"
       xlink:href=""
       transform="matrix(0.999899,0,0,0.999899,204.58219,212.80851)">
      <rect
         id="r-delt-31"
         y="90"
         x="29.999996"
         width="20"
         ry="2"
         rx="2"
         height="30" />
    </a>
    <a
       id="delt-32"
       xlink:href=""
       transform="matrix(0.999899,0,0,0.999899,204.58219,242.80552)">
      <rect
         id="r-delt-32"
         y="90"
         x="29.999996"
         width="20"
         ry="2"
         rx="2"
         height="30" />
    </a>
    <a
       id="delt-33"
       xlink:href=""
       transform="matrix(0.999899,0,0,0.999899,279.0724,32.826608)">
      <rect
         id="r-delt-33"
         y="90"
         x="29.999996"
         width="20"
         ry="2"
         rx="2"
         height="30" />
    </a>
    <a
       id="delt-34"
       xlink:href=""
       transform="matrix(0.999899,0,0,0.999899,279.0724,62.823588)">
      <rect
         id="r-delt-34"
         y="90"
         x="29.999996"
         width="20"
         ry="2"
         rx="2"
         height="30" />
    </a>
    <a
       id="delt-35"
       xlink:href=""
       transform="matrix(0.999899,0,0,0.999899,279.0724,92.820556)">
      <rect
         id="r-delt-35"
         y="90"
         x="29.999996"
         width="20"
         ry="2"
         rx="2"
         height="30" />
    </a>
    <a
       id="delt-36"
       xlink:href=""
       transform="matrix(0.999899,0,0,0.999899,279.0724,122.81758)">
      <rect
         id="r-delt-36"
         y="90"
         x="29.999996"
         width="20"
         ry="2"
         rx="2"
         height="30" />
    </a>
    <a
       id="delt-37"
       xlink:href=""
       transform="matrix(0.999899,0,0,0.999899,279.0724,152.81455)">
      <rect
         id="r-delt-37"
         y="90"
         x="29.999996"
         width="20"
         ry="2"
         rx="2"
         height="30" />
    </a>
    <a
       id="delt-38"
       xlink:href=""
       transform="matrix(0.999899,0,0,0.999899,279.0724,182.81153)">
      <rect
         id="r-delt-38"
         y="90"
         x="29.999996"
         width="20"
         ry="2"
         rx="2"
         height="30" />
    </a>
    <a
       id="delt-39"
       xlink:href=""
       transform="matrix(0.999899,0,0,0.999899,279.0724,212.80851)">
      <rect
         id="r-delt-39"
         y="90"
         x="29.999996"
         width="20"
         ry="2"
         rx="2"
         height="30" />
    </a>
    <a
       id="delt-40"
       xlink:href=""
       transform="matrix(0.999899,0,0,0.999899,279.0724,242.80552)">
      <rect
         id="r-delt-40"
         y="90"
         x="29.999996"
         width="20"
         ry="2"
         rx="2"
         height="30" />
    </a>
    <a
       id="delt-41"
       xlink:href=""
       transform="matrix(0.999899,0,0,0.999899,299.07038,32.826608)">
      <rect
         id="r-delt-41"
         y="90"
         x="29.999996"
         width="20"
         ry="2"
         rx="2"
         height="30" />
    </a>
    <a
       id="delt-42"
       xlink:href=""
       transform="matrix(0.999899,0,0,0.999899,299.07038,62.823588)">
      <rect
         id="r-delt-42"
         y="90"
         x="29.999996"
         width="20"
         ry="2"
         rx="2"
         height="30" />
    </a>
    <a
       id="delt-43"
       xlink:href=""
       transform="matrix(0.999899,0,0,0.999899,299.07038,92.820556)">
      <rect
         id="r-delt-43"
         y="90"
         x="29.999996"
         width="20"
         ry="2"
         rx="2"
         height="30" />
    </a>
    <a
       id="delt-44"
       xlink:href=""
       transform="matrix(0.999899,0,0,0.999899,299.07038,122.81758)">
      <rect
         id="r-delt-44"
         y="90"
         x="29.999996"
         width="20"
         ry="2"
         rx="2"
         height="30" />
    </a>
    <a
       id="delt-45"
       xlink:href=""
       transform="matrix(0.999899,0,0,0.999899,299.07038,152.81455)">
      <rect
         id="r-delt-45"
         y="90"
         x="29.999996"
         width="20"
         ry="2"
         rx="2"
         height="30" />
    </a>
    <a
       id="delt-46"
       xlink:href=""
       transform="matrix(0.999899,0,0,0.999899,299.07038,182.81153)">
      <rect
         id="r-delt-46"
         y="90"
         x="29.999996"
         width="20"
         ry="2"
         rx="2"
         height="30" />
    </a>
    <a
       id="delt-47"
       xlink:href=""
       transform="matrix(0.999899,0,0,0.999899,299.07038,212.80851)">
      <rect
         id="r-delt-47"
         y="90"
         x="29.999996"
         width="20"
         ry="2"
         rx="2"
         height="30" />
    </a>
    <a
       id="delt-48"
       xlink:href=""
       transform="matrix(0.999899,0,0,0.999899,299.07038,242.80552)">
      <rect
         id="r-delt-48"
         y="90"
         x="29.999996"
         width="20"
         ry="2"
         rx="2"
         height="30" />
    </a>
    <a
       id="delt-49"
       xlink:href=""
       transform="matrix(0.999899,0,0,0.999899,373.56059,32.826608)">
      <rect
         id="r-delt-49"
         y="90"
         x="29.999996"
         width="20"
         ry="2"
         rx="2"
         height="30" />
    </a>
    <a
       id="delt-50"
       xlink:href=""
       transform="matrix(0.999899,0,0,0.999899,373.56059,62.823548)">
      <rect
         id="r-delt-50"
         y="90"
         x="29.999996"
         width="20"
         ry="2"
         rx="2"
         height="30" />
    </a>
    <a
       id="delt-51"
       xlink:href=""
       transform="matrix(0.999899,0,0,0.999899,373.56059,92.820556)">
      <rect
         id="r-delt-51"
         y="90"
         x="29.999996"
         width="20"
         ry="2"
         rx="2"
         height="30" />
    </a>
    <a
       id="delt-52"
       xlink:href=""
       transform="matrix(0.999899,0,0,0.999899,373.56059,122.81754)">
      <rect
         id="r-delt-52"
         y="90"
         x="29.999996"
         width="20"
         ry="2"
         rx="2"
         height="30" />
    </a>
    <a
       id="delt-53"
       xlink:href=""
       transform="matrix(0.999899,0,0,0.999899,373.56059,152.81455)">
      <rect
         id="r-delt-53"
         y="90"
         x="29.999996"
         width="20"
         ry="2"
         rx="2"
         height="30" />
    </a>
    <a
       id="delt-54"
       xlink:href=""
       transform="matrix(0.999899,0,0,0.999899,373.56059,182.81153)">
      <rect
         id="r-delt-54"
         y="90"
         x="29.999996"
         width="20"
         ry="2"
         rx="2"
         height="30" />
    </a>
    <a
       id="delt-55"
       xlink:href=""
       transform="matrix(0.999899,0,0,0.999899,373.56059,212.80847)">
      <rect
         id="r-delt-55"
         y="90"
         x="29.999996"
         width="20"
         ry="2"
         rx="2"
         height="30" />
    </a>
    <a
       id="delt-56"
       xlink:href=""
       transform="matrix(0.999899,0,0,0.999899,373.56059,242.80552)">
      <rect
         id="r-delt-56"
         y="90"
         x="29.999996"
         width="20"
         ry="2"
         rx="2"
         height="30" />
    </a>
    <a
       id="crew-1"
       xlink:href=""
       transform="matrix(0.999899,0,0,0.999899,393.55855,32.826608)">
      <rect
         id="r-crew-1"
         y="90"
         x="29.999996"
         width="20"
         ry="2"
         rx="2"
         height="30" />
    </a>
    <a
       id="crew-2"
       xlink:href=""
       transform="matrix(0.999899,0,0,0.999899,393.55855,62.823548)">
      <rect
         id="r-crew-2"
         y="90"
         x="29.999996"
         width="20"
         ry="2"
         rx="2"
         height="30" />
    </a>
    <a
       id="crew-3"
       xlink:href=""
       transform="matrix(0.999899,0,0,0.999899,393.55855,92.820556)">
      <rect
         id="r-crew-3"
         y="90"
         x="29.999996"
         width="20"
         ry="2"
         rx="2"
         height="30" />
    </a>
    <a
       id="crew-4"
       xlink:href=""
       transform="matrix(0.999899,0,0,0.999899,393.55855,122.81754)">
      <rect
         id="r-crew-4"
         y="90"
         x="29.999996"
         width="20"
         ry="2"
         rx="2"
         height="30" />
    </a>
    <a
       id="crew-5"
       xlink:href=""
       transform="matrix(0.999899,0,0,0.999899,393.55855,152.81455)">
      <rect
         id="r-crew-5"
         y="90"
         x="29.999996"
         width="20"
         ry="2"
         rx="2"
         height="30" />
    </a>
    <a
       id="crew-6"
       xlink:href=""
       transform="matrix(0.999899,0,0,0.999899,393.55855,182.81153)">
      <rect
         id="r-crew-6"
         y="90"
         x="29.999996"
         width="20"
         ry="2"
         rx="2"
         height="30" />
    </a>
    <a
       id="crew-7"
       xlink:href=""
       transform="matrix(0.999899,0,0,0.999899,393.55855,212.80847)">
      <rect
         id="r-crew-7"
         y="90"
         x="29.999996"
         width="20"
         ry="2"
         rx="2"
         height="30" />
    </a>
    <a
       id="crew-8"
       xlink:href=""
       transform="matrix(0.999899,0,0,0.999899,393.55855,242.80552)">
      <rect
         id="r-crew-8"
         y="90"
         x="29.999996"
         width="20"
         ry="2"
         rx="2"
         height="30" />
    </a>
    <a
       id="crew-9"
       xlink:href=""
       transform="matrix(0.999899,0,0,0.999899,468.04877,32.826608)">
      <rect
         id="r-crew-9"
         y="90"
         x="29.999996"
         width="20"
         ry="2"
         rx="2"
         height="30" />
    </a>
    <a
       id="crew-10"
       xlink:href=""
       transform="matrix(0.999899,0,0,0.999899,468.04877,62.823548)">
      <rect
         id="r-crew-10"
         y="90"
         x="29.999996"
         width="20"
         ry="2"
         rx="2"
         height="30" />
    </a>
    <a
       id="crew-11"
       xlink:href=""
       transform="matrix(0.999899,0,0,0.999899,468.04877,92.820556)">
      <rect
         id="r-crew-11"
         y="90"
         x="29.999996"
         width="20"
         ry="2"
         rx="2"
         height="30" />
    </a>
    <a
       id="crew-12"
       xlink:href=""
       transform="matrix(0.999899,0,0,0.999899,468.04877,122.81754)">
      <rect
         id="r-crew-12"
         y="90"
         x="29.999996"
         width="20"
         ry="2"
         rx="2"
         height="30" />
    </a>
    <a
       id="crew-13"
       xlink:href=""
       transform="matrix(0.999899,0,0,0.999899,468.04877,152.81455)">
      <rect
         id="r-crew-13"
         y="90"
         x="29.999996"
         width="20"
         ry="2"
         rx="2"
         height="30" />
    </a>
    <a
       id="crew-14"
       xlink:href=""
       transform="matrix(0.999899,0,0,0.999899,468.04877,182.81153)">
      <rect
         id="r-crew-14"
         y="90"
         x="29.999996"
         width="20"
         ry="2"
         rx="2"
         height="30" />
    </a>
    <a
       id="crew-15"
       xlink:href=""
       transform="matrix(0.999899,0,0,0.999899,468.04877,212.80847)">
      <rect
         id="r-crew-15"
         y="90"
         x="29.999996"
         width="20"
         ry="2"
         rx="2"
         height="30" />
    </a>
    <a
       id="crew-16"
       xlink:href=""
       transform="matrix(0.999899,0,0,0.999899,468.04877,242.80552)">
      <rect
         id="r-crew-16"
         y="90"
         x="29.999996"
         width="20"
         ry="2"
         rx="2"
         height="30" />
    </a>
    <text
       id="text4518"
       y="455.34119"
       x="605.27856"
       style="font-style:normal;font-weight:normal;font-size:40px;line-height:1.25;font-family:sans-serif;letter-spacing:0px;word-spacing:0px;fill:#000000;fill-opacity:1;stroke:none;stroke-width:0.99999994"
       xml:space="preserve"><tspan
         style="font-size:15.99999905px;stroke-width:0.99999994"
         y="455.34119"
         x="605.27856"
         id="tspan4516">Konsoll</tspan></text>
    <rect
       style="fill:none;stroke:#000000;stroke-width:1.21295464;stroke-opacity:1"
       y="404.62692"
       x="556.70715"
       height="89.950745"
       width="186.50867"
       id="rect4522" />
    <path
       id="path4526"
       d="m 726.70717,280.34119 h 27.14287"
       style="fill:none;stroke:#000000;stroke-width:0.99999994px;stroke-linecap:butt;stroke-linejoin:miter;stroke-opacity:1" />
    <path
       id="path4526-4"
       d="m 725.99288,325.34119 h 27.14286"
       style="fill:none;stroke:#000000;stroke-width:0.99999994px;stroke-linecap:butt;stroke-linejoin:miter;stroke-opacity:1" />
    <text
       id="text4545"
       y="290.34119"
       x="645.99286"
       style="font-style:normal;font-weight:normal;font-size:18.66666794px;line-height:1.25;font-family:sans-serif;letter-spacing:0px;word-spacing:0px;fill:#000000;fill-opacity:1;stroke:none;stroke-width:0.99999994"
       xml:space="preserve"><tspan
         style="font-size:18.66666794px;stroke-width:0.99999994"
         y="290.34119"
         x="645.99286"
         id="tspan4543">Innslipp</tspan></text>
  </g>
</svg>
