<svg height="1000" width="1000">

<rect height="60px" rx="2px" ry="2px" width="120px" x="300" y="600" style="stroke: #000000; stroke-width: 3; fill: none;"></rect>
<text x="320" y="630" fill="black">Scene</text>

<rect height="60px" rx="2px" ry="2px" width="120px" x="300" y="20" style="stroke: #000000; stroke-width: 3; fill: none;"></rect>
<text x="320" y="50" fill="black">"Sovesal"</text>

<!-- -->

<!-- Custom -->
 <a xlink:href="">
  <rect height="20px" rx="2px" ry="2px" width="30px" x="676" y="438">
  </rect>
 </a>
 <a xlink:href="">
  <rect height="20px" rx="2px" ry="2px" width="30px" x="644" y="438">
  </rect>
 </a>
 <a xlink:href="">
  <rect height="20px" rx="2px" ry="2px" width="30px" x="612" y="438">
  </rect>
 </a>
 <a xlink:href="">
  <rect height="20px" rx="2px" ry="2px" width="30px" x="580" y="438">
  </rect>
 </a>
 <a xlink:href="">
  <rect height="20px" rx="2px" ry="2px" width="30px" x="548" y="438">
  </rect>
 </a>
 <a xlink:href="">
  <rect height="20px" rx="2px" ry="2px" width="30px" x="516" y="438">
  </rect>
 </a>
 <a xlink:href="">
  <rect height="20px" rx="2px" ry="2px" width="30px" x="484" y="438">
  </rect>
 </a>
 <a xlink:href="">
  <rect height="20px" rx="2px" ry="2px" width="30px" x="452" y="438">
  </rect>
 </a>
 <a xlink:href="">
  <rect height="20px" rx="2px" ry="2px" width="30px" x="420" y="438">
  </rect>
 </a>
 <a xlink:href="">
  <rect height="20px" rx="2px" ry="2px" width="30px" x="388" y="438">
  </rect>
 </a>
 <a xlink:href="">
  <rect height="20px" rx="2px" ry="2px" width="30px" x="676" y="416">
  </rect>
 </a>
 <a xlink:href="">
  <rect height="20px" rx="2px" ry="2px" width="30px" x="644" y="416">
  </rect>
 </a>
 <a xlink:href="">
  <rect height="20px" rx="2px" ry="2px" width="30px" x="612" y="416">
  </rect>
 </a>
 <a xlink:href="">
  <rect height="20px" rx="2px" ry="2px" width="30px" x="580" y="416">
  </rect>
 </a>
 <a xlink:href="">
  <rect height="20px" rx="2px" ry="2px" width="30px" x="548" y="416">
  </rect>
 </a>
 <a xlink:href="">
  <rect height="20px" rx="2px" ry="2px" width="30px" x="516" y="416">
  </rect>
 </a>
 <a xlink:href="">
  <rect height="20px" rx="2px" ry="2px" width="30px" x="484" y="416">
  </rect>
 </a>
 <a xlink:href="">
  <rect height="20px" rx="2px" ry="2px" width="30px" x="452" y="416">
  </rect>
 </a>
 <a xlink:href="">
  <rect height="20px" rx="2px" ry="2px" width="30px" x="420" y="416">
  </rect>
 </a>
 <a xlink:href="">
  <rect height="20px" rx="2px" ry="2px" width="30px" x="388" y="416">
  </rect>
 </a>
 <a xlink:href="">
  <rect height="20px" rx="2px" ry="2px" width="30px" x="676" y="364">
  </rect>
 </a>
 <a xlink:href="">
  <rect height="20px" rx="2px" ry="2px" width="30px" x="644" y="364">
  </rect>
 </a>
 <a xlink:href="">
  <rect height="20px" rx="2px" ry="2px" width="30px" x="612" y="364">
  </rect>
 </a>
 <a xlink:href="">
  <rect height="20px" rx="2px" ry="2px" width="30px" x="580" y="364">
  </rect>
 </a>
 <a xlink:href="">
  <rect height="20px" rx="2px" ry="2px" width="30px" x="548" y="364">
  </rect>
 </a>
 <a xlink:href="">
  <rect height="20px" rx="2px" ry="2px" width="30px" x="516" y="364">
  </rect>
 </a>
 <a xlink:href="">
  <rect height="20px" rx="2px" ry="2px" width="30px" x="484" y="364">
  </rect>
 </a>
 <a xlink:href="">
  <rect height="20px" rx="2px" ry="2px" width="30px" x="452" y="364">
  </rect>
 </a>
 <a xlink:href="">
  <rect height="20px" rx="2px" ry="2px" width="30px" x="420" y="364">
  </rect>
 </a>
 <a xlink:href="">
  <rect height="20px" rx="2px" ry="2px" width="30px" x="388" y="364">
  </rect>
 </a>
 <a xlink:href="">
  <rect height="20px" rx="2px" ry="2px" width="30px" x="676" y="342">
  </rect>
 </a>
 <a xlink:href="">
  <rect height="20px" rx="2px" ry="2px" width="30px" x="644" y="342">
  </rect>
 </a>
 <a xlink:href="">
  <rect height="20px" rx="2px" ry="2px" width="30px" x="612" y="342">
  </rect>
 </a>
 <a xlink:href="">
  <rect height="20px" rx="2px" ry="2px" width="30px" x="580" y="342">
  </rect>
 </a>
 <a xlink:href="">
  <rect height="20px" rx="2px" ry="2px" width="30px" x="548" y="342">
  </rect>
 </a>
 <a xlink:href="">
  <rect height="20px" rx="2px" ry="2px" width="30px" x="516" y="342">
  </rect>
 </a>
 <a xlink:href="">
  <rect height="20px" rx="2px" ry="2px" width="30px" x="484" y="342">
  </rect>
 </a>
 <a xlink:href="">
  <rect height="20px" rx="2px" ry="2px" width="30px" x="452" y="342">
  </rect>
 </a>
 <a xlink:href="">
  <rect height="20px" rx="2px" ry="2px" width="30px" x="420" y="342">
  </rect>
 </a>
 <a xlink:href="">
  <rect height="20px" rx="2px" ry="2px" width="30px" x="388" y="342">
  </rect>
 </a>
 <a xlink:href="">
  <rect height="20px" rx="2px" ry="2px" width="30px" x="676" y="290">
  </rect>
 </a>
 <a xlink:href="">
  <rect height="20px" rx="2px" ry="2px" width="30px" x="644" y="290">
  </rect>
 </a>
 <a xlink:href="">
  <rect height="20px" rx="2px" ry="2px" width="30px" x="612" y="290">
  </rect>
 </a>
 <a xlink:href="">
  <rect height="20px" rx="2px" ry="2px" width="30px" x="580" y="290">
  </rect>
 </a>
 <a xlink:href="">
  <rect height="20px" rx="2px" ry="2px" width="30px" x="548" y="290">
  </rect>
 </a>
 <a xlink:href="">
  <rect height="20px" rx="2px" ry="2px" width="30px" x="516" y="290">
  </rect>
 </a>
 <a xlink:href="">
  <rect height="20px" rx="2px" ry="2px" width="30px" x="484" y="290">
  </rect>
 </a>
 <a xlink:href="">
  <rect height="20px" rx="2px" ry="2px" width="30px" x="452" y="290">
  </rect>
 </a>
 <a xlink:href="">
  <rect height="20px" rx="2px" ry="2px" width="30px" x="420" y="290">
  </rect>
 </a>
 <a xlink:href="">
  <rect height="20px" rx="2px" ry="2px" width="30px" x="388" y="290">
  </rect>
 </a>
 <a xlink:href="">
  <rect height="20px" rx="2px" ry="2px" width="30px" x="676" y="268">
  </rect>
 </a>
 <a xlink:href="">
  <rect height="20px" rx="2px" ry="2px" width="30px" x="644" y="268">
  </rect>
 </a>
 <a xlink:href="">
  <rect height="20px" rx="2px" ry="2px" width="30px" x="612" y="268">
  </rect>
 </a>
 <a xlink:href="">
  <rect height="20px" rx="2px" ry="2px" width="30px" x="580" y="268">
  </rect>
 </a>
 <a xlink:href="">
  <rect height="20px" rx="2px" ry="2px" width="30px" x="548" y="268">
  </rect>
 </a>
 <a xlink:href="">
  <rect height="20px" rx="2px" ry="2px" width="30px" x="516" y="268">
  </rect>
 </a>
 <a xlink:href="">
  <rect height="20px" rx="2px" ry="2px" width="30px" x="484" y="268">
  </rect>
 </a>
 <a xlink:href="">
  <rect height="20px" rx="2px" ry="2px" width="30px" x="452" y="268">
  </rect>
 </a>
 <a xlink:href="">
  <rect height="20px" rx="2px" ry="2px" width="30px" x="420" y="268">
  </rect>
 </a>
 <a xlink:href="">
  <rect height="20px" rx="2px" ry="2px" width="30px" x="388" y="268">
  </rect>
 </a>
 <a xlink:href="">
  <rect height="20px" rx="2px" ry="2px" width="30px" x="676" y="216">
  </rect>
 </a>
 <a xlink:href="">
  <rect height="20px" rx="2px" ry="2px" width="30px" x="644" y="216">
  </rect>
 </a>
 <a xlink:href="">
  <rect height="20px" rx="2px" ry="2px" width="30px" x="612" y="216">
  </rect>
 </a>
 <a xlink:href="">
  <rect height="20px" rx="2px" ry="2px" width="30px" x="580" y="216">
  </rect>
 </a>
 <a xlink:href="">
  <rect height="20px" rx="2px" ry="2px" width="30px" x="548" y="216">
  </rect>
 </a>
 <a xlink:href="">
  <rect height="20px" rx="2px" ry="2px" width="30px" x="516" y="216">
  </rect>
 </a>
 <a xlink:href="">
  <rect height="20px" rx="2px" ry="2px" width="30px" x="484" y="216">
  </rect>
 </a>
 <a xlink:href="">
  <rect height="20px" rx="2px" ry="2px" width="30px" x="452" y="216">
  </rect>
 </a>
 <a xlink:href="">
  <rect height="20px" rx="2px" ry="2px" width="30px" x="420" y="216">
  </rect>
 </a>
 <a xlink:href="">
  <rect height="20px" rx="2px" ry="2px" width="30px" x="388" y="216">
  </rect>
 </a>
 <a xlink:href="">
  <rect height="20px" rx="2px" ry="2px" width="30px" x="676" y="194">
  </rect>
 </a>
 <a xlink:href="">
  <rect height="20px" rx="2px" ry="2px" width="30px" x="644" y="194">
  </rect>
 </a>
 <a xlink:href="">
  <rect height="20px" rx="2px" ry="2px" width="30px" x="612" y="194">
  </rect>
 </a>
 <a xlink:href="">
  <rect height="20px" rx="2px" ry="2px" width="30px" x="580" y="194">
  </rect>
 </a>
 <a xlink:href="">
  <rect height="20px" rx="2px" ry="2px" width="30px" x="548" y="194">
  </rect>
 </a>
 <a xlink:href="">
  <rect height="20px" rx="2px" ry="2px" width="30px" x="516" y="194">
  </rect>
 </a>
 <a xlink:href="">
  <rect height="20px" rx="2px" ry="2px" width="30px" x="484" y="194">
  </rect>
 </a>
 <a xlink:href="">
  <rect height="20px" rx="2px" ry="2px" width="30px" x="452" y="194">
  </rect>
 </a>
 <a xlink:href="">
  <rect height="20px" rx="2px" ry="2px" width="30px" x="420" y="194">
  </rect>
 </a>
 <a xlink:href="">
  <rect height="20px" rx="2px" ry="2px" width="30px" x="388" y="194">
  </rect>
 </a>
 <a xlink:href="">
  <rect height="20px" rx="2px" ry="2px" width="30px" x="676" y="142">
  </rect>
 </a>
 <a xlink:href="">
  <rect height="20px" rx="2px" ry="2px" width="30px" x="644" y="142">
  </rect>
 </a>
 <a xlink:href="">
  <rect height="20px" rx="2px" ry="2px" width="30px" x="612" y="142">
  </rect>
 </a>
 <a xlink:href="">
  <rect height="20px" rx="2px" ry="2px" width="30px" x="580" y="142">
  </rect>
 </a>
 <a xlink:href="">
  <rect height="20px" rx="2px" ry="2px" width="30px" x="548" y="142">
  </rect>
 </a>
 <a xlink:href="">
  <rect height="20px" rx="2px" ry="2px" width="30px" x="516" y="142">
  </rect>
 </a>
 <a xlink:href="">
  <rect height="20px" rx="2px" ry="2px" width="30px" x="484" y="142">
  </rect>
 </a>
 <a xlink:href="">
  <rect height="20px" rx="2px" ry="2px" width="30px" x="452" y="142">
  </rect>
 </a>
 <a xlink:href="">
  <rect height="20px" rx="2px" ry="2px" width="30px" x="420" y="142">
  </rect>
 </a>
 <a xlink:href="">
  <rect height="20px" rx="2px" ry="2px" width="30px" x="388" y="142">
  </rect>
 </a>
 <a xlink:href="">
  <rect height="20px" rx="2px" ry="2px" width="30px" x="676" y="120">
  </rect>
 </a>
 <a xlink:href="">
  <rect height="20px" rx="2px" ry="2px" width="30px" x="644" y="120">
  </rect>
 </a>
 <a xlink:href="">
  <rect height="20px" rx="2px" ry="2px" width="30px" x="612" y="120">
  </rect>
 </a>
 <a xlink:href="">
  <rect height="20px" rx="2px" ry="2px" width="30px" x="580" y="120">
  </rect>
 </a>
 <a xlink:href="">
  <rect height="20px" rx="2px" ry="2px" width="30px" x="548" y="120">
  </rect>
 </a>
 <a xlink:href="">
  <rect height="20px" rx="2px" ry="2px" width="30px" x="516" y="120">
  </rect>
 </a>
 <a xlink:href="">
  <rect height="20px" rx="2px" ry="2px" width="30px" x="484" y="120">
  </rect>
 </a>
 <a xlink:href="">
  <rect height="20px" rx="2px" ry="2px" width="30px" x="452" y="120">
  </rect>
 </a>
 <a xlink:href="">
  <rect height="20px" rx="2px" ry="2px" width="30px" x="420" y="120">
  </rect>
 </a>
 <a xlink:href="">
  <rect height="20px" rx="2px" ry="2px" width="30px" x="388" y="120">
  </rect>
 </a>
 <a xlink:href="">
  <rect height="20px" rx="2px" ry="2px" width="30px" x="308" y="510">
  </rect>
 </a>
 <a xlink:href="">
  <rect height="20px" rx="2px" ry="2px" width="30px" x="276" y="510">
  </rect>
 </a>
 <a xlink:href="">
  <rect height="20px" rx="2px" ry="2px" width="30px" x="244" y="510">
  </rect>
 </a>
 <a xlink:href="">
  <rect height="20px" rx="2px" ry="2px" width="30px" x="212" y="510">
  </rect>
 </a>
 <a xlink:href="">
  <rect height="20px" rx="2px" ry="2px" width="30px" x="180" y="510">
  </rect>
 </a>
 <a xlink:href="">
  <rect height="20px" rx="2px" ry="2px" width="30px" x="148" y="510">
  </rect>
 </a>
 <a xlink:href="">
  <rect height="20px" rx="2px" ry="2px" width="30px" x="116" y="510">
  </rect>
 </a>
 <a xlink:href="">
  <rect height="20px" rx="2px" ry="2px" width="30px" x="84" y="510">
  </rect>
 </a>
 <a xlink:href="">
  <rect height="20px" rx="2px" ry="2px" width="30px" x="52" y="510">
  </rect>
 </a>
 <a xlink:href="">
  <rect height="20px" rx="2px" ry="2px" width="30px" x="20" y="510">
  </rect>
 </a>
<!-- Custom -->
 <a xlink:href="">
  <rect height="20px" rx="2px" ry="2px" width="30px" x="308" y="488">
  </rect>
 </a>
 <a xlink:href="">
  <rect height="20px" rx="2px" ry="2px" width="30px" x="276" y="488">
  </rect>
 </a>
 <a xlink:href="">
  <rect height="20px" rx="2px" ry="2px" width="30px" x="244" y="488">
  </rect>
 </a>
 <a xlink:href="">
  <rect height="20px" rx="2px" ry="2px" width="30px" x="212" y="488">
  </rect>
 </a>
 <a xlink:href="">
  <rect height="20px" rx="2px" ry="2px" width="30px" x="180" y="488">
  </rect>
 </a>
 <a xlink:href="">
  <rect height="20px" rx="2px" ry="2px" width="30px" x="148" y="488">
  </rect>
 </a>
 <a xlink:href="">
  <rect height="20px" rx="2px" ry="2px" width="30px" x="116" y="488">
  </rect>
 </a>
 <a xlink:href="">
  <rect height="20px" rx="2px" ry="2px" width="30px" x="84" y="488">
  </rect>
 </a>
 <a xlink:href="">
  <rect height="20px" rx="2px" ry="2px" width="30px" x="52" y="488">
  </rect>
 </a>
 <a xlink:href="">
  <rect height="20px" rx="2px" ry="2px" width="30px" x="20" y="488">
  </rect>
 </a>

 <!-- HER -->
 <a xlink:href="">
  <rect height="20px" rx="2px" ry="2px" width="30px" x="308" y="438">
  </rect>
 </a>
 <a xlink:href="">
  <rect height="20px" rx="2px" ry="2px" width="30px" x="276" y="438">
  </rect>
 </a>
 <a xlink:href="">
  <rect height="20px" rx="2px" ry="2px" width="30px" x="244" y="438">
  </rect>
 </a>
 <a xlink:href="">
  <rect height="20px" rx="2px" ry="2px" width="30px" x="212" y="438">
  </rect>
 </a>
 <a xlink:href="">
  <rect height="20px" rx="2px" ry="2px" width="30px" x="180" y="438">
  </rect>
 </a>
 <a xlink:href="">
  <rect height="20px" rx="2px" ry="2px" width="30px" x="148" y="438">
  </rect>
 </a>
 <a xlink:href="">
  <rect height="20px" rx="2px" ry="2px" width="30px" x="116" y="438">
  </rect>
 </a>
 <a xlink:href="">
  <rect height="20px" rx="2px" ry="2px" width="30px" x="84" y="438">
  </rect>
 </a>
 <a xlink:href="">
  <rect height="20px" rx="2px" ry="2px" width="30px" x="52" y="438">
  </rect>
 </a>
 <a xlink:href="">
  <rect height="20px" rx="2px" ry="2px" width="30px" x="20" y="438">
  </rect>
 </a>
 <a xlink:href="">
  <rect height="20px" rx="2px" ry="2px" width="30px" x="308" y="416">
  </rect>
 </a>
 <a xlink:href="">
  <rect height="20px" rx="2px" ry="2px" width="30px" x="276" y="416">
  </rect>
 </a>
 <a xlink:href="">
  <rect height="20px" rx="2px" ry="2px" width="30px" x="244" y="416">
  </rect>
 </a>
 <a xlink:href="">
  <rect height="20px" rx="2px" ry="2px" width="30px" x="212" y="416">
  </rect>
 </a>
 <a xlink:href="">
  <rect height="20px" rx="2px" ry="2px" width="30px" x="180" y="416">
  </rect>
 </a>
 <a xlink:href="">
  <rect height="20px" rx="2px" ry="2px" width="30px" x="148" y="416">
  </rect>
 </a>
 <a xlink:href="">
  <rect height="20px" rx="2px" ry="2px" width="30px" x="116" y="416">
  </rect>
 </a>
 <a xlink:href="">
  <rect height="20px" rx="2px" ry="2px" width="30px" x="84" y="416">
  </rect>
 </a>
 <a xlink:href="">
  <rect height="20px" rx="2px" ry="2px" width="30px" x="52" y="416">
  </rect>
 </a>
 <a xlink:href="">
  <rect height="20px" rx="2px" ry="2px" width="30px" x="20" y="416">
  </rect>
 </a>
 <a xlink:href="">
  <rect height="20px" rx="2px" ry="2px" width="30px" x="308" y="364">
  </rect>
 </a>
 <a xlink:href="">
  <rect height="20px" rx="2px" ry="2px" width="30px" x="276" y="364">
  </rect>
 </a>
 <a xlink:href="">
  <rect height="20px" rx="2px" ry="2px" width="30px" x="244" y="364">
  </rect>
 </a>
 <a xlink:href="">
  <rect height="20px" rx="2px" ry="2px" width="30px" x="212" y="364">
  </rect>
 </a>
 <a xlink:href="">
  <rect height="20px" rx="2px" ry="2px" width="30px" x="180" y="364">
  </rect>
 </a>
 <a xlink:href="">
  <rect height="20px" rx="2px" ry="2px" width="30px" x="148" y="364">
  </rect>
 </a>
 <a xlink:href="">
  <rect height="20px" rx="2px" ry="2px" width="30px" x="116" y="364">
  </rect>
 </a>
 <a xlink:href="">
  <rect height="20px" rx="2px" ry="2px" width="30px" x="84" y="364">
  </rect>
 </a>
 <a xlink:href="">
  <rect height="20px" rx="2px" ry="2px" width="30px" x="52" y="364">
  </rect>
 </a>
 <a xlink:href="">
  <rect height="20px" rx="2px" ry="2px" width="30px" x="20" y="364">
  </rect>
 </a>
 <a xlink:href="">
  <rect height="20px" rx="2px" ry="2px" width="30px" x="308" y="342">
  </rect>
 </a>
 <a xlink:href="">
  <rect height="20px" rx="2px" ry="2px" width="30px" x="276" y="342">
  </rect>
 </a>
 <a xlink:href="">
  <rect height="20px" rx="2px" ry="2px" width="30px" x="244" y="342">
  </rect>
 </a>
 <a xlink:href="">
  <rect height="20px" rx="2px" ry="2px" width="30px" x="212" y="342">
  </rect>
 </a>
 <a xlink:href="">
  <rect height="20px" rx="2px" ry="2px" width="30px" x="180" y="342">
  </rect>
 </a>
 <a xlink:href="">
  <rect height="20px" rx="2px" ry="2px" width="30px" x="148" y="342">
  </rect>
 </a>
 <a xlink:href="">
  <rect height="20px" rx="2px" ry="2px" width="30px" x="116" y="342">
  </rect>
 </a>
 <a xlink:href="">
  <rect height="20px" rx="2px" ry="2px" width="30px" x="84" y="342">
  </rect>
 </a>
 <a xlink:href="">
  <rect height="20px" rx="2px" ry="2px" width="30px" x="52" y="342">
  </rect>
 </a>
 <a xlink:href="">
  <rect height="20px" rx="2px" ry="2px" width="30px" x="20" y="342">
  </rect>
 </a>
 <a xlink:href="">
  <rect height="20px" rx="2px" ry="2px" width="30px" x="308" y="290">
  </rect>
 </a>
 <a xlink:href="">
  <rect height="20px" rx="2px" ry="2px" width="30px" x="276" y="290">
  </rect>
 </a>
 <a xlink:href="">
  <rect height="20px" rx="2px" ry="2px" width="30px" x="244" y="290">
  </rect>
 </a>
 <a xlink:href="">
  <rect height="20px" rx="2px" ry="2px" width="30px" x="212" y="290">
  </rect>
 </a>
 <a xlink:href="">
  <rect height="20px" rx="2px" ry="2px" width="30px" x="180" y="290">
  </rect>
 </a>
 <a xlink:href="">
  <rect height="20px" rx="2px" ry="2px" width="30px" x="148" y="290">
  </rect>
 </a>
 <a xlink:href="">
  <rect height="20px" rx="2px" ry="2px" width="30px" x="116" y="290">
  </rect>
 </a>
 <a xlink:href="">
  <rect height="20px" rx="2px" ry="2px" width="30px" x="84" y="290">
  </rect>
 </a>
 <a xlink:href="">
  <rect height="20px" rx="2px" ry="2px" width="30px" x="52" y="290">
  </rect>
 </a>
 <a xlink:href="">
  <rect height="20px" rx="2px" ry="2px" width="30px" x="20" y="290">
  </rect>
 </a>
 <a xlink:href="">
  <rect height="20px" rx="2px" ry="2px" width="30px" x="308" y="268">
  </rect>
 </a>
 <a xlink:href="">
  <rect height="20px" rx="2px" ry="2px" width="30px" x="276" y="268">
  </rect>
 </a>
 <a xlink:href="">
  <rect height="20px" rx="2px" ry="2px" width="30px" x="244" y="268">
  </rect>
 </a>
 <a xlink:href="">
  <rect height="20px" rx="2px" ry="2px" width="30px" x="212" y="268">
  </rect>
 </a>
 <a xlink:href="">
  <rect height="20px" rx="2px" ry="2px" width="30px" x="180" y="268">
  </rect>
 </a>
 <a xlink:href="">
  <rect height="20px" rx="2px" ry="2px" width="30px" x="148" y="268">
  </rect>
 </a>
 <a xlink:href="">
  <rect height="20px" rx="2px" ry="2px" width="30px" x="116" y="268">
  </rect>
 </a>
 <a xlink:href="">
  <rect height="20px" rx="2px" ry="2px" width="30px" x="84" y="268">
  </rect>
 </a>
 <a xlink:href="">
  <rect height="20px" rx="2px" ry="2px" width="30px" x="52" y="268">
  </rect>
 </a>
 <a xlink:href="">
  <rect height="20px" rx="2px" ry="2px" width="30px" x="20" y="268">
  </rect>
 </a>
 <a xlink:href="">
  <rect height="20px" rx="2px" ry="2px" width="30px" x="308" y="216">
  </rect>
 </a>
 <a xlink:href="">
  <rect height="20px" rx="2px" ry="2px" width="30px" x="276" y="216">
  </rect>
 </a>
 <a xlink:href="">
  <rect height="20px" rx="2px" ry="2px" width="30px" x="244" y="216">
  </rect>
 </a>
 <a xlink:href="">
  <rect height="20px" rx="2px" ry="2px" width="30px" x="212" y="216">
  </rect>
 </a>
 <a xlink:href="">
  <rect height="20px" rx="2px" ry="2px" width="30px" x="180" y="216">
  </rect>
 </a>
 <a xlink:href="">
  <rect height="20px" rx="2px" ry="2px" width="30px" x="148" y="216">
  </rect>
 </a>
 <a xlink:href="">
  <rect height="20px" rx="2px" ry="2px" width="30px" x="116" y="216">
  </rect>
 </a>
 <a xlink:href="">
  <rect height="20px" rx="2px" ry="2px" width="30px" x="84" y="216">
  </rect>
 </a>
 <a xlink:href="">
  <rect height="20px" rx="2px" ry="2px" width="30px" x="52" y="216">
  </rect>
 </a>
 <a xlink:href="">
  <rect height="20px" rx="2px" ry="2px" width="30px" x="20" y="216">
  </rect>
 </a>
 <a xlink:href="">
  <rect height="20px" rx="2px" ry="2px" width="30px" x="308" y="194">
  </rect>
 </a>
 <a xlink:href="">
  <rect height="20px" rx="2px" ry="2px" width="30px" x="276" y="194">
  </rect>
 </a>
 <a xlink:href="">
  <rect height="20px" rx="2px" ry="2px" width="30px" x="244" y="194">
  </rect>
 </a>
 <a xlink:href="">
  <rect height="20px" rx="2px" ry="2px" width="30px" x="212" y="194">
  </rect>
 </a>
 <a xlink:href="">
  <rect height="20px" rx="2px" ry="2px" width="30px" x="180" y="194">
  </rect>
 </a>
 <a xlink:href="">
  <rect height="20px" rx="2px" ry="2px" width="30px" x="148" y="194">
  </rect>
 </a>
 <a xlink:href="">
  <rect height="20px" rx="2px" ry="2px" width="30px" x="116" y="194">
  </rect>
 </a>
 <a xlink:href="">
  <rect height="20px" rx="2px" ry="2px" width="30px" x="84" y="194">
  </rect>
 </a>
 <a xlink:href="">
  <rect height="20px" rx="2px" ry="2px" width="30px" x="52" y="194">
  </rect>
 </a>
 <a xlink:href="">
  <rect height="20px" rx="2px" ry="2px" width="30px" x="20" y="194">
  </rect>
 </a>
 <a xlink:href="">
  <rect height="20px" rx="2px" ry="2px" width="30px" x="308" y="142">
  </rect>
 </a>
 <a xlink:href="">
  <rect height="20px" rx="2px" ry="2px" width="30px" x="276" y="142">
  </rect>
 </a>
 <a xlink:href="">
  <rect height="20px" rx="2px" ry="2px" width="30px" x="244" y="142">
  </rect>
 </a>
 <a xlink:href="">
  <rect height="20px" rx="2px" ry="2px" width="30px" x="212" y="142">
  </rect>
 </a>
 <a xlink:href="">
  <rect height="20px" rx="2px" ry="2px" width="30px" x="180" y="142">
  </rect>
 </a>
 <a xlink:href="">
  <rect height="20px" rx="2px" ry="2px" width="30px" x="148" y="142">
  </rect>
 </a>
 <a xlink:href="">
  <rect height="20px" rx="2px" ry="2px" width="30px" x="116" y="142">
  </rect>
 </a>
 <a xlink:href="">
  <rect height="20px" rx="2px" ry="2px" width="30px" x="84" y="142">
  </rect>
 </a>
 <a xlink:href="">
  <rect height="20px" rx="2px" ry="2px" width="30px" x="52" y="142">
  </rect>
 </a>
 <a xlink:href="">
  <rect height="20px" rx="2px" ry="2px" width="30px" x="20" y="142">
  </rect>
 </a>
 <a xlink:href="">
  <rect height="20px" rx="2px" ry="2px" width="30px" x="308" y="120">
  </rect>
 </a>
 <a xlink:href="">
  <rect height="20px" rx="2px" ry="2px" width="30px" x="276" y="120">
  </rect>
 </a>
 <a xlink:href="">
  <rect height="20px" rx="2px" ry="2px" width="30px" x="244" y="120">
  </rect>
 </a>
 <a xlink:href="">
  <rect height="20px" rx="2px" ry="2px" width="30px" x="212" y="120">
  </rect>
 </a>
 <a xlink:href="">
  <rect height="20px" rx="2px" ry="2px" width="30px" x="180" y="120">
  </rect>
 </a>
 <a xlink:href="">
  <rect height="20px" rx="2px" ry="2px" width="30px" x="148" y="120">
  </rect>
 </a>
 <a xlink:href="">
  <rect height="20px" rx="2px" ry="2px" width="30px" x="116" y="120">
  </rect>
 </a>
 <a xlink:href="">
  <rect height="20px" rx="2px" ry="2px" width="30px" x="84" y="120">
  </rect>
 </a>
 <a xlink:href="">
  <rect height="20px" rx="2px" ry="2px" width="30px" x="52" y="120">
  </rect>
 </a>
  <a xlink:href="">
  <rect height="20px" rx="2px" ry="2px" width="30px" x="20" y="120">
  </rect>
 </a>
</svg>
