<svg xmlns="http://www.w3.org/2000/svg" viewBox="0 0 26 52">

    <!-- Measurements are in meters. -->
    <!-- Inner dimensions (yellow lines): 20x40kvm -->
    <!-- Outer dimensions (flat area): 24.5x44.5kvm, rounded to 24x44kvm -->
    <!-- Total area (including ~6m tribune): 24x50 -->
    <!-- 1m/1px of padding is added to the top, left and right (and some below) to draw outside the main area. -->

    <style type="text/css">
        rect {
            /* Remove default fill */
            fill: none;
        }

        text {
            fill: white; /* TMP blueprint */
            font-family: Arial;
            /* Change default alignment to center point */
            text-anchor: middle;
            alignment-baseline: middle;
        }

        text.align-left {
            text-anchor: start;
        }

        text.align-right {
            text-anchor: end;
        }

        .grid {
            /* DEBUG: Grid lines */
            /*display: none;*/
        }

        .grid line {
            stroke: #ccc;
            stroke-width: 0.025px;
        }

        .walls line {
            stroke: #666;
            stroke-width: 0.2px;
        }

        .walls line.zone-wall {
            stroke: #666;
            stroke-width: 0.1px;
            stroke-dasharray: 0.1;
        }

        .area-title {
            font-size: 1.2px;
        }

        .area-title-small {
            font-size: 1.0px;
        }

        .area-text {
            font-size: 1px;
        }

        .sleeping-row-area {
            stroke: #666;
            stroke-width: 0.05px;
            fill: #afb8;
        }

        .stage-area {
            stroke: #666;
            stroke-width: 0.05px;
            fill: #adf8;
        }

        .crew-area {
            stroke: #666;
            stroke-width: 0.05px;
            fill: #adf8;
        }

        .participant-area {
            stroke: #666;
            stroke-width: 0.05px;
            fill: #ff88;
        }

        .misc-area {
            stroke: #666;
            stroke-width: 0.05px;
            fill: #afb8;
        }

        rect.seat,
        .seat rect {
            stroke: #666;
            stroke-width: 0.05px;
            fill: #ddda;
        }

        rect.seat.spacer-seat {
            /* DEBUG */
            /*display: none;*/
        }

        /* Dynamic studlan styling: Available seat */
        rect.seating-node-free {
            fill: #5cb85c;
        }

        /* Dynamic studlan styling: Occupied seat */
        rect.seating-node-occupied {
            fill: #d9534f;
        }

        /* Dynamic studlan styling: Own seat */
        rect.seating-node-self {
            fill: #f0ad4e;
        }

        /* Dynamic studlan styling: Clicked seat */
        rect.seating-node-info {
            stroke-width: 0.1px;
            fill: #0275d8;
        }

        /* Dynamic studlan styling: Hyperlinked seat */
        rect.seating-node-search {
            fill: #5bc0de;
            stroke-width: 0.1px;
        }
    </style>

    <!-- Background -->
    <!-- TMP blueprint -->
    <rect width="100%" height="100%" style="fill: darkblue;"/>

    <!-- DEBUG: Image frame -->
    <!--<rect width="50" height="50" style="fill: none; stroke: #00f; stroke-width: 0.1px;"/>-->

    <!-- Hall -->
    <g class="hall" transform="translate(1, 1)">

        <!-- Grid lines (optional) -->
        <g class="grid">
            <!-- Vertical lines -->
            <line x1="0" x2="0" y1="0" y2="44"/>
            <line x1="1" x2="1" y1="0" y2="44"/>
            <line x1="2" x2="2" y1="0" y2="44"/>
            <line x1="3" x2="3" y1="0" y2="44"/>
            <line x1="4" x2="4" y1="0" y2="44"/>
            <line x1="5" x2="5" y1="0" y2="44"/>
            <line x1="6" x2="6" y1="0" y2="44"/>
            <line x1="7" x2="7" y1="0" y2="44"/>
            <line x1="8" x2="8" y1="0" y2="44"/>
            <line x1="9" x2="9" y1="0" y2="44"/>
            <line x1="10" x2="10" y1="0" y2="44"/>
            <line x1="11" x2="11" y1="0" y2="44"/>
            <line x1="12" x2="12" y1="0" y2="44"/>
            <line x1="13" x2="13" y1="0" y2="44"/>
            <line x1="14" x2="14" y1="0" y2="44"/>
            <line x1="15" x2="15" y1="0" y2="44"/>
            <line x1="16" x2="16" y1="0" y2="44"/>
            <line x1="17" x2="17" y1="0" y2="44"/>
            <line x1="18" x2="18" y1="0" y2="44"/>
            <line x1="19" x2="19" y1="0" y2="44"/>
            <line x1="20" x2="20" y1="0" y2="44"/>
            <line x1="21" x2="21" y1="0" y2="44"/>
            <line x1="22" x2="22" y1="0" y2="44"/>
            <line x1="23" x2="23" y1="0" y2="44"/>
            <line x1="24" x2="24" y1="0" y2="44"/>

            <!-- Horizontal lines -->
            <line x1="0" x2="24" y1="0" y2="0"/>
            <line x1="0" x2="24" y1="1" y2="1"/>
            <line x1="0" x2="24" y1="2" y2="2"/>
            <line x1="0" x2="24" y1="3" y2="3"/>
            <line x1="0" x2="24" y1="4" y2="4"/>
            <line x1="0" x2="24" y1="5" y2="5"/>
            <line x1="0" x2="24" y1="6" y2="6"/>
            <line x1="0" x2="24" y1="7" y2="7"/>
            <line x1="0" x2="24" y1="8" y2="8"/>
            <line x1="0" x2="24" y1="9" y2="9"/>
            <line x1="0" x2="24" y1="10" y2="10"/>
            <line x1="0" x2="24" y1="11" y2="11"/>
            <line x1="0" x2="24" y1="12" y2="12"/>
            <line x1="0" x2="24" y1="13" y2="13"/>
            <line x1="0" x2="24" y1="14" y2="14"/>
            <line x1="0" x2="24" y1="15" y2="15"/>
            <line x1="0" x2="24" y1="16" y2="16"/>
            <line x1="0" x2="24" y1="17" y2="17"/>
            <line x1="0" x2="24" y1="18" y2="18"/>
            <line x1="0" x2="24" y1="19" y2="19"/>
            <line x1="0" x2="24" y1="20" y2="20"/>
            <line x1="0" x2="24" y1="21" y2="21"/>
            <line x1="0" x2="24" y1="22" y2="22"/>
            <line x1="0" x2="24" y1="23" y2="23"/>
            <line x1="0" x2="24" y1="24" y2="24"/>
            <line x1="0" x2="24" y1="25" y2="25"/>
            <line x1="0" x2="24" y1="26" y2="26"/>
            <line x1="0" x2="24" y1="27" y2="27"/>
            <line x1="0" x2="24" y1="28" y2="28"/>
            <line x1="0" x2="24" y1="29" y2="29"/>
            <line x1="0" x2="24" y1="30" y2="30"/>
            <line x1="0" x2="24" y1="31" y2="31"/>
            <line x1="0" x2="24" y1="32" y2="32"/>
            <line x1="0" x2="24" y1="33" y2="33"/>
            <line x1="0" x2="24" y1="34" y2="34"/>
            <line x1="0" x2="24" y1="35" y2="35"/>
            <line x1="0" x2="24" y1="36" y2="36"/>
            <line x1="0" x2="24" y1="37" y2="37"/>
            <line x1="0" x2="24" y1="38" y2="38"/>
            <line x1="0" x2="24" y1="39" y2="39"/>
            <line x1="0" x2="24" y1="40" y2="40"/>
            <line x1="0" x2="24" y1="41" y2="41"/>
            <line x1="0" x2="24" y1="42" y2="42"/>
            <line x1="0" x2="24" y1="43" y2="43"/>
            <line x1="0" x2="24" y1="44" y2="44"/>
        </g>

        <!-- Walls -->
        <g class="walls">
            <!-- Top wall -->
            <line x1="0" x2="1" y1="0" y2="0"/>
            <line x1="3" x2="11" y1="0" y2="0"/>
            <line x1="13" x2="21" y1="0" y2="0"/>
            <line x1="23" x2="24" y1="0" y2="0"/>
            <!-- Left wall -->
            <line x1="0" x2="0" y1="0" y2="50"/>
            <line x1="2" x2="2" y1="0" y2="44" class="zone-wall"/>
            <!-- Right wall -->
            <g transform="translate(23, 14) rotate(90)"><text class="area-text">Nødutgang</text></g>
            <line x1="24" x2="24" y1="0" y2="11.5"/>
            <line x1="24" x2="24" y1="16.5" y2="48"/>
            <line x1="22" x2="22" y1="0" y2="44" class="zone-wall"/>
            <!-- Bottom walls -->
            <g transform="translate(21.5, 49) rotate(0)"><text class="area-text">Inngang</text></g>
            <g transform="translate(1, 45) rotate(270)"><text class="area-text">Nødutgang</text></g>
            <line x1="0" x2="24" y1="50" y2="50"/>
            <line x1="2" x2="2" y1="44" y2="48"/>
            <line x1="0" x2="2" y1="48" y2="48"/>
            <!-- Tribune -->
            <text x="13" y="46" class="area-title">Tribune</text>
            <line x1="4" x2="22" y1="44" y2="44"/>
            <line x1="4" x2="22" y1="48" y2="48"/>
            <line x1="2" x2="4" y1="44" y2="44" class="zone-wall"/>
            <line x1="22" x2="24" y1="44" y2="44" class="zone-wall"/>
            <line x1="2" x2="4" y1="48" y2="48" class="zone-wall"/>
            <line x1="22" x2="24" y1="48" y2="48" class="zone-wall"/>
            <line x1="4" x2="4" y1="44" y2="48"/>
            <line x1="22" x2="22" y1="44" y2="48"/>
        </g>

        <!-- Crew area -->
        <g transform="translate(2, 0)">
            <rect x="0" y="0" width="20" height="3" class="crew-area"/>
            <text x="10" y="1.5" class="area-title">Crew</text>
        </g>

        <!-- Stage -->
        <g class="stage" transform="translate(2, 6)">
            <!-- Area and title -->
            <rect width="20" height="4" class="stage-area"/>
            <text x="10" y="2.5" class="area-title-small">Scene</text>
            <!-- Left team -->
            <g class="seating-row" transform="translate(1.6, 4)">
                <rect x="0.0" y="-0.9" width="0.8" height="0.6" class="seat spacer-seat"/>
                <rect x="1.4" y="-0.9" width="0.8" height="0.6" class="seat spacer-seat"/>
                <rect x="2.8" y="-0.9" width="0.8" height="0.6" class="seat spacer-seat"/>
                <rect x="4.2" y="-0.9" width="0.8" height="0.6" class="seat spacer-seat"/>
                <rect x="5.6" y="-0.9" width="0.8" height="0.6" class="seat spacer-seat"/>
            </g>
            <!-- Right team -->
            <g class="seating-row" transform="translate(12, 4)">
                <rect x="0.0" y="-0.9" width="0.8" height="0.6" class="seat spacer-seat"/>
                <rect x="1.4" y="-0.9" width="0.8" height="0.6" class="seat spacer-seat"/>
                <rect x="2.8" y="-0.9" width="0.8" height="0.6" class="seat spacer-seat"/>
                <rect x="4.2" y="-0.9" width="0.8" height="0.6" class="seat spacer-seat"/>
                <rect x="5.6" y="-0.9" width="0.8" height="0.6" class="seat spacer-seat"/>
            </g>
            <!-- Sofakrok -->
            <g class="seating-row" transform="translate(10, 0.5)">
                <rect x="-1" y="0" width="2" height="1" class="seat spacer-seat"/>
            </g>
        </g>

        <!-- Høyre sitteområde scene -->
        <g transform="translate(2, 15)">
            <rect x="0" y="0" width="6" height="4" class="participant-area"/>
            <text x="3" y="2" class="area-title-small">Stoler</text>
        </g>

        <!-- Venstre sitteområde scene -->
        <g transform="translate(16, 15)">
            <rect x="0" y="0" width="6" height="4" class="participant-area"/>
            <text x="3" y="2" class="area-title-small">Stoler</text>
        </g>

        <!-- FOH -->
        <g transform="translate(9, 15)">
            <rect x="0" y="0" width="6" height="4" class="crew-area"/>
            <text x="3" y="2" class="area-title">Crew</text>
        </g>

        <!-- Bordplasser for PC -->
        <g transform="translate(2, 20)">
            <rect x="0" y="0" width="20" height="5" class="participant-area"/>
            <text x="10" y="2.5" class="area-title-small">Bordplasser</text>
        </g>

        <!-- Mario Kart & Smash -->
        <g transform="translate(5, 26)">
            <rect x="0" y="0" width="14" height="18" class="misc-area"/>
            <text x="7" y="9" class="area-title-small">MK &amp; Smash</text>
        </g>

        <!-- Left stand area -->
        <g transform="translate(0, 28)">
            <rect x="0" y="0" width="3" height="12" class="misc-area"/>
            <g transform="translate(1.5, 6) rotate(270)"><text class="area-title-small">Stand?</text></g>
        </g>

        <!-- Right stand area -->
        <g transform="translate(21, 28)">
            <rect x="0" y="0" width="3" height="9" class="misc-area"/>
            <g transform="translate(1.5, 4.5) rotate(90)"><text class="area-title-small">Stand?</text></g>
        </g>

        <!-- Dørvakt -->
        <g transform="translate(21, 37)">
            <rect x="0" y="0" width="3" height="3" class="crew-area"/>
            <text x="1.5" y="1.5" class="area-title-small">Vakt</text>
        </g>

    </g>
</svg>
