<svg height="900px" width="900px">



    <a xlink:href="">
     <rect x="325" y="335" rx="2px" ry="2px" height="20px" width="30px">
     </rect>
    </a>
    <a xlink:href="">
     <rect x="290" y="335" rx="2px" ry="2px" height="20px" width="30px">
     </rect>
    </a>
    <a xlink:href="">
     <rect x="255" y="335" rx="2px" ry="2px" height="20px" width="30px">
     </rect>
    </a>
    <a xlink:href="">
     <rect x="220" y="335" rx="2px" ry="2px" height="20px" width="30px">
     </rect>
    </a>
    <a xlink:href="">
     <rect x="185" y="335" rx="2px" ry="2px" height="20px" width="30px">
     </rect>
    </a>
    <a xlink:href="">
     <rect x="150" y="335" rx="2px" ry="2px" height="20px" width="30px">
     </rect>
    </a>
    <a xlink:href="">
     <rect x="115" y="335" rx="2px" ry="2px" height="20px" width="30px">
     </rect>
    </a>
    <a xlink:href="">
     <rect x="80" y="335" rx="2px" ry="2px" height="20px" width="30px">
     </rect>
    </a>
    <a xlink:href="">
     <rect x="45" y="335" rx="2px" ry="2px" height="20px" width="30px">
     </rect>
    </a>
    <a xlink:href="">
     <rect x="10" y="335" rx="2px" ry="2px" height="20px" width="30px">
     </rect>
    </a>
    <a xlink:href="">
     <rect x="325" y="310" rx="2px" ry="2px" height="20px" width="30px">
     </rect>
    </a>
    <a xlink:href="">
     <rect x="290" y="310" rx="2px" ry="2px" height="20px" width="30px">
     </rect>
    </a>
    <a xlink:href="">
     <rect x="255" y="310" rx="2px" ry="2px" height="20px" width="30px">
     </rect>
    </a>
    <a xlink:href="">
     <rect x="220" y="310" rx="2px" ry="2px" height="20px" width="30px">
     </rect>
    </a>
    <a xlink:href="">
     <rect x="185" y="310" rx="2px" ry="2px" height="20px" width="30px">
     </rect>
    </a>
    <a xlink:href="">
     <rect x="150" y="310" rx="2px" ry="2px" height="20px" width="30px">
     </rect>
    </a>
    <a xlink:href="">
     <rect x="115" y="310" rx="2px" ry="2px" height="20px" width="30px">
     </rect>
    </a>
    <a xlink:href="">
     <rect x="80" y="310" rx="2px" ry="2px" height="20px" width="30px">
     </rect>
    </a>
    <a xlink:href="">
     <rect x="45" y="310" rx="2px" ry="2px" height="20px" width="30px">
     </rect>
    </a>
    <a xlink:href="">
     <rect x="10" y="310" rx="2px" ry="2px" height="20px" width="30px">
     </rect>
    </a>
    <a xlink:href="">
     <rect x="705" y="275" rx="2px" ry="2px" height="20px" width="30px">
     </rect>
    </a>
    <a xlink:href="">
     <rect x="670" y="275" rx="2px" ry="2px" height="20px" width="30px">
     </rect>
    </a>
    <a xlink:href="">
     <rect x="635" y="275" rx="2px" ry="2px" height="20px" width="30px">
     </rect>
    </a>
    <a xlink:href="">
     <rect x="600" y="275" rx="2px" ry="2px" height="20px" width="30px">
     </rect>
    </a>
    <a xlink:href="">
     <rect x="565" y="275" rx="2px" ry="2px" height="20px" width="30px">
     </rect>
    </a>
    <a xlink:href="">
     <rect x="530" y="275" rx="2px" ry="2px" height="20px" width="30px">
     </rect>
    </a>
    <a xlink:href="">
     <rect x="495" y="275" rx="2px" ry="2px" height="20px" width="30px">
     </rect>
    </a>
    <a xlink:href="">
     <rect x="460" y="275" rx="2px" ry="2px" height="20px" width="30px">
     </rect>
    </a>
    <a xlink:href="">
     <rect x="425" y="275" rx="2px" ry="2px" height="20px" width="30px">
     </rect>
    </a>
    <a xlink:href="">
     <rect x="390" y="275" rx="2px" ry="2px" height="20px" width="30px">
     </rect>
    </a>
    <a xlink:href="">
     <rect x="325" y="275" rx="2px" ry="2px" height="20px" width="30px">
     </rect>
    </a>
    <a xlink:href="">
     <rect x="290" y="275" rx="2px" ry="2px" height="20px" width="30px">
     </rect>
    </a>
    <a xlink:href="">
     <rect x="255" y="275" rx="2px" ry="2px" height="20px" width="30px">
     </rect>
    </a>
    <a xlink:href="">
     <rect x="220" y="275" rx="2px" ry="2px" height="20px" width="30px">
     </rect>
    </a>
    <a xlink:href="">
     <rect x="185" y="275" rx="2px" ry="2px" height="20px" width="30px">
     </rect>
    </a>
    <a xlink:href="">
     <rect x="150" y="275" rx="2px" ry="2px" height="20px" width="30px">
     </rect>
    </a>
    <a xlink:href="">
     <rect x="115" y="275" rx="2px" ry="2px" height="20px" width="30px">
     </rect>
    </a>
    <a xlink:href="">
     <rect x="80" y="275" rx="2px" ry="2px" height="20px" width="30px">
     </rect>
    </a>
    <a xlink:href="">
     <rect x="45" y="275" rx="2px" ry="2px" height="20px" width="30px">
     </rect>
    </a>
    <a xlink:href="">
     <rect x="10" y="275" rx="2px" ry="2px" height="20px" width="30px">
     </rect>
    </a>
    <a xlink:href="">
     <rect x="705" y="250" rx="2px" ry="2px" height="20px" width="30px">
     </rect>
    </a>
    <a xlink:href="">
     <rect x="670" y="250" rx="2px" ry="2px" height="20px" width="30px">
     </rect>
    </a>
    <a xlink:href="">
     <rect x="635" y="250" rx="2px" ry="2px" height="20px" width="30px">
     </rect>
    </a>
    <a xlink:href="">
     <rect x="600" y="250" rx="2px" ry="2px" height="20px" width="30px">
     </rect>
    </a>
    <a xlink:href="">
     <rect x="565" y="250" rx="2px" ry="2px" height="20px" width="30px">
     </rect>
    </a>
    <a xlink:href="">
     <rect x="530" y="250" rx="2px" ry="2px" height="20px" width="30px">
     </rect>
    </a>
    <a xlink:href="">
     <rect x="495" y="250" rx="2px" ry="2px" height="20px" width="30px">
     </rect>
    </a>
    <a xlink:href="">
     <rect x="460" y="250" rx="2px" ry="2px" height="20px" width="30px">
     </rect>
    </a>
    <a xlink:href="">
     <rect x="425" y="250" rx="2px" ry="2px" height="20px" width="30px">
     </rect>
    </a>
    <a xlink:href="">
     <rect x="390" y="250" rx="2px" ry="2px" height="20px" width="30px">
     </rect>
    </a>
    <a xlink:href="">
     <rect x="325" y="250" rx="2px" ry="2px" height="20px" width="30px">
     </rect>
    </a>
    <a xlink:href="">
     <rect x="290" y="250" rx="2px" ry="2px" height="20px" width="30px">
     </rect>
    </a>
    <a xlink:href="">
     <rect x="255" y="250" rx="2px" ry="2px" height="20px" width="30px">
     </rect>
    </a>
    <a xlink:href="">
     <rect x="220" y="250" rx="2px" ry="2px" height="20px" width="30px">
     </rect>
    </a>
    <a xlink:href="">
     <rect x="185" y="250" rx="2px" ry="2px" height="20px" width="30px">
     </rect>
    </a>
    <a xlink:href="">
     <rect x="150" y="250" rx="2px" ry="2px" height="20px" width="30px">
     </rect>
    </a>
    <a xlink:href="">
     <rect x="115" y="250" rx="2px" ry="2px" height="20px" width="30px">
     </rect>
    </a>
    <a xlink:href="">
     <rect x="80" y="250" rx="2px" ry="2px" height="20px" width="30px">
     </rect>
    </a>
    <a xlink:href="">
     <rect x="45" y="250" rx="2px" ry="2px" height="20px" width="30px">
     </rect>
    </a>
    <a xlink:href="">
     <rect x="10" y="250" rx="2px" ry="2px" height="20px" width="30px">
     </rect>
    </a>
    <a xlink:href="">
     <rect x="705" y="215" rx="2px" ry="2px" height="20px" width="30px">
     </rect>
    </a>
    <a xlink:href="">
     <rect x="670" y="215" rx="2px" ry="2px" height="20px" width="30px">
     </rect>
    </a>
    <a xlink:href="">
     <rect x="635" y="215" rx="2px" ry="2px" height="20px" width="30px">
     </rect>
    </a>
    <a xlink:href="">
     <rect x="600" y="215" rx="2px" ry="2px" height="20px" width="30px">
     </rect>
    </a>
    <a xlink:href="">
     <rect x="565" y="215" rx="2px" ry="2px" height="20px" width="30px">
     </rect>
    </a>
    <a xlink:href="">
     <rect x="530" y="215" rx="2px" ry="2px" height="20px" width="30px">
     </rect>
    </a>
    <a xlink:href="">
     <rect x="495" y="215" rx="2px" ry="2px" height="20px" width="30px">
     </rect>
    </a>
    <a xlink:href="">
     <rect x="460" y="215" rx="2px" ry="2px" height="20px" width="30px">
     </rect>
    </a>
    <a xlink:href="">
     <rect x="425" y="215" rx="2px" ry="2px" height="20px" width="30px">
     </rect>
    </a>
    <a xlink:href="">
     <rect x="390" y="215" rx="2px" ry="2px" height="20px" width="30px">
     </rect>
    </a>
    <a xlink:href="">
     <rect x="325" y="215" rx="2px" ry="2px" height="20px" width="30px">
     </rect>
    </a>
    <a xlink:href="">
     <rect x="290" y="215" rx="2px" ry="2px" height="20px" width="30px">
     </rect>
    </a>
    <a xlink:href="">
     <rect x="255" y="215" rx="2px" ry="2px" height="20px" width="30px">
     </rect>
    </a>
    <a xlink:href="">
     <rect x="220" y="215" rx="2px" ry="2px" height="20px" width="30px">
     </rect>
    </a>
    <a xlink:href="">
     <rect x="185" y="215" rx="2px" ry="2px" height="20px" width="30px">
     </rect>
    </a>
    <a xlink:href="">
     <rect x="150" y="215" rx="2px" ry="2px" height="20px" width="30px">
     </rect>
    </a>
    <a xlink:href="">
     <rect x="115" y="215" rx="2px" ry="2px" height="20px" width="30px">
     </rect>
    </a>
    <a xlink:href="">
     <rect x="80" y="215" rx="2px" ry="2px" height="20px" width="30px">
     </rect>
    </a>
    <a xlink:href="">
     <rect x="45" y="215" rx="2px" ry="2px" height="20px" width="30px">
     </rect>
    </a>
    <a xlink:href="">
     <rect x="10" y="215" rx="2px" ry="2px" height="20px" width="30px">
     </rect>
    </a>
    <a xlink:href="">
     <rect x="705" y="190" rx="2px" ry="2px" height="20px" width="30px">
     </rect>
    </a>
    <a xlink:href="">
     <rect x="670" y="190" rx="2px" ry="2px" height="20px" width="30px">
     </rect>
    </a>
    <a xlink:href="">
     <rect x="635" y="190" rx="2px" ry="2px" height="20px" width="30px">
     </rect>
    </a>
    <a xlink:href="">
     <rect x="600" y="190" rx="2px" ry="2px" height="20px" width="30px">
     </rect>
    </a>
    <a xlink:href="">
     <rect x="565" y="190" rx="2px" ry="2px" height="20px" width="30px">
     </rect>
    </a>
    <a xlink:href="">
     <rect x="530" y="190" rx="2px" ry="2px" height="20px" width="30px">
     </rect>
    </a>
    <a xlink:href="">
     <rect x="495" y="190" rx="2px" ry="2px" height="20px" width="30px">
     </rect>
    </a>
    <a xlink:href="">
     <rect x="460" y="190" rx="2px" ry="2px" height="20px" width="30px">
     </rect>
    </a>
    <a xlink:href="">
     <rect x="425" y="190" rx="2px" ry="2px" height="20px" width="30px">
     </rect>
    </a>
    <a xlink:href="">
     <rect x="390" y="190" rx="2px" ry="2px" height="20px" width="30px">
     </rect>
    </a>
    <a xlink:href="">
     <rect x="325" y="190" rx="2px" ry="2px" height="20px" width="30px">
     </rect>
    </a>
    <a xlink:href="">
     <rect x="290" y="190" rx="2px" ry="2px" height="20px" width="30px">
     </rect>
    </a>
    <a xlink:href="">
     <rect x="255" y="190" rx="2px" ry="2px" height="20px" width="30px">
     </rect>
    </a>
    <a xlink:href="">
     <rect x="220" y="190" rx="2px" ry="2px" height="20px" width="30px">
     </rect>
    </a>
    <a xlink:href="">
     <rect x="185" y="190" rx="2px" ry="2px" height="20px" width="30px">
     </rect>
    </a>
    <a xlink:href="">
     <rect x="150" y="190" rx="2px" ry="2px" height="20px" width="30px">
     </rect>
    </a>
    <a xlink:href="">
     <rect x="115" y="190" rx="2px" ry="2px" height="20px" width="30px">
     </rect>
    </a>
    <a xlink:href="">
     <rect x="80" y="190" rx="2px" ry="2px" height="20px" width="30px">
     </rect>
    </a>
    <a xlink:href="">
     <rect x="45" y="190" rx="2px" ry="2px" height="20px" width="30px">
     </rect>
    </a>
    <a xlink:href="">
     <rect x="10" y="190" rx="2px" ry="2px" height="20px" width="30px">
     </rect>
    </a>
    <a xlink:href="">
     <rect x="705" y="155" rx="2px" ry="2px" height="20px" width="30px">
     </rect>
    </a>
    <a xlink:href="">
     <rect x="670" y="155" rx="2px" ry="2px" height="20px" width="30px">
     </rect>
    </a>
    <a xlink:href="">
     <rect x="635" y="155" rx="2px" ry="2px" height="20px" width="30px">
     </rect>
    </a>
    <a xlink:href="">
     <rect x="600" y="155" rx="2px" ry="2px" height="20px" width="30px">
     </rect>
    </a>
    <a xlink:href="">
     <rect x="565" y="155" rx="2px" ry="2px" height="20px" width="30px">
     </rect>
    </a>
    <a xlink:href="">
     <rect x="530" y="155" rx="2px" ry="2px" height="20px" width="30px">
     </rect>
    </a>
    <a xlink:href="">
     <rect x="495" y="155" rx="2px" ry="2px" height="20px" width="30px">
     </rect>
    </a>
    <a xlink:href="">
     <rect x="460" y="155" rx="2px" ry="2px" height="20px" width="30px">
     </rect>
    </a>
    <a xlink:href="">
     <rect x="425" y="155" rx="2px" ry="2px" height="20px" width="30px">
     </rect>
    </a>
    <a xlink:href="">
     <rect x="390" y="155" rx="2px" ry="2px" height="20px" width="30px">
     </rect>
    </a>
    <a xlink:href="">
     <rect x="325" y="155" rx="2px" ry="2px" height="20px" width="30px">
     </rect>
    </a>
    <a xlink:href="">
     <rect x="290" y="155" rx="2px" ry="2px" height="20px" width="30px">
     </rect>
    </a>
    <a xlink:href="">
     <rect x="255" y="155" rx="2px" ry="2px" height="20px" width="30px">
     </rect>
    </a>
    <a xlink:href="">
     <rect x="220" y="155" rx="2px" ry="2px" height="20px" width="30px">
     </rect>
    </a>
    <a xlink:href="">
     <rect x="185" y="155" rx="2px" ry="2px" height="20px" width="30px">
     </rect>
    </a>
    <a xlink:href="">
     <rect x="150" y="155" rx="2px" ry="2px" height="20px" width="30px">
     </rect>
    </a>
    <a xlink:href="">
     <rect x="115" y="155" rx="2px" ry="2px" height="20px" width="30px">
     </rect>
    </a>
    <a xlink:href="">
     <rect x="80" y="155" rx="2px" ry="2px" height="20px" width="30px">
     </rect>
    </a>
    <a xlink:href="">
     <rect x="45" y="155" rx="2px" ry="2px" height="20px" width="30px">
     </rect>
    </a>
    <a xlink:href="">
     <rect x="10" y="155" rx="2px" ry="2px" height="20px" width="30px">
     </rect>
    </a>
    <a xlink:href="">
     <rect x="705" y="130" rx="2px" ry="2px" height="20px" width="30px">
     </rect>
    </a>
    <a xlink:href="">
     <rect x="670" y="130" rx="2px" ry="2px" height="20px" width="30px">
     </rect>
    </a>
    <a xlink:href="">
     <rect x="635" y="130" rx="2px" ry="2px" height="20px" width="30px">
     </rect>
    </a>
    <a xlink:href="">
     <rect x="600" y="130" rx="2px" ry="2px" height="20px" width="30px">
     </rect>
    </a>
    <a xlink:href="">
     <rect x="565" y="130" rx="2px" ry="2px" height="20px" width="30px">
     </rect>
    </a>
    <a xlink:href="">
     <rect x="530" y="130" rx="2px" ry="2px" height="20px" width="30px">
     </rect>
    </a>
    <a xlink:href="">
     <rect x="495" y="130" rx="2px" ry="2px" height="20px" width="30px">
     </rect>
    </a>
    <a xlink:href="">
     <rect x="460" y="130" rx="2px" ry="2px" height="20px" width="30px">
     </rect>
    </a>
    <a xlink:href="">
     <rect x="425" y="130" rx="2px" ry="2px" height="20px" width="30px">
     </rect>
    </a>
    <a xlink:href="">
     <rect x="390" y="130" rx="2px" ry="2px" height="20px" width="30px">
     </rect>
    </a>
    <a xlink:href="">
     <rect x="325" y="130" rx="2px" ry="2px" height="20px" width="30px">
     </rect>
    </a>
    <a xlink:href="">
     <rect x="290" y="130" rx="2px" ry="2px" height="20px" width="30px">
     </rect>
    </a>
    <a xlink:href="">
     <rect x="255" y="130" rx="2px" ry="2px" height="20px" width="30px">
     </rect>
    </a>
    <a xlink:href="">
     <rect x="220" y="130" rx="2px" ry="2px" height="20px" width="30px">
     </rect>
    </a>
    <a xlink:href="">
     <rect x="185" y="130" rx="2px" ry="2px" height="20px" width="30px">
     </rect>
    </a>
    <a xlink:href="">
     <rect x="150" y="130" rx="2px" ry="2px" height="20px" width="30px">
     </rect>
    </a>
    <a xlink:href="">
     <rect x="115" y="130" rx="2px" ry="2px" height="20px" width="30px">
     </rect>
    </a>
    <a xlink:href="">
     <rect x="80" y="130" rx="2px" ry="2px" height="20px" width="30px">
     </rect>
    </a>
    <a xlink:href="">
     <rect x="45" y="130" rx="2px" ry="2px" height="20px" width="30px">
     </rect>
    </a>
    <a xlink:href="">
     <rect x="10" y="130" rx="2px" ry="2px" height="20px" width="30px">
     </rect>
    </a>
    <a xlink:href="">
     <rect x="705" y="95" rx="2px" ry="2px" height="20px" width="30px">
     </rect>
    </a>
    <a xlink:href="">
     <rect x="670" y="95" rx="2px" ry="2px" height="20px" width="30px">
     </rect>
    </a>
    <a xlink:href="">
     <rect x="635" y="95" rx="2px" ry="2px" height="20px" width="30px">
     </rect>
    </a>
    <a xlink:href="">
     <rect x="600" y="95" rx="2px" ry="2px" height="20px" width="30px">
     </rect>
    </a>
    <a xlink:href="">
     <rect x="565" y="95" rx="2px" ry="2px" height="20px" width="30px">
     </rect>
    </a>
    <a xlink:href="">
     <rect x="530" y="95" rx="2px" ry="2px" height="20px" width="30px">
     </rect>
    </a>
    <a xlink:href="">
     <rect x="495" y="95" rx="2px" ry="2px" height="20px" width="30px">
     </rect>
    </a>
    <a xlink:href="">
     <rect x="460" y="95" rx="2px" ry="2px" height="20px" width="30px">
     </rect>
    </a>
    <a xlink:href="">
     <rect x="425" y="95" rx="2px" ry="2px" height="20px" width="30px">
     </rect>
    </a>
    <a xlink:href="">
     <rect x="390" y="95" rx="2px" ry="2px" height="20px" width="30px">
     </rect>
    </a>
    <a xlink:href="">
     <rect x="325" y="95" rx="2px" ry="2px" height="20px" width="30px">
     </rect>
    </a>
    <a xlink:href="">
     <rect x="290" y="95" rx="2px" ry="2px" height="20px" width="30px">
     </rect>
    </a>
    <a xlink:href="">
     <rect x="255" y="95" rx="2px" ry="2px" height="20px" width="30px">
     </rect>
    </a>
    <a xlink:href="">
     <rect x="220" y="95" rx="2px" ry="2px" height="20px" width="30px">
     </rect>
    </a>
    <a xlink:href="">
     <rect x="185" y="95" rx="2px" ry="2px" height="20px" width="30px">
     </rect>
    </a>
    <a xlink:href="">
     <rect x="150" y="95" rx="2px" ry="2px" height="20px" width="30px">
     </rect>
    </a>
    <a xlink:href="">
     <rect x="115" y="95" rx="2px" ry="2px" height="20px" width="30px">
     </rect>
    </a>
    <a xlink:href="">
     <rect x="80" y="95" rx="2px" ry="2px" height="20px" width="30px">
     </rect>
    </a>
    <a xlink:href="">
     <rect x="45" y="95" rx="2px" ry="2px" height="20px" width="30px">
     </rect>
    </a>
    <a xlink:href="">
     <rect x="10" y="95" rx="2px" ry="2px" height="20px" width="30px">
     </rect>
    </a>
    <a xlink:href="">
     <rect x="705" y="70" rx="2px" ry="2px" height="20px" width="30px">
     </rect>
    </a>
    <a xlink:href="">
     <rect x="670" y="70" rx="2px" ry="2px" height="20px" width="30px">
     </rect>
    </a>
    <a xlink:href="">
     <rect x="635" y="70" rx="2px" ry="2px" height="20px" width="30px">
     </rect>
    </a>
    <a xlink:href="">
     <rect x="600" y="70" rx="2px" ry="2px" height="20px" width="30px">
     </rect>
    </a>
    <a xlink:href="">
     <rect x="565" y="70" rx="2px" ry="2px" height="20px" width="30px">
     </rect>
    </a>
    <a xlink:href="">
     <rect x="530" y="70" rx="2px" ry="2px" height="20px" width="30px">
     </rect>
    </a>
    <a xlink:href="">
     <rect x="495" y="70" rx="2px" ry="2px" height="20px" width="30px">
     </rect>
    </a>
    <a xlink:href="">
     <rect x="460" y="70" rx="2px" ry="2px" height="20px" width="30px">
     </rect>
    </a>
    <a xlink:href="">
     <rect x="425" y="70" rx="2px" ry="2px" height="20px" width="30px">
     </rect>
    </a>
    <a xlink:href="">
     <rect x="390" y="70" rx="2px" ry="2px" height="20px" width="30px">
     </rect>
    </a>
    <a xlink:href="">
     <rect x="325" y="70" rx="2px" ry="2px" height="20px" width="30px">
     </rect>
    </a>
    <a xlink:href="">
     <rect x="290" y="70" rx="2px" ry="2px" height="20px" width="30px">
     </rect>
    </a>
    <a xlink:href="">
     <rect x="255" y="70" rx="2px" ry="2px" height="20px" width="30px">
     </rect>
    </a>
    <a xlink:href="">
     <rect x="220" y="70" rx="2px" ry="2px" height="20px" width="30px">
     </rect>
    </a>
    <a xlink:href="">
     <rect x="185" y="70" rx="2px" ry="2px" height="20px" width="30px">
     </rect>
    </a>
    <a xlink:href="">
     <rect x="150" y="70" rx="2px" ry="2px" height="20px" width="30px">
     </rect>
    </a>
    <a xlink:href="">
     <rect x="115" y="70" rx="2px" ry="2px" height="20px" width="30px">
     </rect>
    </a>
    <a xlink:href="">
     <rect x="80" y="70" rx="2px" ry="2px" height="20px" width="30px">
     </rect>
    </a>
    <a xlink:href="">
     <rect x="45" y="70" rx="2px" ry="2px" height="20px" width="30px">
     </rect>
    </a>
    <a xlink:href="">
     <rect x="10" y="70" rx="2px" ry="2px" height="20px" width="30px">
     </rect>
    </a>
    <a xlink:href="">
     <rect x="705" y="35" rx="2px" ry="2px" height="20px" width="30px">
     </rect>
    </a>
    <a xlink:href="">
     <rect x="670" y="35" rx="2px" ry="2px" height="20px" width="30px">
     </rect>
    </a>
    <a xlink:href="">
     <rect x="635" y="35" rx="2px" ry="2px" height="20px" width="30px">
     </rect>
    </a>
    <a xlink:href="">
     <rect x="600" y="35" rx="2px" ry="2px" height="20px" width="30px">
     </rect>
    </a>
    <a xlink:href="">
     <rect x="565" y="35" rx="2px" ry="2px" height="20px" width="30px">
     </rect>
    </a>
    <a xlink:href="">
     <rect x="530" y="35" rx="2px" ry="2px" height="20px" width="30px">
     </rect>
    </a>
    <a xlink:href="">
     <rect x="495" y="35" rx="2px" ry="2px" height="20px" width="30px">
     </rect>
    </a>
    <a xlink:href="">
     <rect x="460" y="35" rx="2px" ry="2px" height="20px" width="30px">
     </rect>
    </a>
    <a xlink:href="">
     <rect x="425" y="35" rx="2px" ry="2px" height="20px" width="30px">
     </rect>
    </a>
    <a xlink:href="">
     <rect x="390" y="35" rx="2px" ry="2px" height="20px" width="30px">
     </rect>
    </a>
    <a xlink:href="">
     <rect x="325" y="35" rx="2px" ry="2px" height="20px" width="30px">
     </rect>
    </a>
    <a xlink:href="">
     <rect x="290" y="35" rx="2px" ry="2px" height="20px" width="30px">
     </rect>
    </a>
    <a xlink:href="">
     <rect x="255" y="35" rx="2px" ry="2px" height="20px" width="30px">
     </rect>
    </a>
    <a xlink:href="">
     <rect x="220" y="35" rx="2px" ry="2px" height="20px" width="30px">
     </rect>
    </a>
    <a xlink:href="">
     <rect x="185" y="35" rx="2px" ry="2px" height="20px" width="30px">
     </rect>
    </a>
    <a xlink:href="">
     <rect x="150" y="35" rx="2px" ry="2px" height="20px" width="30px">
     </rect>
    </a>
    <a xlink:href="">
     <rect x="115" y="35" rx="2px" ry="2px" height="20px" width="30px">
     </rect>
    </a>
    <a xlink:href="">
     <rect x="80" y="35" rx="2px" ry="2px" height="20px" width="30px">
     </rect>
    </a>
    <a xlink:href="">
     <rect x="45" y="35" rx="2px" ry="2px" height="20px" width="30px">
     </rect>
    </a>
    <a xlink:href="">
     <rect x="10" y="35" rx="2px" ry="2px" height="20px" width="30px">
     </rect>
    </a>
    <a xlink:href="">
     <rect x="705" y="10" rx="2px" ry="2px" height="20px" width="30px">
     </rect>
    </a>
    <a xlink:href="">
     <rect x="670" y="10" rx="2px" ry="2px" height="20px" width="30px">
     </rect>
    </a>
    <a xlink:href="">
     <rect x="635" y="10" rx="2px" ry="2px" height="20px" width="30px">
     </rect>
    </a>
    <a xlink:href="">
     <rect x="600" y="10" rx="2px" ry="2px" height="20px" width="30px">
     </rect>
    </a>
    <a xlink:href="">
     <rect x="565" y="10" rx="2px" ry="2px" height="20px" width="30px">
     </rect>
    </a>
    <a xlink:href="">
     <rect x="530" y="10" rx="2px" ry="2px" height="20px" width="30px">
     </rect>
    </a>
    <a xlink:href="">
     <rect x="495" y="10" rx="2px" ry="2px" height="20px" width="30px">
     </rect>
    </a>
    <a xlink:href="">
     <rect x="460" y="10" rx="2px" ry="2px" height="20px" width="30px">
     </rect>
    </a>
    <a xlink:href="">
     <rect x="425" y="10" rx="2px" ry="2px" height="20px" width="30px">
     </rect>
    </a>
    <a xlink:href="">
     <rect x="390" y="10" rx="2px" ry="2px" height="20px" width="30px">
     </rect>
    </a>
    <a xlink:href="">
     <rect x="325" y="10" rx="2px" ry="2px" height="20px" width="30px">
     </rect>
    </a>
    <a xlink:href="">
     <rect x="290" y="10" rx="2px" ry="2px" height="20px" width="30px">
     </rect>
    </a>
    <a xlink:href="">
     <rect x="255" y="10" rx="2px" ry="2px" height="20px" width="30px">
     </rect>
    </a>
    <a xlink:href="">
     <rect x="220" y="10" rx="2px" ry="2px" height="20px" width="30px">
     </rect>
    </a>
    <a xlink:href="">
     <rect x="185" y="10" rx="2px" ry="2px" height="20px" width="30px">
     </rect>
    </a>
    <a xlink:href="">
     <rect x="150" y="10" rx="2px" ry="2px" height="20px" width="30px">
     </rect>
    </a>
    <a xlink:href="">
     <rect x="115" y="10" rx="2px" ry="2px" height="20px" width="30px">
     </rect>
    </a>
    <a xlink:href="">
     <rect x="80" y="10" rx="2px" ry="2px" height="20px" width="30px">
     </rect>
    </a>
    <a xlink:href="">
     <rect x="45" y="10" rx="2px" ry="2px" height="20px" width="30px">
     </rect>
    </a>
    <a xlink:href="">
     <rect x="10" y="10" rx="2px" ry="2px" height="20px" width="30px">
     </rect>
    </a>
   </svg>
