<svg xmlns="http://www.w3.org/2000/svg" viewBox="0 0 50 50">

    <!-- Measurements are in meters. -->
    <!-- The arena is 48x44 kvm. -->
    <!-- 1m/1px of padding is added to each side. -->

    <style type="text/css">

        text {
            font-family: Arial;
        }

        rect.outline {
            fill: none;
            stroke: #444;
            stroke-width: 0.1px;
        }

        .grid {
            /* DEBUG */
            display: none;
        }

        .grid line {
            stroke: #ccc;
            stroke-width: 0.025px;
        }

        .walls line {
            stroke: #444;
            stroke-width: 0.2px;
        }

        .walls line.zone-wall {
            stroke: #444;
            stroke-width: 0.1px;
            stroke-dasharray: 0.1;
        }

        .seat-row rect {
            stroke: #222;
            stroke-width: 0.08px;
            fill: #ddd;
        }

        .seat-row rect.spacer {
            /* DEBUG */
            display: none;
        }

        .seat-row rect.seat-row-outline {
            stroke: #888;
            stroke-width: 0.075px;
            fill: none;
        }

        .seat-row rect.seating-node-free {
            fill: #5CB85C;
        }

        .seat-row rect.seating-node-occupied {
            fill: #C9302C;
        }

        .seat-row rect.seating-node-self {
            fill: #EC971F;
        }

        .seat-row rect.seating-node-info {
            fill: #5BC0DE;
        }

        .seat-row rect.seating-node-search {
            fill: pink;
        }
    </style>

    <!-- DEBUG: Image frame -->
    <!-- <rect width="50" height="50" style="fill: none; stroke: #00f; stroke-width: 0.1px;"/> -->

    <!-- Hall -->
    <g class="hall" transform="translate(1, 1)">

        <!-- Grid lines (optional) -->
        <g class="grid">
            <!-- Vertical lines -->
            <line x1="0" x2="0" y1="0" y2="44"/>
            <line x1="1" x2="1" y1="0" y2="44"/>
            <line x1="2" x2="2" y1="0" y2="44"/>
            <line x1="3" x2="3" y1="0" y2="44"/>
            <line x1="4" x2="4" y1="0" y2="44"/>
            <line x1="5" x2="5" y1="0" y2="44"/>
            <line x1="6" x2="6" y1="0" y2="44"/>
            <line x1="7" x2="7" y1="0" y2="44"/>
            <line x1="8" x2="8" y1="0" y2="44"/>
            <line x1="9" x2="9" y1="0" y2="44"/>
            <line x1="10" x2="10" y1="0" y2="44"/>
            <line x1="11" x2="11" y1="0" y2="44"/>
            <line x1="12" x2="12" y1="0" y2="44"/>
            <line x1="13" x2="13" y1="0" y2="44"/>
            <line x1="14" x2="14" y1="0" y2="44"/>
            <line x1="15" x2="15" y1="0" y2="44"/>
            <line x1="16" x2="16" y1="0" y2="44"/>
            <line x1="17" x2="17" y1="0" y2="44"/>
            <line x1="18" x2="18" y1="0" y2="44"/>
            <line x1="19" x2="19" y1="0" y2="44"/>
            <line x1="20" x2="20" y1="0" y2="44"/>
            <line x1="21" x2="21" y1="0" y2="44"/>
            <line x1="22" x2="22" y1="0" y2="44"/>
            <line x1="23" x2="23" y1="0" y2="44"/>
            <line x1="24" x2="24" y1="0" y2="44"/>
            <line x1="25" x2="25" y1="0" y2="44"/>
            <line x1="26" x2="26" y1="0" y2="44"/>
            <line x1="27" x2="27" y1="0" y2="44"/>
            <line x1="28" x2="28" y1="0" y2="44"/>
            <line x1="29" x2="29" y1="0" y2="44"/>
            <line x1="30" x2="30" y1="0" y2="44"/>
            <line x1="31" x2="31" y1="0" y2="44"/>
            <line x1="32" x2="32" y1="0" y2="44"/>
            <line x1="33" x2="33" y1="0" y2="44"/>
            <line x1="34" x2="34" y1="0" y2="44"/>
            <line x1="35" x2="35" y1="0" y2="44"/>
            <line x1="36" x2="36" y1="0" y2="44"/>
            <line x1="37" x2="37" y1="0" y2="44"/>
            <line x1="38" x2="38" y1="0" y2="44"/>
            <line x1="39" x2="39" y1="0" y2="44"/>
            <line x1="40" x2="40" y1="0" y2="44"/>
            <line x1="41" x2="41" y1="0" y2="44"/>
            <line x1="42" x2="42" y1="0" y2="44"/>
            <line x1="43" x2="43" y1="0" y2="44"/>
            <line x1="44" x2="44" y1="0" y2="44"/>
            <line x1="45" x2="45" y1="0" y2="44"/>
            <line x1="46" x2="46" y1="0" y2="44"/>
            <line x1="47" x2="47" y1="0" y2="44"/>
            <line x1="48" x2="48" y1="0" y2="44"/>

            <!-- Horizontal lines -->
            <line x1="0" x2="48" y1="0" y2="0"/>
            <line x1="0" x2="48" y1="1" y2="1"/>
            <line x1="0" x2="48" y1="2" y2="2"/>
            <line x1="0" x2="48" y1="3" y2="3"/>
            <line x1="0" x2="48" y1="4" y2="4"/>
            <line x1="0" x2="48" y1="5" y2="5"/>
            <line x1="0" x2="48" y1="6" y2="6"/>
            <line x1="0" x2="48" y1="7" y2="7"/>
            <line x1="0" x2="48" y1="8" y2="8"/>
            <line x1="0" x2="48" y1="9" y2="9"/>
            <line x1="0" x2="48" y1="10" y2="10"/>
            <line x1="0" x2="48" y1="11" y2="11"/>
            <line x1="0" x2="48" y1="12" y2="12"/>
            <line x1="0" x2="48" y1="13" y2="13"/>
            <line x1="0" x2="48" y1="14" y2="14"/>
            <line x1="0" x2="48" y1="15" y2="15"/>
            <line x1="0" x2="48" y1="16" y2="16"/>
            <line x1="0" x2="48" y1="17" y2="17"/>
            <line x1="0" x2="48" y1="18" y2="18"/>
            <line x1="0" x2="48" y1="19" y2="19"/>
            <line x1="0" x2="48" y1="20" y2="20"/>
            <line x1="0" x2="48" y1="21" y2="21"/>
            <line x1="0" x2="48" y1="22" y2="22"/>
            <line x1="0" x2="48" y1="23" y2="23"/>
            <line x1="0" x2="48" y1="24" y2="24"/>
            <line x1="0" x2="48" y1="25" y2="25"/>
            <line x1="0" x2="48" y1="26" y2="26"/>
            <line x1="0" x2="48" y1="27" y2="27"/>
            <line x1="0" x2="48" y1="28" y2="28"/>
            <line x1="0" x2="48" y1="29" y2="29"/>
            <line x1="0" x2="48" y1="30" y2="30"/>
            <line x1="0" x2="48" y1="31" y2="31"/>
            <line x1="0" x2="48" y1="32" y2="32"/>
            <line x1="0" x2="48" y1="33" y2="33"/>
            <line x1="0" x2="48" y1="34" y2="34"/>
            <line x1="0" x2="48" y1="35" y2="35"/>
            <line x1="0" x2="48" y1="36" y2="36"/>
            <line x1="0" x2="48" y1="37" y2="37"/>
            <line x1="0" x2="48" y1="38" y2="38"/>
            <line x1="0" x2="48" y1="39" y2="39"/>
            <line x1="0" x2="48" y1="40" y2="40"/>
            <line x1="0" x2="48" y1="41" y2="41"/>
            <line x1="0" x2="48" y1="42" y2="42"/>
            <line x1="0" x2="48" y1="43" y2="43"/>
            <line x1="0" x2="48" y1="44" y2="44"/>
        </g>

        <!-- Info -->
        <g class="walls">
            <text x="21.75" y="23.2" font-size="0.8">Utleirahallen</text>
            <text x="22.5" y="24.2" font-size="0.7">48×44m²</text>
        </g>

        <!-- Walls -->
        <g class="walls">
            <!-- Top wall -->
            <line x1="0" x2="48" y1="0" y2="0"/>
            <line x1="3" x2="45" y1="2" y2="2" class="zone-wall"/>
            <!-- <g transform="translate(21, 1.5)"><text font-size="1">Rømningsvei</text></g> -->
            <!-- Partition walls -->
            <line x1="3" x2="45" y1="15.5" y2="15.5" class="partition-wall"/>
            <!-- Left wall -->
            <line x1="0" x2="0" y1="0" y2="4"/>
            <g transform="translate(1.5, 7.5) rotate(270)"><text font-size="1">Nødutgang</text></g>
            <line x1="0" x2="0" y1="6" y2="41"/>
            <g transform="translate(1.5, 44) rotate(270)"><text font-size="1">Nødutgang</text></g>
            <line x1="0" x2="0" y1="43" y2="48"/>
            <line x1="3" x2="3" y1="2" y2="42" class="zone-wall"/>
            <g transform="translate(2, 26.5) rotate(270)"><text font-size="1">Rømningsvei</text></g>
            <!-- Right wall -->
            <line x1="48" x2="48" y1="0" y2="4"/>
            <g transform="translate(46.5, 3.5) rotate(90)"><text font-size="1">Nødutgang</text></g>
            <line x1="48" x2="48" y1="7" y2="41"/>
            <g transform="translate(46.5, 39.5) rotate(90)"><text font-size="1">Nødutgang</text></g>
            <line x1="48" x2="48" y1="43" y2="48"/>
            <line x1="45" x2="45" y1="2" y2="42" class="zone-wall"/>
            <g transform="translate(46, 20.5) rotate(90)"><text font-size="1">Rømningsvei</text></g>
            <!-- Bottom walls -->
            <line x1="0" x2="3" y1="48" y2="48"/>
            <line x1="3" x2="3" y1="44" y2="48"/>
            <line x1="3" x2="21" y1="44" y2="44"/>
            <line x1="21" x2="21" y1="44" y2="48"/>
            <g transform="translate(22.5, 48) rotate(270)"><text font-size="1">Inngang</text></g>
            <line x1="24" x2="24" y1="45" y2="48"/>
            <line x1="24" x2="27" y1="45" y2="45"/>
            <line x1="24" x2="27" y1="48" y2="48"/>
            <line x1="27" x2="27" y1="48" y2="44"/>
            <line x1="27" x2="45" y1="44" y2="44"/>
            <line x1="45" x2="45" y1="44" y2="48"/>
            <line x1="45" x2="48" y1="48" y2="48"/>
            <line x1="3" x2="21" y1="42" y2="42" class="zone-wall"/>
            <line x1="21" x2="21" y1="42" y2="44" class="zone-wall"/>
            <line x1="27" x2="45" y1="42" y2="42" class="zone-wall"/>
            <line x1="27" x2="27" y1="42" y2="44" class="zone-wall"/>
            <!-- Tribuner -->
            <text x="10" y="46" font-size="1">Tribune</text>
            <line x1="3" x2="21" y1="48" y2="48" class="zone-wall"/>
            <text x="33" y="46" font-size="1">Tribune</text>
            <line x1="27" x2="45" y1="48" y2="48" class="zone-wall"/>
        </g>

        <!-- Sleeping area -->
        <g>
            <rect x="3" y="2" width="42" height="2.5" class="outline"/>
            <text x="20.5" y="3.75" font-size="1.5">Soverekke</text>
            <rect x="3" y="7.25" width="42" height="2.5" class="outline"/>
            <text x="20.5" y="9" font-size="1.5">Soverekke</text>
            <rect x="3" y="12.5" width="42" height="2.5" class="outline"/>
            <text x="20.5" y="14.25" font-size="1.5">Soverekke</text>
        </g>

        <!-- Stage -->
        <g class="stage" transform="translate(16.1, 16)">
            <rect width="15.8" height="6.1" class="outline"/>

            <text x="5.8" y="4.5" font-size="1.5">Scene</text>

            <!-- Left team (6.4+1 wide) -->
            <g class="seat-row" transform="translate(0.5, 2.0)">
                <rect x="0.0" y="0.0" width="0.8" height="0.6"/>
                <rect x="1.4" y="0.0" width="0.8" height="0.6"/>
                <rect x="2.8" y="0.0" width="0.8" height="0.6"/>
                <rect x="4.2" y="0.0" width="0.8" height="0.6"/>
                <rect x="5.6" y="0.0" width="0.8" height="0.6"/>
            </g>

            <!-- Right team (6.4+1 wide) -->
            <g class="seat-row" transform="translate(8.9, 2.0)">
                <rect x="0.0" y="0.0" width="0.8" height="0.6"/>
                <rect x="1.4" y="0.0" width="0.8" height="0.6"/>
                <rect x="2.8" y="0.0" width="0.8" height="0.6"/>
                <rect x="4.2" y="0.0" width="0.8" height="0.6"/>
                <rect x="5.6" y="0.0" width="0.8" height="0.6"/>
            </g>
        </g>

        <!-- Western crew area -->
        <g class="crew-area" transform="translate(3, 16)">
            <!-- <rect x="0" y="0" width="12" height="5" class="outline"/> -->
            <!-- <text x="4.5" y="3" font-size="1.5">Crew</text> -->
            <g class="seat-row" transform="translate(0.0, 2.25)">
                <rect x="0" y="-2.25" width="11.80" height="6.1" class="seat-row-outline"/>
                <text x="5" y="-0.5" font-size="1">Crew</text>
                <rect x="0" y="0.5" width="0.6" height="0.8" class="spacer"/>
                <a class="seat" href="#"><rect x="0.6" y="0.0" width="0.8" height="0.6"/></a>
                <a class="seat" href="#"><rect x="0.6" y="1.2" width="0.8" height="0.6"/></a>
                <rect x="1.4" y="0.5" width="0.6" height="0.8" class="spacer"/>
                <a class="seat" href="#"><rect x="2.0" y="0.0" width="0.8" height="0.6"/></a>
                <a class="seat" href="#"><rect x="2.0" y="1.2" width="0.8" height="0.6"/></a>
                <rect x="2.8" y="0.5" width="0.6" height="0.8" class="spacer"/>
                <a class="seat" href="#"><rect x="3.4" y="0.0" width="0.8" height="0.6"/></a>
                <a class="seat" href="#"><rect x="3.4" y="1.2" width="0.8" height="0.6"/></a>
                <rect x="4.2" y="0.5" width="0.6" height="0.8" class="spacer"/>
                <a class="seat" href="#"><rect x="4.8" y="0.0" width="0.8" height="0.6"/></a>
                <a class="seat" href="#"><rect x="4.8" y="1.2" width="0.8" height="0.6"/></a>
                <rect x="5.6" y="0.5" width="0.6" height="0.8" class="spacer"/>
                <a class="seat" href="#"><rect x="6.2" y="0.0" width="0.8" height="0.6"/></a>
                <a class="seat" href="#"><rect x="6.2" y="1.2" width="0.8" height="0.6"/></a>
                <rect x="7.0" y="0.5" width="0.6" height="0.8" class="spacer"/>
                <a class="seat" href="#"><rect x="7.6" y="0.0" width="0.8" height="0.6"/></a>
                <a class="seat" href="#"><rect x="7.6" y="1.2" width="0.8" height="0.6"/></a>
                <rect x="8.4" y="0.5" width="0.6" height="0.8" class="spacer"/>
                <a class="seat" href="#"><rect x="9.0" y="0.0" width="0.8" height="0.6"/></a>
                <a class="seat" href="#"><rect x="9.0" y="1.2" width="0.8" height="0.6"/></a>
                <rect x="9.8" y="0.5" width="0.6" height="0.8" class="spacer"/>
                <a class="seat" href="#"><rect x="10.4" y="0.0" width="0.8" height="0.6"/></a>
                <a class="seat" href="#"><rect x="10.4" y="1.2" width="0.8" height="0.6"/></a>
                <rect x="11.2" y="0.5" width="0.6" height="0.8" class="spacer"/>
            </g>
        </g>

        <!-- Eastern crew area -->
        <g class="crew-area" transform="translate(33.2, 16)">
            <!-- <rect x="0" y="0" width="12" height="5" class="outline"/> -->
            <!-- <text x="4" y="3" font-size="1.5">Crew</text> -->
            <g class="seat-row" transform="translate(0.0, 2.25)">
                <rect x="0" y="-2.25" width="11.80" height="6.1" class="seat-row-outline"/>
                <text x="5" y="-0.5" font-size="1">Crew</text>
                <rect x="0" y="0.5" width="0.6" height="0.8" class="spacer"/>
                <a class="seat" href="#"><rect x="0.6" y="0.0" width="0.8" height="0.6"/></a>
                <a class="seat" href="#"><rect x="0.6" y="1.2" width="0.8" height="0.6"/></a>
                <rect x="1.4" y="0.5" width="0.6" height="0.8" class="spacer"/>
                <a class="seat" href="#"><rect x="2.0" y="0.0" width="0.8" height="0.6"/></a>
                <a class="seat" href="#"><rect x="2.0" y="1.2" width="0.8" height="0.6"/></a>
                <rect x="2.8" y="0.5" width="0.6" height="0.8" class="spacer"/>
                <a class="seat" href="#"><rect x="3.4" y="0.0" width="0.8" height="0.6"/></a>
                <a class="seat" href="#"><rect x="3.4" y="1.2" width="0.8" height="0.6"/></a>
                <rect x="4.2" y="0.5" width="0.6" height="0.8" class="spacer"/>
                <a class="seat" href="#"><rect x="4.8" y="0.0" width="0.8" height="0.6"/></a>
                <a class="seat" href="#"><rect x="4.8" y="1.2" width="0.8" height="0.6"/></a>
                <rect x="5.6" y="0.5" width="0.6" height="0.8" class="spacer"/>
                <a class="seat" href="#"><rect x="6.2" y="0.0" width="0.8" height="0.6"/></a>
                <a class="seat" href="#"><rect x="6.2" y="1.2" width="0.8" height="0.6"/></a>
                <rect x="7.0" y="0.5" width="0.6" height="0.8" class="spacer"/>
                <a class="seat" href="#"><rect x="7.6" y="0.0" width="0.8" height="0.6"/></a>
                <a class="seat" href="#"><rect x="7.6" y="1.2" width="0.8" height="0.6"/></a>
                <rect x="8.4" y="0.5" width="0.6" height="0.8" class="spacer"/>
                <a class="seat" href="#"><rect x="9.0" y="0.0" width="0.8" height="0.6"/></a>
                <a class="seat" href="#"><rect x="9.0" y="1.2" width="0.8" height="0.6"/></a>
                <rect x="9.8" y="0.5" width="0.6" height="0.8" class="spacer"/>
                <a class="seat" href="#"><rect x="10.4" y="0.0" width="0.8" height="0.6"/></a>
                <a class="seat" href="#"><rect x="10.4" y="1.2" width="0.8" height="0.6"/></a>
                <rect x="11.2" y="0.5" width="0.6" height="0.8" class="spacer"/>
            </g>
        </g>

        <!-- Left participant seats -->
        <g class="participant-seats" transform="translate(3, 23.7)">
            <g class="seat-row" transform="translate(0.0, 2.25)">
                <rect x="0" y="-2.25" width="18.8" height="6.1" class="seat-row-outline"/>
                <text x="8" y="-0.5" font-size="1">Rad W1</text>
                <rect x="0" y="0.5" width="0.6" height="0.8" class="spacer"/>
                <a class="seat" href="#"><rect x="0.6" y="0.0" width="0.8" height="0.6"/></a>
                <a class="seat" href="#"><rect x="0.6" y="1.2" width="0.8" height="0.6"/></a>
                <rect x="1.4" y="0.5" width="0.6" height="0.8" class="spacer"/>
                <a class="seat" href="#"><rect x="2.0" y="0.0" width="0.8" height="0.6"/></a>
                <a class="seat" href="#"><rect x="2.0" y="1.2" width="0.8" height="0.6"/></a>
                <rect x="2.8" y="0.5" width="0.6" height="0.8" class="spacer"/>
                <a class="seat" href="#"><rect x="3.4" y="0.0" width="0.8" height="0.6"/></a>
                <a class="seat" href="#"><rect x="3.4" y="1.2" width="0.8" height="0.6"/></a>
                <rect x="4.2" y="0.5" width="0.6" height="0.8" class="spacer"/>
                <a class="seat" href="#"><rect x="4.8" y="0.0" width="0.8" height="0.6"/></a>
                <a class="seat" href="#"><rect x="4.8" y="1.2" width="0.8" height="0.6"/></a>
                <rect x="5.6" y="0.5" width="0.6" height="0.8" class="spacer"/>
                <a class="seat" href="#"><rect x="6.2" y="0.0" width="0.8" height="0.6"/></a>
                <a class="seat" href="#"><rect x="6.2" y="1.2" width="0.8" height="0.6"/></a>
                <rect x="7.0" y="0.5" width="0.6" height="0.8" class="spacer"/>
                <a class="seat" href="#"><rect x="7.6" y="0.0" width="0.8" height="0.6"/></a>
                <a class="seat" href="#"><rect x="7.6" y="1.2" width="0.8" height="0.6"/></a>
                <rect x="8.4" y="0.5" width="0.6" height="0.8" class="spacer"/>
                <a class="seat" href="#"><rect x="9.0" y="0.0" width="0.8" height="0.6"/></a>
                <a class="seat" href="#"><rect x="9.0" y="1.2" width="0.8" height="0.6"/></a>
                <rect x="9.8" y="0.5" width="0.6" height="0.8" class="spacer"/>
                <a class="seat" href="#"><rect x="10.4" y="0.0" width="0.8" height="0.6"/></a>
                <a class="seat" href="#"><rect x="10.4" y="1.2" width="0.8" height="0.6"/></a>
                <rect x="11.2" y="0.5" width="0.6" height="0.8" class="spacer"/>
                <a class="seat" href="#"><rect x="11.8" y="0.0" width="0.8" height="0.6"/></a>
                <a class="seat" href="#"><rect x="11.8" y="1.2" width="0.8" height="0.6"/></a>
                <rect x="12.6" y="0.5" width="0.6" height="0.8" class="spacer"/>
                <a class="seat" href="#"><rect x="13.2" y="0.0" width="0.8" height="0.6"/></a>
                <a class="seat" href="#"><rect x="13.2" y="1.2" width="0.8" height="0.6"/></a>
                <rect x="14.0" y="0.5" width="0.6" height="0.8" class="spacer"/>
                <a class="seat" href="#"><rect x="14.6" y="0.0" width="0.8" height="0.6"/></a>
                <a class="seat" href="#"><rect x="14.6" y="1.2" width="0.8" height="0.6"/></a>
                <rect x="15.4" y="0.5" width="0.6" height="0.8" class="spacer"/>
                <a class="seat" href="#"><rect x="16.0" y="0.0" width="0.8" height="0.6"/></a>
                <a class="seat" href="#"><rect x="16.0" y="1.2" width="0.8" height="0.6"/></a>
                <rect x="16.8" y="0.5" width="0.6" height="0.8" class="spacer"/>
                <a class="seat" href="#"><rect x="17.4" y="0.0" width="0.8" height="0.6"/></a>
                <a class="seat" href="#"><rect x="17.4" y="1.2" width="0.8" height="0.6"/></a>
                <rect x="18.2" y="0.5" width="0.6" height="0.8" class="spacer"/>
            </g>
            <g class="seat-row" transform="translate(0.0, 8.35)">
                <rect x="0" y="-2.25" width="18.8" height="6.1" class="seat-row-outline"/>
                <text x="8" y="-0.5" font-size="1">Rad W2</text>
                <rect x="0" y="0.5" width="0.6" height="0.8" class="spacer"/>
                <a class="seat" href="#"><rect x="0.6" y="0.0" width="0.8" height="0.6"/></a>
                <a class="seat" href="#"><rect x="0.6" y="1.2" width="0.8" height="0.6"/></a>
                <rect x="1.4" y="0.5" width="0.6" height="0.8" class="spacer"/>
                <a class="seat" href="#"><rect x="2.0" y="0.0" width="0.8" height="0.6"/></a>
                <a class="seat" href="#"><rect x="2.0" y="1.2" width="0.8" height="0.6"/></a>
                <rect x="2.8" y="0.5" width="0.6" height="0.8" class="spacer"/>
                <a class="seat" href="#"><rect x="3.4" y="0.0" width="0.8" height="0.6"/></a>
                <a class="seat" href="#"><rect x="3.4" y="1.2" width="0.8" height="0.6"/></a>
                <rect x="4.2" y="0.5" width="0.6" height="0.8" class="spacer"/>
                <a class="seat" href="#"><rect x="4.8" y="0.0" width="0.8" height="0.6"/></a>
                <a class="seat" href="#"><rect x="4.8" y="1.2" width="0.8" height="0.6"/></a>
                <rect x="5.6" y="0.5" width="0.6" height="0.8" class="spacer"/>
                <a class="seat" href="#"><rect x="6.2" y="0.0" width="0.8" height="0.6"/></a>
                <a class="seat" href="#"><rect x="6.2" y="1.2" width="0.8" height="0.6"/></a>
                <rect x="7.0" y="0.5" width="0.6" height="0.8" class="spacer"/>
                <a class="seat" href="#"><rect x="7.6" y="0.0" width="0.8" height="0.6"/></a>
                <a class="seat" href="#"><rect x="7.6" y="1.2" width="0.8" height="0.6"/></a>
                <rect x="8.4" y="0.5" width="0.6" height="0.8" class="spacer"/>
                <a class="seat" href="#"><rect x="9.0" y="0.0" width="0.8" height="0.6"/></a>
                <a class="seat" href="#"><rect x="9.0" y="1.2" width="0.8" height="0.6"/></a>
                <rect x="9.8" y="0.5" width="0.6" height="0.8" class="spacer"/>
                <a class="seat" href="#"><rect x="10.4" y="0.0" width="0.8" height="0.6"/></a>
                <a class="seat" href="#"><rect x="10.4" y="1.2" width="0.8" height="0.6"/></a>
                <rect x="11.2" y="0.5" width="0.6" height="0.8" class="spacer"/>
                <a class="seat" href="#"><rect x="11.8" y="0.0" width="0.8" height="0.6"/></a>
                <a class="seat" href="#"><rect x="11.8" y="1.2" width="0.8" height="0.6"/></a>
                <rect x="12.6" y="0.5" width="0.6" height="0.8" class="spacer"/>
                <a class="seat" href="#"><rect x="13.2" y="0.0" width="0.8" height="0.6"/></a>
                <a class="seat" href="#"><rect x="13.2" y="1.2" width="0.8" height="0.6"/></a>
                <rect x="14.0" y="0.5" width="0.6" height="0.8" class="spacer"/>
                <a class="seat" href="#"><rect x="14.6" y="0.0" width="0.8" height="0.6"/></a>
                <a class="seat" href="#"><rect x="14.6" y="1.2" width="0.8" height="0.6"/></a>
                <rect x="15.4" y="0.5" width="0.6" height="0.8" class="spacer"/>
                <a class="seat" href="#"><rect x="16.0" y="0.0" width="0.8" height="0.6"/></a>
                <a class="seat" href="#"><rect x="16.0" y="1.2" width="0.8" height="0.6"/></a>
                <rect x="16.8" y="0.5" width="0.6" height="0.8" class="spacer"/>
                <a class="seat" href="#"><rect x="17.4" y="0.0" width="0.8" height="0.6"/></a>
                <a class="seat" href="#"><rect x="17.4" y="1.2" width="0.8" height="0.6"/></a>
                <rect x="18.2" y="0.5" width="0.6" height="0.8" class="spacer"/>
            </g>
            <g class="seat-row" transform="translate(0.0, 14.45)">
                <rect x="0" y="-2.25" width="18.8" height="6.1" class="seat-row-outline"/>
                <text x="8" y="-0.5" font-size="1">Rad W3</text>
                <rect x="0" y="0.5" width="0.6" height="0.8" class="spacer"/>
                <a class="seat" href="#"><rect x="0.6" y="0.0" width="0.8" height="0.6"/></a>
                <a class="seat" href="#"><rect x="0.6" y="1.2" width="0.8" height="0.6"/></a>
                <rect x="1.4" y="0.5" width="0.6" height="0.8" class="spacer"/>
                <a class="seat" href="#"><rect x="2.0" y="0.0" width="0.8" height="0.6"/></a>
                <a class="seat" href="#"><rect x="2.0" y="1.2" width="0.8" height="0.6"/></a>
                <rect x="2.8" y="0.5" width="0.6" height="0.8" class="spacer"/>
                <a class="seat" href="#"><rect x="3.4" y="0.0" width="0.8" height="0.6"/></a>
                <a class="seat" href="#"><rect x="3.4" y="1.2" width="0.8" height="0.6"/></a>
                <rect x="4.2" y="0.5" width="0.6" height="0.8" class="spacer"/>
                <a class="seat" href="#"><rect x="4.8" y="0.0" width="0.8" height="0.6"/></a>
                <a class="seat" href="#"><rect x="4.8" y="1.2" width="0.8" height="0.6"/></a>
                <rect x="5.6" y="0.5" width="0.6" height="0.8" class="spacer"/>
                <a class="seat" href="#"><rect x="6.2" y="0.0" width="0.8" height="0.6"/></a>
                <a class="seat" href="#"><rect x="6.2" y="1.2" width="0.8" height="0.6"/></a>
                <rect x="7.0" y="0.5" width="0.6" height="0.8" class="spacer"/>
                <a class="seat" href="#"><rect x="7.6" y="0.0" width="0.8" height="0.6"/></a>
                <a class="seat" href="#"><rect x="7.6" y="1.2" width="0.8" height="0.6"/></a>
                <rect x="8.4" y="0.5" width="0.6" height="0.8" class="spacer"/>
                <a class="seat" href="#"><rect x="9.0" y="0.0" width="0.8" height="0.6"/></a>
                <a class="seat" href="#"><rect x="9.0" y="1.2" width="0.8" height="0.6"/></a>
                <rect x="9.8" y="0.5" width="0.6" height="0.8" class="spacer"/>
                <a class="seat" href="#"><rect x="10.4" y="0.0" width="0.8" height="0.6"/></a>
                <a class="seat" href="#"><rect x="10.4" y="1.2" width="0.8" height="0.6"/></a>
                <rect x="11.2" y="0.5" width="0.6" height="0.8" class="spacer"/>
                <a class="seat" href="#"><rect x="11.8" y="0.0" width="0.8" height="0.6"/></a>
                <a class="seat" href="#"><rect x="11.8" y="1.2" width="0.8" height="0.6"/></a>
                <rect x="12.6" y="0.5" width="0.6" height="0.8" class="spacer"/>
                <a class="seat" href="#"><rect x="13.2" y="0.0" width="0.8" height="0.6"/></a>
                <a class="seat" href="#"><rect x="13.2" y="1.2" width="0.8" height="0.6"/></a>
                <rect x="14.0" y="0.5" width="0.6" height="0.8" class="spacer"/>
                <a class="seat" href="#"><rect x="14.6" y="0.0" width="0.8" height="0.6"/></a>
                <a class="seat" href="#"><rect x="14.6" y="1.2" width="0.8" height="0.6"/></a>
                <rect x="15.4" y="0.5" width="0.6" height="0.8" class="spacer"/>
                <a class="seat" href="#"><rect x="16.0" y="0.0" width="0.8" height="0.6"/></a>
                <a class="seat" href="#"><rect x="16.0" y="1.2" width="0.8" height="0.6"/></a>
                <rect x="16.8" y="0.5" width="0.6" height="0.8" class="spacer"/>
                <a class="seat" href="#"><rect x="17.4" y="0.0" width="0.8" height="0.6"/></a>
                <a class="seat" href="#"><rect x="17.4" y="1.2" width="0.8" height="0.6"/></a>
                <rect x="18.2" y="0.5" width="0.6" height="0.8" class="spacer"/>
            </g>
        </g>

        <!-- Right participant seats -->
        <g class="participant-seats" transform="translate(26.2, 23.7)">
            <g class="seat-row" transform="translate(0.0, 2.25)">
                <rect x="0" y="-2.25" width="18.8" height="6.1" class="seat-row-outline"/>
                <text x="8" y="-0.5" font-size="1">Rad E1</text>
                <rect x="0" y="0.5" width="0.6" height="0.8" class="spacer"/>
                <a class="seat" href="#"><rect x="0.6" y="0.0" width="0.8" height="0.6"/></a>
                <a class="seat" href="#"><rect x="0.6" y="1.2" width="0.8" height="0.6"/></a>
                <rect x="1.4" y="0.5" width="0.6" height="0.8" class="spacer"/>
                <a class="seat" href="#"><rect x="2.0" y="0.0" width="0.8" height="0.6"/></a>
                <a class="seat" href="#"><rect x="2.0" y="1.2" width="0.8" height="0.6"/></a>
                <rect x="2.8" y="0.5" width="0.6" height="0.8" class="spacer"/>
                <a class="seat" href="#"><rect x="3.4" y="0.0" width="0.8" height="0.6"/></a>
                <a class="seat" href="#"><rect x="3.4" y="1.2" width="0.8" height="0.6"/></a>
                <rect x="4.2" y="0.5" width="0.6" height="0.8" class="spacer"/>
                <a class="seat" href="#"><rect x="4.8" y="0.0" width="0.8" height="0.6"/></a>
                <a class="seat" href="#"><rect x="4.8" y="1.2" width="0.8" height="0.6"/></a>
                <rect x="5.6" y="0.5" width="0.6" height="0.8" class="spacer"/>
                <a class="seat" href="#"><rect x="6.2" y="0.0" width="0.8" height="0.6"/></a>
                <a class="seat" href="#"><rect x="6.2" y="1.2" width="0.8" height="0.6"/></a>
                <rect x="7.0" y="0.5" width="0.6" height="0.8" class="spacer"/>
                <a class="seat" href="#"><rect x="7.6" y="0.0" width="0.8" height="0.6"/></a>
                <a class="seat" href="#"><rect x="7.6" y="1.2" width="0.8" height="0.6"/></a>
                <rect x="8.4" y="0.5" width="0.6" height="0.8" class="spacer"/>
                <a class="seat" href="#"><rect x="9.0" y="0.0" width="0.8" height="0.6"/></a>
                <a class="seat" href="#"><rect x="9.0" y="1.2" width="0.8" height="0.6"/></a>
                <rect x="9.8" y="0.5" width="0.6" height="0.8" class="spacer"/>
                <a class="seat" href="#"><rect x="10.4" y="0.0" width="0.8" height="0.6"/></a>
                <a class="seat" href="#"><rect x="10.4" y="1.2" width="0.8" height="0.6"/></a>
                <rect x="11.2" y="0.5" width="0.6" height="0.8" class="spacer"/>
                <a class="seat" href="#"><rect x="11.8" y="0.0" width="0.8" height="0.6"/></a>
                <a class="seat" href="#"><rect x="11.8" y="1.2" width="0.8" height="0.6"/></a>
                <rect x="12.6" y="0.5" width="0.6" height="0.8" class="spacer"/>
                <a class="seat" href="#"><rect x="13.2" y="0.0" width="0.8" height="0.6"/></a>
                <a class="seat" href="#"><rect x="13.2" y="1.2" width="0.8" height="0.6"/></a>
                <rect x="14.0" y="0.5" width="0.6" height="0.8" class="spacer"/>
                <a class="seat" href="#"><rect x="14.6" y="0.0" width="0.8" height="0.6"/></a>
                <a class="seat" href="#"><rect x="14.6" y="1.2" width="0.8" height="0.6"/></a>
                <rect x="15.4" y="0.5" width="0.6" height="0.8" class="spacer"/>
                <a class="seat" href="#"><rect x="16.0" y="0.0" width="0.8" height="0.6"/></a>
                <a class="seat" href="#"><rect x="16.0" y="1.2" width="0.8" height="0.6"/></a>
                <rect x="16.8" y="0.5" width="0.6" height="0.8" class="spacer"/>
                <a class="seat" href="#"><rect x="17.4" y="0.0" width="0.8" height="0.6"/></a>
                <a class="seat" href="#"><rect x="17.4" y="1.2" width="0.8" height="0.6"/></a>
                <rect x="18.2" y="0.5" width="0.6" height="0.8" class="spacer"/>
            </g>
            <g class="seat-row" transform="translate(0.0, 8.35)">
                <rect x="0" y="-2.25" width="18.8" height="6.1" class="seat-row-outline"/>
                <text x="8" y="-0.5" font-size="1">Rad E2</text>
                <rect x="0" y="0.5" width="0.6" height="0.8" class="spacer"/>
                <a class="seat" href="#"><rect x="0.6" y="0.0" width="0.8" height="0.6"/></a>
                <a class="seat" href="#"><rect x="0.6" y="1.2" width="0.8" height="0.6"/></a>
                <rect x="1.4" y="0.5" width="0.6" height="0.8" class="spacer"/>
                <a class="seat" href="#"><rect x="2.0" y="0.0" width="0.8" height="0.6"/></a>
                <a class="seat" href="#"><rect x="2.0" y="1.2" width="0.8" height="0.6"/></a>
                <rect x="2.8" y="0.5" width="0.6" height="0.8" class="spacer"/>
                <a class="seat" href="#"><rect x="3.4" y="0.0" width="0.8" height="0.6"/></a>
                <a class="seat" href="#"><rect x="3.4" y="1.2" width="0.8" height="0.6"/></a>
                <rect x="4.2" y="0.5" width="0.6" height="0.8" class="spacer"/>
                <a class="seat" href="#"><rect x="4.8" y="0.0" width="0.8" height="0.6"/></a>
                <a class="seat" href="#"><rect x="4.8" y="1.2" width="0.8" height="0.6"/></a>
                <rect x="5.6" y="0.5" width="0.6" height="0.8" class="spacer"/>
                <a class="seat" href="#"><rect x="6.2" y="0.0" width="0.8" height="0.6"/></a>
                <a class="seat" href="#"><rect x="6.2" y="1.2" width="0.8" height="0.6"/></a>
                <rect x="7.0" y="0.5" width="0.6" height="0.8" class="spacer"/>
                <a class="seat" href="#"><rect x="7.6" y="0.0" width="0.8" height="0.6"/></a>
                <a class="seat" href="#"><rect x="7.6" y="1.2" width="0.8" height="0.6"/></a>
                <rect x="8.4" y="0.5" width="0.6" height="0.8" class="spacer"/>
                <a class="seat" href="#"><rect x="9.0" y="0.0" width="0.8" height="0.6"/></a>
                <a class="seat" href="#"><rect x="9.0" y="1.2" width="0.8" height="0.6"/></a>
                <rect x="9.8" y="0.5" width="0.6" height="0.8" class="spacer"/>
                <a class="seat" href="#"><rect x="10.4" y="0.0" width="0.8" height="0.6"/></a>
                <a class="seat" href="#"><rect x="10.4" y="1.2" width="0.8" height="0.6"/></a>
                <rect x="11.2" y="0.5" width="0.6" height="0.8" class="spacer"/>
                <a class="seat" href="#"><rect x="11.8" y="0.0" width="0.8" height="0.6"/></a>
                <a class="seat" href="#"><rect x="11.8" y="1.2" width="0.8" height="0.6"/></a>
                <rect x="12.6" y="0.5" width="0.6" height="0.8" class="spacer"/>
                <a class="seat" href="#"><rect x="13.2" y="0.0" width="0.8" height="0.6"/></a>
                <a class="seat" href="#"><rect x="13.2" y="1.2" width="0.8" height="0.6"/></a>
                <rect x="14.0" y="0.5" width="0.6" height="0.8" class="spacer"/>
                <a class="seat" href="#"><rect x="14.6" y="0.0" width="0.8" height="0.6"/></a>
                <a class="seat" href="#"><rect x="14.6" y="1.2" width="0.8" height="0.6"/></a>
                <rect x="15.4" y="0.5" width="0.6" height="0.8" class="spacer"/>
                <a class="seat" href="#"><rect x="16.0" y="0.0" width="0.8" height="0.6"/></a>
                <a class="seat" href="#"><rect x="16.0" y="1.2" width="0.8" height="0.6"/></a>
                <rect x="16.8" y="0.5" width="0.6" height="0.8" class="spacer"/>
                <a class="seat" href="#"><rect x="17.4" y="0.0" width="0.8" height="0.6"/></a>
                <a class="seat" href="#"><rect x="17.4" y="1.2" width="0.8" height="0.6"/></a>
                <rect x="18.2" y="0.5" width="0.6" height="0.8" class="spacer"/>
            </g>
            <g class="seat-row" transform="translate(0.0, 14.45)">
                <rect x="0" y="-2.25" width="18.8" height="6.1" class="seat-row-outline"/>
                <text x="8" y="-0.5" font-size="1">Rad E3</text>
                <rect x="0" y="0.5" width="0.6" height="0.8" class="spacer"/>
                <a class="seat" href="#"><rect x="0.6" y="0.0" width="0.8" height="0.6"/></a>
                <a class="seat" href="#"><rect x="0.6" y="1.2" width="0.8" height="0.6"/></a>
                <rect x="1.4" y="0.5" width="0.6" height="0.8" class="spacer"/>
                <a class="seat" href="#"><rect x="2.0" y="0.0" width="0.8" height="0.6"/></a>
                <a class="seat" href="#"><rect x="2.0" y="1.2" width="0.8" height="0.6"/></a>
                <rect x="2.8" y="0.5" width="0.6" height="0.8" class="spacer"/>
                <a class="seat" href="#"><rect x="3.4" y="0.0" width="0.8" height="0.6"/></a>
                <a class="seat" href="#"><rect x="3.4" y="1.2" width="0.8" height="0.6"/></a>
                <rect x="4.2" y="0.5" width="0.6" height="0.8" class="spacer"/>
                <a class="seat" href="#"><rect x="4.8" y="0.0" width="0.8" height="0.6"/></a>
                <a class="seat" href="#"><rect x="4.8" y="1.2" width="0.8" height="0.6"/></a>
                <rect x="5.6" y="0.5" width="0.6" height="0.8" class="spacer"/>
                <a class="seat" href="#"><rect x="6.2" y="0.0" width="0.8" height="0.6"/></a>
                <a class="seat" href="#"><rect x="6.2" y="1.2" width="0.8" height="0.6"/></a>
                <rect x="7.0" y="0.5" width="0.6" height="0.8" class="spacer"/>
                <a class="seat" href="#"><rect x="7.6" y="0.0" width="0.8" height="0.6"/></a>
                <a class="seat" href="#"><rect x="7.6" y="1.2" width="0.8" height="0.6"/></a>
                <rect x="8.4" y="0.5" width="0.6" height="0.8" class="spacer"/>
                <a class="seat" href="#"><rect x="9.0" y="0.0" width="0.8" height="0.6"/></a>
                <a class="seat" href="#"><rect x="9.0" y="1.2" width="0.8" height="0.6"/></a>
                <rect x="9.8" y="0.5" width="0.6" height="0.8" class="spacer"/>
                <a class="seat" href="#"><rect x="10.4" y="0.0" width="0.8" height="0.6"/></a>
                <a class="seat" href="#"><rect x="10.4" y="1.2" width="0.8" height="0.6"/></a>
                <rect x="11.2" y="0.5" width="0.6" height="0.8" class="spacer"/>
                <a class="seat" href="#"><rect x="11.8" y="0.0" width="0.8" height="0.6"/></a>
                <a class="seat" href="#"><rect x="11.8" y="1.2" width="0.8" height="0.6"/></a>
                <rect x="12.6" y="0.5" width="0.6" height="0.8" class="spacer"/>
                <a class="seat" href="#"><rect x="13.2" y="0.0" width="0.8" height="0.6"/></a>
                <a class="seat" href="#"><rect x="13.2" y="1.2" width="0.8" height="0.6"/></a>
                <rect x="14.0" y="0.5" width="0.6" height="0.8" class="spacer"/>
                <a class="seat" href="#"><rect x="14.6" y="0.0" width="0.8" height="0.6"/></a>
                <a class="seat" href="#"><rect x="14.6" y="1.2" width="0.8" height="0.6"/></a>
                <rect x="15.4" y="0.5" width="0.6" height="0.8" class="spacer"/>
                <a class="seat" href="#"><rect x="16.0" y="0.0" width="0.8" height="0.6"/></a>
                <a class="seat" href="#"><rect x="16.0" y="1.2" width="0.8" height="0.6"/></a>
                <rect x="16.8" y="0.5" width="0.6" height="0.8" class="spacer"/>
                <a class="seat" href="#"><rect x="17.4" y="0.0" width="0.8" height="0.6"/></a>
                <a class="seat" href="#"><rect x="17.4" y="1.2" width="0.8" height="0.6"/></a>
                <rect x="18.2" y="0.5" width="0.6" height="0.8" class="spacer"/>
            </g>
        </g>
    </g>
</svg>
