<svg xmlns="http://www.w3.org/2000/svg" viewBox="0 0 50 50">

    <!-- Measurements are in meters. -->
    <!-- The hall dimensions is 48x44 kvm. -->
    <!-- 1m/1px of padding is added to the top, left and right (and some below) to draw outside the main area. -->

    <style type="text/css">
        rect {
            /* Remove default fill */
            fill: none;
        }

        text {
            font-family: Arial;
            /* Change default alignment to center point */
            text-anchor: middle;
            alignment-baseline: middle;
        }

        .grid {
            /* DEBUG: Grid lines */
            /*display: none;*/
        }

        .grid line {
            stroke: #ccc;
            stroke-width: 0.025px;
        }

        .walls line {
            stroke: #666;
            stroke-width: 0.2px;
        }

        .walls line.zone-wall {
            stroke: #666;
            stroke-width: 0.1px;
            stroke-dasharray: 0.1;
        }

        .area-title {
            font-size: 1.2px;
        }

        .sleeping-row-area {
            stroke: #666;
            stroke-width: 0.05px;
            fill: #afba;
        }

        .stage-area {
            fill: #adfa;
            stroke: #666;
            stroke-width: 0.05px;
        }

        .seating-row-area {
            stroke: #666;
            stroke-width: 0.05px;
        }

        .crew-seating-row-area {
            stroke: #666;
            stroke-width: 0.05px;
            fill: #adfa;
        }

        .participant-seating-row-area {
            stroke: #666;
            stroke-width: 0.05px;
            /*fill: #afba;*/
        }

        rect.seat,
        .seat rect {
            stroke: #666;
            stroke-width: 0.05px;
            fill: #ddda;
        }

        rect.seat.spacer-seat {
            /* DEBUG */
            /*display: none;*/
        }

        /* Dynamic studlan styling: Available seat */
        rect.seating-node-free {
            fill: #5cb85c;
        }

        /* Dynamic studlan styling: Occupied seat */
        rect.seating-node-occupied {
            fill: #d9534f;
        }

        /* Dynamic studlan styling: Own seat */
        rect.seating-node-self {
            fill: #f0ad4e;
        }

        /* Dynamic studlan styling: Clicked seat */
        rect.seating-node-info {
            fill: #0275d8;
        }

        /* Dynamic studlan styling: Hyperlinked seat */
        rect.seating-node-search {
            fill: #5bc0de;
        }
    </style>

    <!-- DEBUG: Image frame -->
    <!--<rect width="50" height="50" style="fill: none; stroke: #00f; stroke-width: 0.1px;"/>-->

    <!-- Hall -->
    <g class="hall" transform="translate(1, 1)">

        <!-- Grid lines (optional) -->
        <g class="grid">
            <!-- Vertical lines -->
            <line x1="0" x2="0" y1="0" y2="44"/>
            <line x1="1" x2="1" y1="0" y2="44"/>
            <line x1="2" x2="2" y1="0" y2="44"/>
            <line x1="3" x2="3" y1="0" y2="44"/>
            <line x1="4" x2="4" y1="0" y2="44"/>
            <line x1="5" x2="5" y1="0" y2="44"/>
            <line x1="6" x2="6" y1="0" y2="44"/>
            <line x1="7" x2="7" y1="0" y2="44"/>
            <line x1="8" x2="8" y1="0" y2="44"/>
            <line x1="9" x2="9" y1="0" y2="44"/>
            <line x1="10" x2="10" y1="0" y2="44"/>
            <line x1="11" x2="11" y1="0" y2="44"/>
            <line x1="12" x2="12" y1="0" y2="44"/>
            <line x1="13" x2="13" y1="0" y2="44"/>
            <line x1="14" x2="14" y1="0" y2="44"/>
            <line x1="15" x2="15" y1="0" y2="44"/>
            <line x1="16" x2="16" y1="0" y2="44"/>
            <line x1="17" x2="17" y1="0" y2="44"/>
            <line x1="18" x2="18" y1="0" y2="44"/>
            <line x1="19" x2="19" y1="0" y2="44"/>
            <line x1="20" x2="20" y1="0" y2="44"/>
            <line x1="21" x2="21" y1="0" y2="44"/>
            <line x1="22" x2="22" y1="0" y2="44"/>
            <line x1="23" x2="23" y1="0" y2="44"/>
            <line x1="24" x2="24" y1="0" y2="44"/>
            <line x1="25" x2="25" y1="0" y2="44"/>
            <line x1="26" x2="26" y1="0" y2="44"/>
            <line x1="27" x2="27" y1="0" y2="44"/>
            <line x1="28" x2="28" y1="0" y2="44"/>
            <line x1="29" x2="29" y1="0" y2="44"/>
            <line x1="30" x2="30" y1="0" y2="44"/>
            <line x1="31" x2="31" y1="0" y2="44"/>
            <line x1="32" x2="32" y1="0" y2="44"/>
            <line x1="33" x2="33" y1="0" y2="44"/>
            <line x1="34" x2="34" y1="0" y2="44"/>
            <line x1="35" x2="35" y1="0" y2="44"/>
            <line x1="36" x2="36" y1="0" y2="44"/>
            <line x1="37" x2="37" y1="0" y2="44"/>
            <line x1="38" x2="38" y1="0" y2="44"/>
            <line x1="39" x2="39" y1="0" y2="44"/>
            <line x1="40" x2="40" y1="0" y2="44"/>
            <line x1="41" x2="41" y1="0" y2="44"/>
            <line x1="42" x2="42" y1="0" y2="44"/>
            <line x1="43" x2="43" y1="0" y2="44"/>
            <line x1="44" x2="44" y1="0" y2="44"/>
            <line x1="45" x2="45" y1="0" y2="44"/>
            <line x1="46" x2="46" y1="0" y2="44"/>
            <line x1="47" x2="47" y1="0" y2="44"/>
            <line x1="48" x2="48" y1="0" y2="44"/>

            <!-- Horizontal lines -->
            <line x1="0" x2="48" y1="0" y2="0"/>
            <line x1="0" x2="48" y1="1" y2="1"/>
            <line x1="0" x2="48" y1="2" y2="2"/>
            <line x1="0" x2="48" y1="3" y2="3"/>
            <line x1="0" x2="48" y1="4" y2="4"/>
            <line x1="0" x2="48" y1="5" y2="5"/>
            <line x1="0" x2="48" y1="6" y2="6"/>
            <line x1="0" x2="48" y1="7" y2="7"/>
            <line x1="0" x2="48" y1="8" y2="8"/>
            <line x1="0" x2="48" y1="9" y2="9"/>
            <line x1="0" x2="48" y1="10" y2="10"/>
            <line x1="0" x2="48" y1="11" y2="11"/>
            <line x1="0" x2="48" y1="12" y2="12"/>
            <line x1="0" x2="48" y1="13" y2="13"/>
            <line x1="0" x2="48" y1="14" y2="14"/>
            <line x1="0" x2="48" y1="15" y2="15"/>
            <line x1="0" x2="48" y1="16" y2="16"/>
            <line x1="0" x2="48" y1="17" y2="17"/>
            <line x1="0" x2="48" y1="18" y2="18"/>
            <line x1="0" x2="48" y1="19" y2="19"/>
            <line x1="0" x2="48" y1="20" y2="20"/>
            <line x1="0" x2="48" y1="21" y2="21"/>
            <line x1="0" x2="48" y1="22" y2="22"/>
            <line x1="0" x2="48" y1="23" y2="23"/>
            <line x1="0" x2="48" y1="24" y2="24"/>
            <line x1="0" x2="48" y1="25" y2="25"/>
            <line x1="0" x2="48" y1="26" y2="26"/>
            <line x1="0" x2="48" y1="27" y2="27"/>
            <line x1="0" x2="48" y1="28" y2="28"/>
            <line x1="0" x2="48" y1="29" y2="29"/>
            <line x1="0" x2="48" y1="30" y2="30"/>
            <line x1="0" x2="48" y1="31" y2="31"/>
            <line x1="0" x2="48" y1="32" y2="32"/>
            <line x1="0" x2="48" y1="33" y2="33"/>
            <line x1="0" x2="48" y1="34" y2="34"/>
            <line x1="0" x2="48" y1="35" y2="35"/>
            <line x1="0" x2="48" y1="36" y2="36"/>
            <line x1="0" x2="48" y1="37" y2="37"/>
            <line x1="0" x2="48" y1="38" y2="38"/>
            <line x1="0" x2="48" y1="39" y2="39"/>
            <line x1="0" x2="48" y1="40" y2="40"/>
            <line x1="0" x2="48" y1="41" y2="41"/>
            <line x1="0" x2="48" y1="42" y2="42"/>
            <line x1="0" x2="48" y1="43" y2="43"/>
            <line x1="0" x2="48" y1="44" y2="44"/>
        </g>

        <!-- Info -->
        <g transform="translate(24, 11)">
            <text x="0" y="0" font-size="0.8" font-style="italic" font-weight="bold">Utleirahallen</text>
            <text x="0" y="0.8" font-size="0.7">48×44m²</text>
        </g>

        <!-- Walls -->
        <g class="walls">
            <!-- Top wall -->
            <line x1="0" x2="48" y1="0" y2="0"/>
            <line x1="3" x2="45" y1="2" y2="2" class="zone-wall"/>
            <g transform="translate(24.0, 1)"><text font-size="1">Vei</text></g>
            <!-- Partition walls -->
            <line x1="3" x2="45" y1="15.5" y2="15.5" class="partition-wall"/>
            <!-- Left wall -->
            <line x1="0" x2="0" y1="0" y2="4"/>
            <g transform="translate(1, 5) rotate(270)"><text font-size="1">Nødutgang</text></g>
            <line x1="0" x2="0" y1="6" y2="41"/>
            <g transform="translate(1, 42) rotate(270)"><text font-size="1">Nødutgang</text></g>
            <line x1="0" x2="0" y1="43" y2="48"/>
            <line x1="3" x2="3" y1="2" y2="42" class="zone-wall"/>
            <g transform="translate(1.5, 22) rotate(270)"><text font-size="1">Rømningsvei</text></g>
            <!-- Right wall -->
            <line x1="48" x2="48" y1="0" y2="4"/>
            <g transform="translate(47, 5) rotate(90)"><text font-size="1">Nødutgang (port)</text></g>
            <line x1="48" x2="48" y1="7" y2="41"/>
            <g transform="translate(47, 42) rotate(90)"><text font-size="1">Nødutgang</text></g>
            <line x1="48" x2="48" y1="43" y2="48"/>
            <line x1="45" x2="45" y1="2" y2="42" class="zone-wall"/>
            <g transform="translate(46.5, 22) rotate(90)"><text font-size="1">Rømningsvei</text></g>
            <!-- Bottom walls -->
            <line x1="0" x2="3" y1="48" y2="48"/>
            <line x1="3" x2="3" y1="44" y2="48"/>
            <line x1="3" x2="21" y1="44" y2="44"/>
            <line x1="21" x2="21" y1="44" y2="48"/>
            <g transform="translate(22.5, 46) rotate(270)"><text font-size="1">Inngang</text></g>
            <line x1="24" x2="24" y1="45" y2="48"/>
            <line x1="24" x2="27" y1="45" y2="45"/>
            <line x1="24" x2="27" y1="48" y2="48"/>
            <line x1="27" x2="27" y1="48" y2="44"/>
            <line x1="27" x2="45" y1="44" y2="44"/>
            <line x1="45" x2="45" y1="44" y2="48"/>
            <line x1="45" x2="48" y1="48" y2="48"/>
            <line x1="3" x2="21" y1="42" y2="42" class="zone-wall"/>
            <line x1="21" x2="21" y1="42" y2="44" class="zone-wall"/>
            <line x1="27" x2="45" y1="42" y2="42" class="zone-wall"/>
            <line x1="27" x2="27" y1="42" y2="44" class="zone-wall"/>
            <!-- Tribuner -->
            <text x="12" y="46" class="area-title">Tribune</text>
            <line x1="3" x2="21" y1="48" y2="48" class="zone-wall"/>
            <text x="36" y="46" class="area-title">Tribune</text>
            <line x1="27" x2="45" y1="48" y2="48" class="zone-wall"/>
        </g>

        <!-- Sleeping area -->
        <g>
            <rect x="3" y="2" width="42" height="2.5" class="sleeping-row-area"/>
            <text x="24" y="3.25" class="area-title">Soverekke</text>
            <rect x="3" y="7.25" width="42" height="2.5" class="sleeping-row-area"/>
            <text x="24" y="8.5" class="area-title">Soverekke</text>
            <rect x="3" y="12.5" width="42" height="2.5" class="sleeping-row-area"/>
            <text x="24" y="14.0" class="area-title">Soverekke</text>
        </g>

        <!-- Stage -->
        <g class="stage" transform="translate(16.1, 16)">
            <rect width="15.8" height="6" class="stage-area"/>
            <text x="7.9" y="1.4" class="area-title">Scene</text>

            <!-- Left team (6.4+1 wide) -->
            <g class="seating-row" transform="translate(0.5, 0)">
                <rect x="0.0" y="2.1" width="0.8" height="0.6" class="seat"/>
                <rect x="1.4" y="2.1" width="0.8" height="0.6" class="seat"/>
                <rect x="2.8" y="2.1" width="0.8" height="0.6" class="seat"/>
                <rect x="4.2" y="2.1" width="0.8" height="0.6" class="seat"/>
                <rect x="5.6" y="2.1" width="0.8" height="0.6" class="seat"/>
            </g>

            <!-- Right team (6.4+1 wide) -->
            <g class="seating-row" transform="translate(8.9, 0)">
                <rect x="0.0" y="2.1" width="0.8" height="0.6" class="seat"/>
                <rect x="1.4" y="2.1" width="0.8" height="0.6" class="seat"/>
                <rect x="2.8" y="2.1" width="0.8" height="0.6" class="seat"/>
                <rect x="4.2" y="2.1" width="0.8" height="0.6" class="seat"/>
                <rect x="5.6" y="2.1" width="0.8" height="0.6" class="seat"/>
            </g>
        </g>

        <!-- Western crew area -->
        <g class="crew-seats" transform="translate(3, 16)">
            <g class="seating-row" transform="translate(0, 0)">
                <!-- Area and title -->
                <rect x="0" y="0" width="11.8" height="6" class="crew-seating-row-area"/>
                <text x="5.9" y="1.4" class="area-title">Crew</text>
                <!-- Tables -->
                <rect x="0" y="2.6" width="0.6" height="0.8" class="seat spacer-seat"/>
                <rect x="0.6" y="2.1" width="0.8" height="0.6" class="seat"/>
                <rect x="0.6" y="3.3" width="0.8" height="0.6" class="seat"/>
                <rect x="1.4" y="2.6" width="0.6" height="0.8" class="seat spacer-seat"/>
                <rect x="2.0" y="2.1" width="0.8" height="0.6" class="seat"/>
                <rect x="2.0" y="3.3" width="0.8" height="0.6" class="seat"/>
                <rect x="2.8" y="2.6" width="0.6" height="0.8" class="seat spacer-seat"/>
                <rect x="3.4" y="2.1" width="0.8" height="0.6" class="seat"/>
                <rect x="3.4" y="3.3" width="0.8" height="0.6" class="seat"/>
                <rect x="4.2" y="2.6" width="0.6" height="0.8" class="seat spacer-seat"/>
                <rect x="4.8" y="2.1" width="0.8" height="0.6" class="seat"/>
                <rect x="4.8" y="3.3" width="0.8" height="0.6" class="seat"/>
                <rect x="5.6" y="2.6" width="0.6" height="0.8" class="seat spacer-seat"/>
                <rect x="6.2" y="2.1" width="0.8" height="0.6" class="seat"/>
                <rect x="6.2" y="3.3" width="0.8" height="0.6" class="seat"/>
                <rect x="7.0" y="2.6" width="0.6" height="0.8" class="seat spacer-seat"/>
                <rect x="7.6" y="2.1" width="0.8" height="0.6" class="seat"/>
                <rect x="7.6" y="3.3" width="0.8" height="0.6" class="seat"/>
                <rect x="8.4" y="2.6" width="0.6" height="0.8" class="seat spacer-seat"/>
                <rect x="9.0" y="2.1" width="0.8" height="0.6" class="seat"/>
                <rect x="9.0" y="3.3" width="0.8" height="0.6" class="seat"/>
                <rect x="9.8" y="2.6" width="0.6" height="0.8" class="seat spacer-seat"/>
                <rect x="10.4" y="2.1" width="0.8" height="0.6" class="seat"/>
                <rect x="10.4" y="3.3" width="0.8" height="0.6" class="seat"/>
                <rect x="11.2" y="2.6" width="0.6" height="0.8" class="seat spacer-seat"/>
            </g>
        </g>

        <!-- Eastern crew area -->
        <g class="crew-seats" transform="translate(33.2, 16)">
            <g class="seating-row" transform="translate(0, 0)">
                <!-- Area and title -->
                <rect x="0" y="0" width="11.8" height="6" class="crew-seating-row-area"/>
                <text x="5.9" y="1.4" class="area-title">Crew</text>
                <!-- Tables -->
                <rect x="0" y="2.6" width="0.6" height="0.8" class="seat spacer-seat"/>
                <rect x="0.6" y="2.1" width="0.8" height="0.6" class="seat"/>
                <rect x="0.6" y="3.3" width="0.8" height="0.6" class="seat"/>
                <rect x="1.4" y="2.6" width="0.6" height="0.8" class="seat spacer-seat"/>
                <rect x="2.0" y="2.1" width="0.8" height="0.6" class="seat"/>
                <rect x="2.0" y="3.3" width="0.8" height="0.6" class="seat"/>
                <rect x="2.8" y="2.6" width="0.6" height="0.8" class="seat spacer-seat"/>
                <rect x="3.4" y="2.1" width="0.8" height="0.6" class="seat"/>
                <rect x="3.4" y="3.3" width="0.8" height="0.6" class="seat"/>
                <rect x="4.2" y="2.6" width="0.6" height="0.8" class="seat spacer-seat"/>
                <rect x="4.8" y="2.1" width="0.8" height="0.6" class="seat"/>
                <rect x="4.8" y="3.3" width="0.8" height="0.6" class="seat"/>
                <rect x="5.6" y="2.6" width="0.6" height="0.8" class="seat spacer-seat"/>
                <rect x="6.2" y="2.1" width="0.8" height="0.6" class="seat"/>
                <rect x="6.2" y="3.3" width="0.8" height="0.6" class="seat"/>
                <rect x="7.0" y="2.6" width="0.6" height="0.8" class="seat spacer-seat"/>
                <rect x="7.6" y="2.1" width="0.8" height="0.6" class="seat"/>
                <rect x="7.6" y="3.3" width="0.8" height="0.6" class="seat"/>
                <rect x="8.4" y="2.6" width="0.6" height="0.8" class="seat spacer-seat"/>
                <rect x="9.0" y="2.1" width="0.8" height="0.6" class="seat"/>
                <rect x="9.0" y="3.3" width="0.8" height="0.6" class="seat"/>
                <rect x="9.8" y="2.6" width="0.6" height="0.8" class="seat spacer-seat"/>
                <rect x="10.4" y="2.1" width="0.8" height="0.6" class="seat"/>
                <rect x="10.4" y="3.3" width="0.8" height="0.6" class="seat"/>
                <rect x="11.2" y="2.6" width="0.6" height="0.8" class="seat spacer-seat"/>
            </g>
        </g>

        <!-- Left participant seats -->
        <g class="participant-seats" transform="translate(3, 24)">
            <g class="seating-row" transform="translate(0.0, 0)">
                <!-- Area and title -->
                <rect x="0" y="0" width="18.8" height="6" class="participant-seating-row-area"/>
                <text x="9.4" y="1.4" class="area-title">Rad V1</text>
                <!-- Tables -->
                <rect x="0" y="2.6" width="0.6" height="0.8" class="seat spacer-seat"/>
                <a class="seat" href="#"><rect x="0.6" y="2.1" width="0.8" height="0.6" class="seat"/></a>
                <a class="seat" href="#"><rect x="0.6" y="3.3" width="0.8" height="0.6" class="seat"/></a>
                <rect x="1.4" y="2.6" width="0.6" height="0.8" class="seat spacer-seat"/>
                <a class="seat" href="#"><rect x="2.0" y="2.1" width="0.8" height="0.6" class="seat"/></a>
                <a class="seat" href="#"><rect x="2.0" y="3.3" width="0.8" height="0.6" class="seat"/></a>
                <rect x="2.8" y="2.6" width="0.6" height="0.8" class="seat spacer-seat"/>
                <a class="seat" href="#"><rect x="3.4" y="2.1" width="0.8" height="0.6" class="seat"/></a>
                <a class="seat" href="#"><rect x="3.4" y="3.3" width="0.8" height="0.6" class="seat"/></a>
                <rect x="4.2" y="2.6" width="0.6" height="0.8" class="seat spacer-seat"/>
                <a class="seat" href="#"><rect x="4.8" y="2.1" width="0.8" height="0.6" class="seat"/></a>
                <a class="seat" href="#"><rect x="4.8" y="3.3" width="0.8" height="0.6" class="seat"/></a>
                <rect x="5.6" y="2.6" width="0.6" height="0.8" class="seat spacer-seat"/>
                <a class="seat" href="#"><rect x="6.2" y="2.1" width="0.8" height="0.6" class="seat"/></a>
                <a class="seat" href="#"><rect x="6.2" y="3.3" width="0.8" height="0.6" class="seat"/></a>
                <rect x="7.0" y="2.6" width="0.6" height="0.8" class="seat spacer-seat"/>
                <a class="seat" href="#"><rect x="7.6" y="2.1" width="0.8" height="0.6" class="seat"/></a>
                <a class="seat" href="#"><rect x="7.6" y="3.3" width="0.8" height="0.6" class="seat"/></a>
                <rect x="8.4" y="2.6" width="0.6" height="0.8" class="seat spacer-seat"/>
                <a class="seat" href="#"><rect x="9.0" y="2.1" width="0.8" height="0.6" class="seat"/></a>
                <a class="seat" href="#"><rect x="9.0" y="3.3" width="0.8" height="0.6" class="seat"/></a>
                <rect x="9.8" y="2.6" width="0.6" height="0.8" class="seat spacer-seat"/>
                <a class="seat" href="#"><rect x="10.4" y="2.1" width="0.8" height="0.6" class="seat"/></a>
                <a class="seat" href="#"><rect x="10.4" y="3.3" width="0.8" height="0.6" class="seat"/></a>
                <rect x="11.2" y="2.6" width="0.6" height="0.8" class="seat spacer-seat"/>
                <a class="seat" href="#"><rect x="11.8" y="2.1" width="0.8" height="0.6" class="seat"/></a>
                <a class="seat" href="#"><rect x="11.8" y="3.3" width="0.8" height="0.6" class="seat"/></a>
                <rect x="12.6" y="2.6" width="0.6" height="0.8" class="seat spacer-seat"/>
                <a class="seat" href="#"><rect x="13.2" y="2.1" width="0.8" height="0.6" class="seat"/></a>
                <a class="seat" href="#"><rect x="13.2" y="3.3" width="0.8" height="0.6" class="seat"/></a>
                <rect x="14.0" y="2.6" width="0.6" height="0.8" class="seat spacer-seat"/>
                <a class="seat" href="#"><rect x="14.6" y="2.1" width="0.8" height="0.6" class="seat"/></a>
                <a class="seat" href="#"><rect x="14.6" y="3.3" width="0.8" height="0.6" class="seat"/></a>
                <rect x="15.4" y="2.6" width="0.6" height="0.8" class="seat spacer-seat"/>
                <a class="seat" href="#"><rect x="16.0" y="2.1" width="0.8" height="0.6" class="seat"/></a>
                <a class="seat" href="#"><rect x="16.0" y="3.3" width="0.8" height="0.6" class="seat"/></a>
                <rect x="16.8" y="2.6" width="0.6" height="0.8" class="seat spacer-seat"/>
                <a class="seat" href="#"><rect x="17.4" y="2.1" width="0.8" height="0.6" class="seat"/></a>
                <a class="seat" href="#"><rect x="17.4" y="3.3" width="0.8" height="0.6" class="seat"/></a>
                <rect x="18.2" y="2.6" width="0.6" height="0.8" class="seat spacer-seat"/>
            </g>
            <g class="seating-row" transform="translate(0.0, 6)">
                <!-- Area and title -->
                <rect x="0" y="0" width="18.8" height="6" class="participant-seating-row-area"/>
                <text x="9.4" y="1.4" class="area-title">Rad V2</text>
                <!-- Tables -->
                <rect x="0" y="2.6" width="0.6" height="0.8" class="seat spacer-seat"/>
                <a class="seat" href="#"><rect x="0.6" y="2.1" width="0.8" height="0.6" class="seat"/></a>
                <a class="seat" href="#"><rect x="0.6" y="3.3" width="0.8" height="0.6" class="seat"/></a>
                <rect x="1.4" y="2.6" width="0.6" height="0.8" class="seat spacer-seat"/>
                <a class="seat" href="#"><rect x="2.0" y="2.1" width="0.8" height="0.6" class="seat"/></a>
                <a class="seat" href="#"><rect x="2.0" y="3.3" width="0.8" height="0.6" class="seat"/></a>
                <rect x="2.8" y="2.6" width="0.6" height="0.8" class="seat spacer-seat"/>
                <a class="seat" href="#"><rect x="3.4" y="2.1" width="0.8" height="0.6" class="seat"/></a>
                <a class="seat" href="#"><rect x="3.4" y="3.3" width="0.8" height="0.6" class="seat"/></a>
                <rect x="4.2" y="2.6" width="0.6" height="0.8" class="seat spacer-seat"/>
                <a class="seat" href="#"><rect x="4.8" y="2.1" width="0.8" height="0.6" class="seat"/></a>
                <a class="seat" href="#"><rect x="4.8" y="3.3" width="0.8" height="0.6" class="seat"/></a>
                <rect x="5.6" y="2.6" width="0.6" height="0.8" class="seat spacer-seat"/>
                <a class="seat" href="#"><rect x="6.2" y="2.1" width="0.8" height="0.6" class="seat"/></a>
                <a class="seat" href="#"><rect x="6.2" y="3.3" width="0.8" height="0.6" class="seat"/></a>
                <rect x="7.0" y="2.6" width="0.6" height="0.8" class="seat spacer-seat"/>
                <a class="seat" href="#"><rect x="7.6" y="2.1" width="0.8" height="0.6" class="seat"/></a>
                <a class="seat" href="#"><rect x="7.6" y="3.3" width="0.8" height="0.6" class="seat"/></a>
                <rect x="8.4" y="2.6" width="0.6" height="0.8" class="seat spacer-seat"/>
                <a class="seat" href="#"><rect x="9.0" y="2.1" width="0.8" height="0.6" class="seat"/></a>
                <a class="seat" href="#"><rect x="9.0" y="3.3" width="0.8" height="0.6" class="seat"/></a>
                <rect x="9.8" y="2.6" width="0.6" height="0.8" class="seat spacer-seat"/>
                <a class="seat" href="#"><rect x="10.4" y="2.1" width="0.8" height="0.6" class="seat"/></a>
                <a class="seat" href="#"><rect x="10.4" y="3.3" width="0.8" height="0.6" class="seat"/></a>
                <rect x="11.2" y="2.6" width="0.6" height="0.8" class="seat spacer-seat"/>
                <a class="seat" href="#"><rect x="11.8" y="2.1" width="0.8" height="0.6" class="seat"/></a>
                <a class="seat" href="#"><rect x="11.8" y="3.3" width="0.8" height="0.6" class="seat"/></a>
                <rect x="12.6" y="2.6" width="0.6" height="0.8" class="seat spacer-seat"/>
                <a class="seat" href="#"><rect x="13.2" y="2.1" width="0.8" height="0.6" class="seat"/></a>
                <a class="seat" href="#"><rect x="13.2" y="3.3" width="0.8" height="0.6" class="seat"/></a>
                <rect x="14.0" y="2.6" width="0.6" height="0.8" class="seat spacer-seat"/>
                <a class="seat" href="#"><rect x="14.6" y="2.1" width="0.8" height="0.6" class="seat"/></a>
                <a class="seat" href="#"><rect x="14.6" y="3.3" width="0.8" height="0.6" class="seat"/></a>
                <rect x="15.4" y="2.6" width="0.6" height="0.8" class="seat spacer-seat"/>
                <a class="seat" href="#"><rect x="16.0" y="2.1" width="0.8" height="0.6" class="seat"/></a>
                <a class="seat" href="#"><rect x="16.0" y="3.3" width="0.8" height="0.6" class="seat"/></a>
                <rect x="16.8" y="2.6" width="0.6" height="0.8" class="seat spacer-seat"/>
                <a class="seat" href="#"><rect x="17.4" y="2.1" width="0.8" height="0.6" class="seat"/></a>
                <a class="seat" href="#"><rect x="17.4" y="3.3" width="0.8" height="0.6" class="seat"/></a>
                <rect x="18.2" y="2.6" width="0.6" height="0.8" class="seat spacer-seat"/>
            </g>
            <g class="seating-row" transform="translate(0.0, 12)">
                <!-- Area and title -->
                <rect x="0" y="0" width="18.8" height="6" class="participant-seating-row-area"/>
                <text x="9.4" y="1.4" class="area-title">Rad V3</text>
                <!-- Tables -->
                <rect x="0" y="2.6" width="0.6" height="0.8" class="seat spacer-seat"/>
                <a class="seat" href="#"><rect x="0.6" y="2.1" width="0.8" height="0.6" class="seat"/></a>
                <a class="seat" href="#"><rect x="0.6" y="3.3" width="0.8" height="0.6" class="seat"/></a>
                <rect x="1.4" y="2.6" width="0.6" height="0.8" class="seat spacer-seat"/>
                <a class="seat" href="#"><rect x="2.0" y="2.1" width="0.8" height="0.6" class="seat"/></a>
                <a class="seat" href="#"><rect x="2.0" y="3.3" width="0.8" height="0.6" class="seat"/></a>
                <rect x="2.8" y="2.6" width="0.6" height="0.8" class="seat spacer-seat"/>
                <a class="seat" href="#"><rect x="3.4" y="2.1" width="0.8" height="0.6" class="seat"/></a>
                <a class="seat" href="#"><rect x="3.4" y="3.3" width="0.8" height="0.6" class="seat"/></a>
                <rect x="4.2" y="2.6" width="0.6" height="0.8" class="seat spacer-seat"/>
                <a class="seat" href="#"><rect x="4.8" y="2.1" width="0.8" height="0.6" class="seat"/></a>
                <a class="seat" href="#"><rect x="4.8" y="3.3" width="0.8" height="0.6" class="seat"/></a>
                <rect x="5.6" y="2.6" width="0.6" height="0.8" class="seat spacer-seat"/>
                <a class="seat" href="#"><rect x="6.2" y="2.1" width="0.8" height="0.6" class="seat"/></a>
                <a class="seat" href="#"><rect x="6.2" y="3.3" width="0.8" height="0.6" class="seat"/></a>
                <rect x="7.0" y="2.6" width="0.6" height="0.8" class="seat spacer-seat"/>
                <a class="seat" href="#"><rect x="7.6" y="2.1" width="0.8" height="0.6" class="seat"/></a>
                <a class="seat" href="#"><rect x="7.6" y="3.3" width="0.8" height="0.6" class="seat"/></a>
                <rect x="8.4" y="2.6" width="0.6" height="0.8" class="seat spacer-seat"/>
                <a class="seat" href="#"><rect x="9.0" y="2.1" width="0.8" height="0.6" class="seat"/></a>
                <a class="seat" href="#"><rect x="9.0" y="3.3" width="0.8" height="0.6" class="seat"/></a>
                <rect x="9.8" y="2.6" width="0.6" height="0.8" class="seat spacer-seat"/>
                <a class="seat" href="#"><rect x="10.4" y="2.1" width="0.8" height="0.6" class="seat"/></a>
                <a class="seat" href="#"><rect x="10.4" y="3.3" width="0.8" height="0.6" class="seat"/></a>
                <rect x="11.2" y="2.6" width="0.6" height="0.8" class="seat spacer-seat"/>
                <a class="seat" href="#"><rect x="11.8" y="2.1" width="0.8" height="0.6" class="seat"/></a>
                <a class="seat" href="#"><rect x="11.8" y="3.3" width="0.8" height="0.6" class="seat"/></a>
                <rect x="12.6" y="2.6" width="0.6" height="0.8" class="seat spacer-seat"/>
                <a class="seat" href="#"><rect x="13.2" y="2.1" width="0.8" height="0.6" class="seat"/></a>
                <a class="seat" href="#"><rect x="13.2" y="3.3" width="0.8" height="0.6" class="seat"/></a>
                <rect x="14.0" y="2.6" width="0.6" height="0.8" class="seat spacer-seat"/>
                <a class="seat" href="#"><rect x="14.6" y="2.1" width="0.8" height="0.6" class="seat"/></a>
                <a class="seat" href="#"><rect x="14.6" y="3.3" width="0.8" height="0.6" class="seat"/></a>
                <rect x="15.4" y="2.6" width="0.6" height="0.8" class="seat spacer-seat"/>
                <a class="seat" href="#"><rect x="16.0" y="2.1" width="0.8" height="0.6" class="seat"/></a>
                <a class="seat" href="#"><rect x="16.0" y="3.3" width="0.8" height="0.6" class="seat"/></a>
                <rect x="16.8" y="2.6" width="0.6" height="0.8" class="seat spacer-seat"/>
                <a class="seat" href="#"><rect x="17.4" y="2.1" width="0.8" height="0.6" class="seat"/></a>
                <a class="seat" href="#"><rect x="17.4" y="3.3" width="0.8" height="0.6" class="seat"/></a>
                <rect x="18.2" y="2.6" width="0.6" height="0.8" class="seat spacer-seat"/>
            </g>
        </g>

        <!-- Right participant seats -->
        <g class="participant-seats" transform="translate(26.2, 24)">
            <g class="seating-row" transform="translate(0.0, 0)">
                <!-- Area and title -->
                <rect x="0" y="0" width="18.8" height="6" class="participant-seating-row-area"/>
                <text x="9.4" y="1.4" class="area-title">Rad H1</text>
                <!-- Tables -->
                <rect x="0" y="2.6" width="0.6" height="0.8" class="seat spacer-seat"/>
                <a class="seat" href="#"><rect x="0.6" y="2.1" width="0.8" height="0.6" class="seat"/></a>
                <a class="seat" href="#"><rect x="0.6" y="3.3" width="0.8" height="0.6" class="seat"/></a>
                <rect x="1.4" y="2.6" width="0.6" height="0.8" class="seat spacer-seat"/>
                <a class="seat" href="#"><rect x="2.0" y="2.1" width="0.8" height="0.6" class="seat"/></a>
                <a class="seat" href="#"><rect x="2.0" y="3.3" width="0.8" height="0.6" class="seat"/></a>
                <rect x="2.8" y="2.6" width="0.6" height="0.8" class="seat spacer-seat"/>
                <a class="seat" href="#"><rect x="3.4" y="2.1" width="0.8" height="0.6" class="seat"/></a>
                <a class="seat" href="#"><rect x="3.4" y="3.3" width="0.8" height="0.6" class="seat"/></a>
                <rect x="4.2" y="2.6" width="0.6" height="0.8" class="seat spacer-seat"/>
                <a class="seat" href="#"><rect x="4.8" y="2.1" width="0.8" height="0.6" class="seat"/></a>
                <a class="seat" href="#"><rect x="4.8" y="3.3" width="0.8" height="0.6" class="seat"/></a>
                <rect x="5.6" y="2.6" width="0.6" height="0.8" class="seat spacer-seat"/>
                <a class="seat" href="#"><rect x="6.2" y="2.1" width="0.8" height="0.6" class="seat"/></a>
                <a class="seat" href="#"><rect x="6.2" y="3.3" width="0.8" height="0.6" class="seat"/></a>
                <rect x="7.0" y="2.6" width="0.6" height="0.8" class="seat spacer-seat"/>
                <a class="seat" href="#"><rect x="7.6" y="2.1" width="0.8" height="0.6" class="seat"/></a>
                <a class="seat" href="#"><rect x="7.6" y="3.3" width="0.8" height="0.6" class="seat"/></a>
                <rect x="8.4" y="2.6" width="0.6" height="0.8" class="seat spacer-seat"/>
                <a class="seat" href="#"><rect x="9.0" y="2.1" width="0.8" height="0.6" class="seat"/></a>
                <a class="seat" href="#"><rect x="9.0" y="3.3" width="0.8" height="0.6" class="seat"/></a>
                <rect x="9.8" y="2.6" width="0.6" height="0.8" class="seat spacer-seat"/>
                <a class="seat" href="#"><rect x="10.4" y="2.1" width="0.8" height="0.6" class="seat"/></a>
                <a class="seat" href="#"><rect x="10.4" y="3.3" width="0.8" height="0.6" class="seat"/></a>
                <rect x="11.2" y="2.6" width="0.6" height="0.8" class="seat spacer-seat"/>
                <a class="seat" href="#"><rect x="11.8" y="2.1" width="0.8" height="0.6" class="seat"/></a>
                <a class="seat" href="#"><rect x="11.8" y="3.3" width="0.8" height="0.6" class="seat"/></a>
                <rect x="12.6" y="2.6" width="0.6" height="0.8" class="seat spacer-seat"/>
                <a class="seat" href="#"><rect x="13.2" y="2.1" width="0.8" height="0.6" class="seat"/></a>
                <a class="seat" href="#"><rect x="13.2" y="3.3" width="0.8" height="0.6" class="seat"/></a>
                <rect x="14.0" y="2.6" width="0.6" height="0.8" class="seat spacer-seat"/>
                <a class="seat" href="#"><rect x="14.6" y="2.1" width="0.8" height="0.6" class="seat"/></a>
                <a class="seat" href="#"><rect x="14.6" y="3.3" width="0.8" height="0.6" class="seat"/></a>
                <rect x="15.4" y="2.6" width="0.6" height="0.8" class="seat spacer-seat"/>
                <a class="seat" href="#"><rect x="16.0" y="2.1" width="0.8" height="0.6" class="seat"/></a>
                <a class="seat" href="#"><rect x="16.0" y="3.3" width="0.8" height="0.6" class="seat"/></a>
                <rect x="16.8" y="2.6" width="0.6" height="0.8" class="seat spacer-seat"/>
                <a class="seat" href="#"><rect x="17.4" y="2.1" width="0.8" height="0.6" class="seat"/></a>
                <a class="seat" href="#"><rect x="17.4" y="3.3" width="0.8" height="0.6" class="seat"/></a>
                <rect x="18.2" y="2.6" width="0.6" height="0.8" class="seat spacer-seat"/>
            </g>
            <g class="seating-row" transform="translate(0.0, 6)">
                <!-- Area and title -->
                <rect x="0" y="0" width="18.8" height="6" class="participant-seating-row-area"/>
                <text x="9.4" y="1.4" class="area-title">Rad H2</text>
                <!-- Tables -->
                <rect x="0" y="2.6" width="0.6" height="0.8" class="seat spacer-seat"/>
                <a class="seat" href="#"><rect x="0.6" y="2.1" width="0.8" height="0.6" class="seat"/></a>
                <a class="seat" href="#"><rect x="0.6" y="3.3" width="0.8" height="0.6" class="seat"/></a>
                <rect x="1.4" y="2.6" width="0.6" height="0.8" class="seat spacer-seat"/>
                <a class="seat" href="#"><rect x="2.0" y="2.1" width="0.8" height="0.6" class="seat"/></a>
                <a class="seat" href="#"><rect x="2.0" y="3.3" width="0.8" height="0.6" class="seat"/></a>
                <rect x="2.8" y="2.6" width="0.6" height="0.8" class="seat spacer-seat"/>
                <a class="seat" href="#"><rect x="3.4" y="2.1" width="0.8" height="0.6" class="seat"/></a>
                <a class="seat" href="#"><rect x="3.4" y="3.3" width="0.8" height="0.6" class="seat"/></a>
                <rect x="4.2" y="2.6" width="0.6" height="0.8" class="seat spacer-seat"/>
                <a class="seat" href="#"><rect x="4.8" y="2.1" width="0.8" height="0.6" class="seat"/></a>
                <a class="seat" href="#"><rect x="4.8" y="3.3" width="0.8" height="0.6" class="seat"/></a>
                <rect x="5.6" y="2.6" width="0.6" height="0.8" class="seat spacer-seat"/>
                <a class="seat" href="#"><rect x="6.2" y="2.1" width="0.8" height="0.6" class="seat"/></a>
                <a class="seat" href="#"><rect x="6.2" y="3.3" width="0.8" height="0.6" class="seat"/></a>
                <rect x="7.0" y="2.6" width="0.6" height="0.8" class="seat spacer-seat"/>
                <a class="seat" href="#"><rect x="7.6" y="2.1" width="0.8" height="0.6" class="seat"/></a>
                <a class="seat" href="#"><rect x="7.6" y="3.3" width="0.8" height="0.6" class="seat"/></a>
                <rect x="8.4" y="2.6" width="0.6" height="0.8" class="seat spacer-seat"/>
                <a class="seat" href="#"><rect x="9.0" y="2.1" width="0.8" height="0.6" class="seat"/></a>
                <a class="seat" href="#"><rect x="9.0" y="3.3" width="0.8" height="0.6" class="seat"/></a>
                <rect x="9.8" y="2.6" width="0.6" height="0.8" class="seat spacer-seat"/>
                <a class="seat" href="#"><rect x="10.4" y="2.1" width="0.8" height="0.6" class="seat"/></a>
                <a class="seat" href="#"><rect x="10.4" y="3.3" width="0.8" height="0.6" class="seat"/></a>
                <rect x="11.2" y="2.6" width="0.6" height="0.8" class="seat spacer-seat"/>
                <a class="seat" href="#"><rect x="11.8" y="2.1" width="0.8" height="0.6" class="seat"/></a>
                <a class="seat" href="#"><rect x="11.8" y="3.3" width="0.8" height="0.6" class="seat"/></a>
                <rect x="12.6" y="2.6" width="0.6" height="0.8" class="seat spacer-seat"/>
                <a class="seat" href="#"><rect x="13.2" y="2.1" width="0.8" height="0.6" class="seat"/></a>
                <a class="seat" href="#"><rect x="13.2" y="3.3" width="0.8" height="0.6" class="seat"/></a>
                <rect x="14.0" y="2.6" width="0.6" height="0.8" class="seat spacer-seat"/>
                <a class="seat" href="#"><rect x="14.6" y="2.1" width="0.8" height="0.6" class="seat"/></a>
                <a class="seat" href="#"><rect x="14.6" y="3.3" width="0.8" height="0.6" class="seat"/></a>
                <rect x="15.4" y="2.6" width="0.6" height="0.8" class="seat spacer-seat"/>
                <a class="seat" href="#"><rect x="16.0" y="2.1" width="0.8" height="0.6" class="seat"/></a>
                <a class="seat" href="#"><rect x="16.0" y="3.3" width="0.8" height="0.6" class="seat"/></a>
                <rect x="16.8" y="2.6" width="0.6" height="0.8" class="seat spacer-seat"/>
                <a class="seat" href="#"><rect x="17.4" y="2.1" width="0.8" height="0.6" class="seat"/></a>
                <a class="seat" href="#"><rect x="17.4" y="3.3" width="0.8" height="0.6" class="seat"/></a>
                <rect x="18.2" y="2.6" width="0.6" height="0.8" class="seat spacer-seat"/>
            </g>
            <g class="seating-row" transform="translate(0.0, 12)">
                <!-- Area and title -->
                <rect x="0" y="0" width="18.8" height="6" class="participant-seating-row-area"/>
                <text x="9.4" y="1.4" class="area-title">Rad H3</text>
                <!-- Tables -->
                <rect x="0" y="2.6" width="0.6" height="0.8" class="seat spacer-seat"/>
                <a class="seat" href="#"><rect x="0.6" y="2.1" width="0.8" height="0.6" class="seat"/></a>
                <a class="seat" href="#"><rect x="0.6" y="3.3" width="0.8" height="0.6" class="seat"/></a>
                <rect x="1.4" y="2.6" width="0.6" height="0.8" class="seat spacer-seat"/>
                <a class="seat" href="#"><rect x="2.0" y="2.1" width="0.8" height="0.6" class="seat"/></a>
                <a class="seat" href="#"><rect x="2.0" y="3.3" width="0.8" height="0.6" class="seat"/></a>
                <rect x="2.8" y="2.6" width="0.6" height="0.8" class="seat spacer-seat"/>
                <a class="seat" href="#"><rect x="3.4" y="2.1" width="0.8" height="0.6" class="seat"/></a>
                <a class="seat" href="#"><rect x="3.4" y="3.3" width="0.8" height="0.6" class="seat"/></a>
                <rect x="4.2" y="2.6" width="0.6" height="0.8" class="seat spacer-seat"/>
                <a class="seat" href="#"><rect x="4.8" y="2.1" width="0.8" height="0.6" class="seat"/></a>
                <a class="seat" href="#"><rect x="4.8" y="3.3" width="0.8" height="0.6" class="seat"/></a>
                <rect x="5.6" y="2.6" width="0.6" height="0.8" class="seat spacer-seat"/>
                <a class="seat" href="#"><rect x="6.2" y="2.1" width="0.8" height="0.6" class="seat"/></a>
                <a class="seat" href="#"><rect x="6.2" y="3.3" width="0.8" height="0.6" class="seat"/></a>
                <rect x="7.0" y="2.6" width="0.6" height="0.8" class="seat spacer-seat"/>
                <a class="seat" href="#"><rect x="7.6" y="2.1" width="0.8" height="0.6" class="seat"/></a>
                <a class="seat" href="#"><rect x="7.6" y="3.3" width="0.8" height="0.6" class="seat"/></a>
                <rect x="8.4" y="2.6" width="0.6" height="0.8" class="seat spacer-seat"/>
                <a class="seat" href="#"><rect x="9.0" y="2.1" width="0.8" height="0.6" class="seat"/></a>
                <a class="seat" href="#"><rect x="9.0" y="3.3" width="0.8" height="0.6" class="seat"/></a>
                <rect x="9.8" y="2.6" width="0.6" height="0.8" class="seat spacer-seat"/>
                <a class="seat" href="#"><rect x="10.4" y="2.1" width="0.8" height="0.6" class="seat"/></a>
                <a class="seat" href="#"><rect x="10.4" y="3.3" width="0.8" height="0.6" class="seat"/></a>
                <rect x="11.2" y="2.6" width="0.6" height="0.8" class="seat spacer-seat"/>
                <a class="seat" href="#"><rect x="11.8" y="2.1" width="0.8" height="0.6" class="seat"/></a>
                <a class="seat" href="#"><rect x="11.8" y="3.3" width="0.8" height="0.6" class="seat"/></a>
                <rect x="12.6" y="2.6" width="0.6" height="0.8" class="seat spacer-seat"/>
                <a class="seat" href="#"><rect x="13.2" y="2.1" width="0.8" height="0.6" class="seat"/></a>
                <a class="seat" href="#"><rect x="13.2" y="3.3" width="0.8" height="0.6" class="seat"/></a>
                <rect x="14.0" y="2.6" width="0.6" height="0.8" class="seat spacer-seat"/>
                <a class="seat" href="#"><rect x="14.6" y="2.1" width="0.8" height="0.6" class="seat"/></a>
                <a class="seat" href="#"><rect x="14.6" y="3.3" width="0.8" height="0.6" class="seat"/></a>
                <rect x="15.4" y="2.6" width="0.6" height="0.8" class="seat spacer-seat"/>
                <a class="seat" href="#"><rect x="16.0" y="2.1" width="0.8" height="0.6" class="seat"/></a>
                <a class="seat" href="#"><rect x="16.0" y="3.3" width="0.8" height="0.6" class="seat"/></a>
                <rect x="16.8" y="2.6" width="0.6" height="0.8" class="seat spacer-seat"/>
                <a class="seat" href="#"><rect x="17.4" y="2.1" width="0.8" height="0.6" class="seat"/></a>
                <a class="seat" href="#"><rect x="17.4" y="3.3" width="0.8" height="0.6" class="seat"/></a>
                <rect x="18.2" y="2.6" width="0.6" height="0.8" class="seat spacer-seat"/>
            </g>
        </g>
    </g>
</svg>
