<svg xmlns="http://www.w3.org/2000/svg" viewBox="0 0 900 1100">

    <!-- DEBUG: Show image border -->
    <!--<rect width="100%" height="100%" style="fill: transparent; stroke-width: 5; stroke: blue;" />-->

    <style type="text/css" >
        .env rect, .env line, .env path {
            fill: none;
            stroke: #222;
            stroke-width: 1px;
        }

        .env .walls rect, .env .walls line, .env .walls path {
            stroke-width: 2px;
        }

        .env text {
            font-family: Arial;
            font-size: 35px;
            fill: #000;
        }

        .env text.small {
           font-size: 25px;
        }

        .env text.extra-small {
           font-size: 15px;
           font-weight: bold;
        }

        .seats rect {
            /* Override stroke width from studlan */
            stroke-width: 0.05 !important;
        }
    </style>

    <g class="env" transform="translate(-105, 40)">

        <!-- Walls -->
        <g class="walls">
            <line x1="269" x2="989" y1="-32" y2="-32" />
            <line x1="549" x2="779" y1="708" y2="708" />
            <line x1="549" x2="779" y1="788" y2="788" />
            <line x1="655" x2="655" y1="1050" y2="788" />
            <line x1="120" x2="655" y1="1050" y2="1050" />
            <line x1="120" x2="120" y1="1050" y2="708" />
            <line x1="269" x2="269" y1="-32" y2="708" />
            <line x1="120" x2="414" y1="708" y2="708" />
            <line x1="439" x2="549" y1="708" y2="708" />
            <line x1="120" x2="220" y1="788" y2="788" />
            <line x1="260" x2="414" y1="788" y2="788" />
            <line x1="439" x2="549" y1="788" y2="788" />
            <line x1="990" x2="990" y1="-32" y2="948" />
            <line x1="654" x2="789" y1="948" y2="948" />
            <line x1="990" x2="829" y1="948" y2="948" />

            <!-- WCs left -->
            <line x1="409" x2="409" y1="738" y2="758" />
            <line x1="409" x2="409" y1="708" y2="718" />
            <line x1="364" x2="409" y1="748" y2="748" />
            <line x1="364" x2="364" y1="708" y2="788" />
            <line x1="444" x2="444" y1="738" y2="758" />
            <line x1="444" x2="444" y1="708" y2="718" />
            <line x1="444" x2="444" y1="778" y2="788" />
            <line x1="444" x2="489" y1="748" y2="748" />
            <line x1="840" x2="840" y1="740" y2="948" />
            <line x1="409" x2="409" y1="778" y2="788" />
            <line x1="489" x2="489" y1="708" y2="788" />

            <!-- WCs right -->
            <line x1="840" x2="990" y1="708" y2="708" />
            <line x1="955" x2="990" y1="740" y2="740" />
            <line x1="840" x2="885" y1="740" y2="740" />
            <line x1="910" x2="930" y1="740" y2="740" />
            <line x1="875" x2="965" y1="780" y2="780" />
            <line x1="875" x2="875" y1="740" y2="780" />
            <line x1="920" x2="920" y1="740" y2="780" />
            <line x1="965" x2="965" y1="740" y2="780" />

            <!-- Showers -->
            <line x1="779" x2="779" y1="708" y2="788" />
            <line x1="779" x2="779" y1="788" y2="820" />
            <line x1="779" x2="779" y1="850" y2="890" />
            <line x1="779" x2="779" y1="920" y2="948" />
        </g>

        <!-- Entrance -->
        <g transform="translate(750, 1000)">
            <text x="0" y="0">Inngang</text>
        </g>

        <!-- WCs 1 -->
        <g transform="translate(377, 734)">
            <text class="extra-small" x="0" y="0">WC</text>
            <text class="extra-small" x="0" y="40">WC</text>
            <text class="extra-small" x="77" y="0">WC</text>
            <text class="extra-small" x="77" y="40">WC</text>
        </g>

        <!-- WCs 2 -->
        <g transform="translate(885, 765)">
            <text class="extra-small" x="0" y="0">WC</text>
            <text class="extra-small" x="45" y="0">WC</text>
        </g>

        <!-- Scene -->
        <g transform="translate(495, 590)">
            <path d="M0,105 L280,105 L235,0 L45,0z"></path>
            <text x="90" y="70">Scene</text>
        </g>

        <!-- Crew area -->
        <g transform="translate(840, 470)">
            <rect height="225" width="135" />
            <text x="25" y="125">Crew</text>
        </g>

        <!-- Sleeping area -->
        <g transform="translate(295, -10)">
            <rect height="80" width="675"/>
            <text x="250" y="55">Soveområde</text>
        </g>

        <!-- Stand -->
        <g transform="translate(285, 545)">
            <rect height="150" width="110" />
            <text x="10" y="95">Stand</text>
        </g>

        <!-- Kiosk -->
        <g transform="translate(200, 760)">
            <text x="0" y="0">Kiosk</text>
        </g>

        <!-- Care area -->
        <g transform="translate(135, 800)">
            <rect height="235" width="230" />
            <text x="75" y="120">Care</text>
        </g>

        <!-- Smash area -->
        <g transform="translate(490, 800)">
            <rect height="235" width="155" />
            <text x="24" y="120">Smash</text>
        </g>

        <!-- Shower -->
        <g transform="translate(680, 880)">
            <text x="0" y="0">Dusj</text>
        </g>
    </g>

    <g class="seats" transform="translate(500, 460)">
        <g class="row-group" transform="translate(355, 0) scale(38, 38) rotate(180)">
            <g class="row" transform="translate(0.0, 0.0)">
                <a class="seat" href="#"><rect height="0.50" width="0.70" x="0.05" y="0.05" rx="0.05" ry="0.05" /></a>
                <a class="seat" href="#"><rect height="0.50" width="0.70" x="0.85" y="0.05" rx="0.05" ry="0.05" /></a>
                <a class="seat" href="#"><rect height="0.50" width="0.70" x="1.65" y="0.05" rx="0.05" ry="0.05" /></a>
                <a class="seat" href="#"><rect height="0.50" width="0.70" x="2.45" y="0.05" rx="0.05" ry="0.05" /></a>
                <a class="seat" href="#"><rect height="0.50" width="0.70" x="3.25" y="0.05" rx="0.05" ry="0.05" /></a>
                <a class="seat" href="#"><rect height="0.50" width="0.70" x="4.05" y="0.05" rx="0.05" ry="0.05" /></a>
                <a class="seat" href="#"><rect height="0.50" width="0.70" x="4.85" y="0.05" rx="0.05" ry="0.05" /></a>
                <a class="seat" href="#"><rect height="0.50" width="0.70" x="5.65" y="0.05" rx="0.05" ry="0.05" /></a>
                <a class="seat" href="#"><rect height="0.50" width="0.70" x="6.45" y="0.05" rx="0.05" ry="0.05" /></a>
                <a class="seat" href="#"><rect height="0.50" width="0.70" x="7.25" y="0.05" rx="0.05" ry="0.05" /></a>
                <a class="seat" href="#"><rect height="0.50" width="0.70" x="0.05" y="0.65" rx="0.05" ry="0.05" /></a>
                <a class="seat" href="#"><rect height="0.50" width="0.70" x="0.85" y="0.65" rx="0.05" ry="0.05" /></a>
                <a class="seat" href="#"><rect height="0.50" width="0.70" x="1.65" y="0.65" rx="0.05" ry="0.05" /></a>
                <a class="seat" href="#"><rect height="0.50" width="0.70" x="2.45" y="0.65" rx="0.05" ry="0.05" /></a>
                <a class="seat" href="#"><rect height="0.50" width="0.70" x="3.25" y="0.65" rx="0.05" ry="0.05" /></a>
                <a class="seat" href="#"><rect height="0.50" width="0.70" x="4.05" y="0.65" rx="0.05" ry="0.05" /></a>
                <a class="seat" href="#"><rect height="0.50" width="0.70" x="4.85" y="0.65" rx="0.05" ry="0.05" /></a>
                <a class="seat" href="#"><rect height="0.50" width="0.70" x="5.65" y="0.65" rx="0.05" ry="0.05" /></a>
                <a class="seat" href="#"><rect height="0.50" width="0.70" x="6.45" y="0.65" rx="0.05" ry="0.05" /></a>
                <a class="seat" href="#"><rect height="0.50" width="0.70" x="7.25" y="0.65" rx="0.05" ry="0.05" /></a>
            </g>

            <g class="row" transform="translate(0.0, 1.8)">
                <a class="seat" href="#"><rect height="0.50" width="0.70" x="0.05" y="0.05" rx="0.05" ry="0.05" /></a>
                <a class="seat" href="#"><rect height="0.50" width="0.70" x="0.85" y="0.05" rx="0.05" ry="0.05" /></a>
                <a class="seat" href="#"><rect height="0.50" width="0.70" x="1.65" y="0.05" rx="0.05" ry="0.05" /></a>
                <a class="seat" href="#"><rect height="0.50" width="0.70" x="2.45" y="0.05" rx="0.05" ry="0.05" /></a>
                <a class="seat" href="#"><rect height="0.50" width="0.70" x="3.25" y="0.05" rx="0.05" ry="0.05" /></a>
                <a class="seat" href="#"><rect height="0.50" width="0.70" x="4.05" y="0.05" rx="0.05" ry="0.05" /></a>
                <a class="seat" href="#"><rect height="0.50" width="0.70" x="4.85" y="0.05" rx="0.05" ry="0.05" /></a>
                <a class="seat" href="#"><rect height="0.50" width="0.70" x="5.65" y="0.05" rx="0.05" ry="0.05" /></a>
                <a class="seat" href="#"><rect height="0.50" width="0.70" x="6.45" y="0.05" rx="0.05" ry="0.05" /></a>
                <a class="seat" href="#"><rect height="0.50" width="0.70" x="7.25" y="0.05" rx="0.05" ry="0.05" /></a>
                <a class="seat" href="#"><rect height="0.50" width="0.70" x="0.05" y="0.65" rx="0.05" ry="0.05" /></a>
                <a class="seat" href="#"><rect height="0.50" width="0.70" x="0.85" y="0.65" rx="0.05" ry="0.05" /></a>
                <a class="seat" href="#"><rect height="0.50" width="0.70" x="1.65" y="0.65" rx="0.05" ry="0.05" /></a>
                <a class="seat" href="#"><rect height="0.50" width="0.70" x="2.45" y="0.65" rx="0.05" ry="0.05" /></a>
                <a class="seat" href="#"><rect height="0.50" width="0.70" x="3.25" y="0.65" rx="0.05" ry="0.05" /></a>
                <a class="seat" href="#"><rect height="0.50" width="0.70" x="4.05" y="0.65" rx="0.05" ry="0.05" /></a>
                <a class="seat" href="#"><rect height="0.50" width="0.70" x="4.85" y="0.65" rx="0.05" ry="0.05" /></a>
                <a class="seat" href="#"><rect height="0.50" width="0.70" x="5.65" y="0.65" rx="0.05" ry="0.05" /></a>
                <a class="seat" href="#"><rect height="0.50" width="0.70" x="6.45" y="0.65" rx="0.05" ry="0.05" /></a>
                <a class="seat" href="#"><rect height="0.50" width="0.70" x="7.25" y="0.65" rx="0.05" ry="0.05" /></a>
            </g>

            <g class="row" transform="translate(0.0, 3.6)">
                <a class="seat" href="#"><rect height="0.50" width="0.70" x="0.05" y="0.05" rx="0.05" ry="0.05" /></a>
                <a class="seat" href="#"><rect height="0.50" width="0.70" x="0.85" y="0.05" rx="0.05" ry="0.05" /></a>
                <a class="seat" href="#"><rect height="0.50" width="0.70" x="1.65" y="0.05" rx="0.05" ry="0.05" /></a>
                <a class="seat" href="#"><rect height="0.50" width="0.70" x="2.45" y="0.05" rx="0.05" ry="0.05" /></a>
                <a class="seat" href="#"><rect height="0.50" width="0.70" x="3.25" y="0.05" rx="0.05" ry="0.05" /></a>
                <a class="seat" href="#"><rect height="0.50" width="0.70" x="4.05" y="0.05" rx="0.05" ry="0.05" /></a>
                <a class="seat" href="#"><rect height="0.50" width="0.70" x="4.85" y="0.05" rx="0.05" ry="0.05" /></a>
                <a class="seat" href="#"><rect height="0.50" width="0.70" x="5.65" y="0.05" rx="0.05" ry="0.05" /></a>
                <a class="seat" href="#"><rect height="0.50" width="0.70" x="6.45" y="0.05" rx="0.05" ry="0.05" /></a>
                <a class="seat" href="#"><rect height="0.50" width="0.70" x="7.25" y="0.05" rx="0.05" ry="0.05" /></a>
                <a class="seat" href="#"><rect height="0.50" width="0.70" x="0.05" y="0.65" rx="0.05" ry="0.05" /></a>
                <a class="seat" href="#"><rect height="0.50" width="0.70" x="0.85" y="0.65" rx="0.05" ry="0.05" /></a>
                <a class="seat" href="#"><rect height="0.50" width="0.70" x="1.65" y="0.65" rx="0.05" ry="0.05" /></a>
                <a class="seat" href="#"><rect height="0.50" width="0.70" x="2.45" y="0.65" rx="0.05" ry="0.05" /></a>
                <a class="seat" href="#"><rect height="0.50" width="0.70" x="3.25" y="0.65" rx="0.05" ry="0.05" /></a>
                <a class="seat" href="#"><rect height="0.50" width="0.70" x="4.05" y="0.65" rx="0.05" ry="0.05" /></a>
                <a class="seat" href="#"><rect height="0.50" width="0.70" x="4.85" y="0.65" rx="0.05" ry="0.05" /></a>
                <a class="seat" href="#"><rect height="0.50" width="0.70" x="5.65" y="0.65" rx="0.05" ry="0.05" /></a>
                <a class="seat" href="#"><rect height="0.50" width="0.70" x="6.45" y="0.65" rx="0.05" ry="0.05" /></a>
                <a class="seat" href="#"><rect height="0.50" width="0.70" x="7.25" y="0.65" rx="0.05" ry="0.05" /></a>
            </g>

            <g class="row" transform="translate(0.0, 5.4)">
                <a class="seat" href="#"><rect height="0.50" width="0.70" x="0.05" y="0.05" rx="0.05" ry="0.05" /></a>
                <a class="seat" href="#"><rect height="0.50" width="0.70" x="0.85" y="0.05" rx="0.05" ry="0.05" /></a>
                <a class="seat" href="#"><rect height="0.50" width="0.70" x="1.65" y="0.05" rx="0.05" ry="0.05" /></a>
                <a class="seat" href="#"><rect height="0.50" width="0.70" x="2.45" y="0.05" rx="0.05" ry="0.05" /></a>
                <a class="seat" href="#"><rect height="0.50" width="0.70" x="3.25" y="0.05" rx="0.05" ry="0.05" /></a>
                <a class="seat" href="#"><rect height="0.50" width="0.70" x="4.05" y="0.05" rx="0.05" ry="0.05" /></a>
                <a class="seat" href="#"><rect height="0.50" width="0.70" x="4.85" y="0.05" rx="0.05" ry="0.05" /></a>
                <a class="seat" href="#"><rect height="0.50" width="0.70" x="5.65" y="0.05" rx="0.05" ry="0.05" /></a>
                <a class="seat" href="#"><rect height="0.50" width="0.70" x="6.45" y="0.05" rx="0.05" ry="0.05" /></a>
                <a class="seat" href="#"><rect height="0.50" width="0.70" x="7.25" y="0.05" rx="0.05" ry="0.05" /></a>
                <a class="seat" href="#"><rect height="0.50" width="0.70" x="0.05" y="0.65" rx="0.05" ry="0.05" /></a>
                <a class="seat" href="#"><rect height="0.50" width="0.70" x="0.85" y="0.65" rx="0.05" ry="0.05" /></a>
                <a class="seat" href="#"><rect height="0.50" width="0.70" x="1.65" y="0.65" rx="0.05" ry="0.05" /></a>
                <a class="seat" href="#"><rect height="0.50" width="0.70" x="2.45" y="0.65" rx="0.05" ry="0.05" /></a>
                <a class="seat" href="#"><rect height="0.50" width="0.70" x="3.25" y="0.65" rx="0.05" ry="0.05" /></a>
                <a class="seat" href="#"><rect height="0.50" width="0.70" x="4.05" y="0.65" rx="0.05" ry="0.05" /></a>
                <a class="seat" href="#"><rect height="0.50" width="0.70" x="4.85" y="0.65" rx="0.05" ry="0.05" /></a>
                <a class="seat" href="#"><rect height="0.50" width="0.70" x="5.65" y="0.65" rx="0.05" ry="0.05" /></a>
                <a class="seat" href="#"><rect height="0.50" width="0.70" x="6.45" y="0.65" rx="0.05" ry="0.05" /></a>
                <a class="seat" href="#"><rect height="0.50" width="0.70" x="7.25" y="0.65" rx="0.05" ry="0.05" /></a>
            </g>

            <g class="row" transform="translate(0.0, 7.2)">
                <a class="seat" href="#"><rect height="0.50" width="0.70" x="0.05" y="0.05" rx="0.05" ry="0.05" /></a>
                <a class="seat" href="#"><rect height="0.50" width="0.70" x="0.85" y="0.05" rx="0.05" ry="0.05" /></a>
                <a class="seat" href="#"><rect height="0.50" width="0.70" x="1.65" y="0.05" rx="0.05" ry="0.05" /></a>
                <a class="seat" href="#"><rect height="0.50" width="0.70" x="2.45" y="0.05" rx="0.05" ry="0.05" /></a>
                <a class="seat" href="#"><rect height="0.50" width="0.70" x="3.25" y="0.05" rx="0.05" ry="0.05" /></a>
                <a class="seat" href="#"><rect height="0.50" width="0.70" x="4.05" y="0.05" rx="0.05" ry="0.05" /></a>
                <a class="seat" href="#"><rect height="0.50" width="0.70" x="4.85" y="0.05" rx="0.05" ry="0.05" /></a>
                <a class="seat" href="#"><rect height="0.50" width="0.70" x="5.65" y="0.05" rx="0.05" ry="0.05" /></a>
                <a class="seat" href="#"><rect height="0.50" width="0.70" x="6.45" y="0.05" rx="0.05" ry="0.05" /></a>
                <a class="seat" href="#"><rect height="0.50" width="0.70" x="7.25" y="0.05" rx="0.05" ry="0.05" /></a>
                <a class="seat" href="#"><rect height="0.50" width="0.70" x="0.05" y="0.65" rx="0.05" ry="0.05" /></a>
                <a class="seat" href="#"><rect height="0.50" width="0.70" x="0.85" y="0.65" rx="0.05" ry="0.05" /></a>
                <a class="seat" href="#"><rect height="0.50" width="0.70" x="1.65" y="0.65" rx="0.05" ry="0.05" /></a>
                <a class="seat" href="#"><rect height="0.50" width="0.70" x="2.45" y="0.65" rx="0.05" ry="0.05" /></a>
                <a class="seat" href="#"><rect height="0.50" width="0.70" x="3.25" y="0.65" rx="0.05" ry="0.05" /></a>
                <a class="seat" href="#"><rect height="0.50" width="0.70" x="4.05" y="0.65" rx="0.05" ry="0.05" /></a>
                <a class="seat" href="#"><rect height="0.50" width="0.70" x="4.85" y="0.65" rx="0.05" ry="0.05" /></a>
                <a class="seat" href="#"><rect height="0.50" width="0.70" x="5.65" y="0.65" rx="0.05" ry="0.05" /></a>
                <a class="seat" href="#"><rect height="0.50" width="0.70" x="6.45" y="0.65" rx="0.05" ry="0.05" /></a>
                <a class="seat" href="#"><rect height="0.50" width="0.70" x="7.25" y="0.65" rx="0.05" ry="0.05" /></a>
            </g>
        </g>

        <g class="row-group" transform="translate(0, 0) scale(38, 38) rotate(180)">
            <g class="row" transform="translate(0.0, 0.0)">
                <a class="seat" href="#"><rect height="0.50" width="0.70" x="0.05" y="0.05" rx="0.05" ry="0.05" /></a>
                <a class="seat" href="#"><rect height="0.50" width="0.70" x="0.85" y="0.05" rx="0.05" ry="0.05" /></a>
                <a class="seat" href="#"><rect height="0.50" width="0.70" x="1.65" y="0.05" rx="0.05" ry="0.05" /></a>
                <a class="seat" href="#"><rect height="0.50" width="0.70" x="2.45" y="0.05" rx="0.05" ry="0.05" /></a>
                <a class="seat" href="#"><rect height="0.50" width="0.70" x="3.25" y="0.05" rx="0.05" ry="0.05" /></a>
                <a class="seat" href="#"><rect height="0.50" width="0.70" x="4.05" y="0.05" rx="0.05" ry="0.05" /></a>
                <a class="seat" href="#"><rect height="0.50" width="0.70" x="4.85" y="0.05" rx="0.05" ry="0.05" /></a>
                <a class="seat" href="#"><rect height="0.50" width="0.70" x="5.65" y="0.05" rx="0.05" ry="0.05" /></a>
                <a class="seat" href="#"><rect height="0.50" width="0.70" x="6.45" y="0.05" rx="0.05" ry="0.05" /></a>
                <a class="seat" href="#"><rect height="0.50" width="0.70" x="7.25" y="0.05" rx="0.05" ry="0.05" /></a>
                <a class="seat" href="#"><rect height="0.50" width="0.70" x="0.05" y="0.65" rx="0.05" ry="0.05" /></a>
                <a class="seat" href="#"><rect height="0.50" width="0.70" x="0.85" y="0.65" rx="0.05" ry="0.05" /></a>
                <a class="seat" href="#"><rect height="0.50" width="0.70" x="1.65" y="0.65" rx="0.05" ry="0.05" /></a>
                <a class="seat" href="#"><rect height="0.50" width="0.70" x="2.45" y="0.65" rx="0.05" ry="0.05" /></a>
                <a class="seat" href="#"><rect height="0.50" width="0.70" x="3.25" y="0.65" rx="0.05" ry="0.05" /></a>
                <a class="seat" href="#"><rect height="0.50" width="0.70" x="4.05" y="0.65" rx="0.05" ry="0.05" /></a>
                <a class="seat" href="#"><rect height="0.50" width="0.70" x="4.85" y="0.65" rx="0.05" ry="0.05" /></a>
                <a class="seat" href="#"><rect height="0.50" width="0.70" x="5.65" y="0.65" rx="0.05" ry="0.05" /></a>
                <a class="seat" href="#"><rect height="0.50" width="0.70" x="6.45" y="0.65" rx="0.05" ry="0.05" /></a>
                <a class="seat" href="#"><rect height="0.50" width="0.70" x="7.25" y="0.65" rx="0.05" ry="0.05" /></a>
            </g>

            <g class="row" transform="translate(0.0, 1.8)">
                <a class="seat" href="#"><rect height="0.50" width="0.70" x="0.05" y="0.05" rx="0.05" ry="0.05" /></a>
                <a class="seat" href="#"><rect height="0.50" width="0.70" x="0.85" y="0.05" rx="0.05" ry="0.05" /></a>
                <a class="seat" href="#"><rect height="0.50" width="0.70" x="1.65" y="0.05" rx="0.05" ry="0.05" /></a>
                <a class="seat" href="#"><rect height="0.50" width="0.70" x="2.45" y="0.05" rx="0.05" ry="0.05" /></a>
                <a class="seat" href="#"><rect height="0.50" width="0.70" x="3.25" y="0.05" rx="0.05" ry="0.05" /></a>
                <a class="seat" href="#"><rect height="0.50" width="0.70" x="4.05" y="0.05" rx="0.05" ry="0.05" /></a>
                <a class="seat" href="#"><rect height="0.50" width="0.70" x="4.85" y="0.05" rx="0.05" ry="0.05" /></a>
                <a class="seat" href="#"><rect height="0.50" width="0.70" x="5.65" y="0.05" rx="0.05" ry="0.05" /></a>
                <a class="seat" href="#"><rect height="0.50" width="0.70" x="6.45" y="0.05" rx="0.05" ry="0.05" /></a>
                <a class="seat" href="#"><rect height="0.50" width="0.70" x="7.25" y="0.05" rx="0.05" ry="0.05" /></a>
                <a class="seat" href="#"><rect height="0.50" width="0.70" x="0.05" y="0.65" rx="0.05" ry="0.05" /></a>
                <a class="seat" href="#"><rect height="0.50" width="0.70" x="0.85" y="0.65" rx="0.05" ry="0.05" /></a>
                <a class="seat" href="#"><rect height="0.50" width="0.70" x="1.65" y="0.65" rx="0.05" ry="0.05" /></a>
                <a class="seat" href="#"><rect height="0.50" width="0.70" x="2.45" y="0.65" rx="0.05" ry="0.05" /></a>
                <a class="seat" href="#"><rect height="0.50" width="0.70" x="3.25" y="0.65" rx="0.05" ry="0.05" /></a>
                <a class="seat" href="#"><rect height="0.50" width="0.70" x="4.05" y="0.65" rx="0.05" ry="0.05" /></a>
                <a class="seat" href="#"><rect height="0.50" width="0.70" x="4.85" y="0.65" rx="0.05" ry="0.05" /></a>
                <a class="seat" href="#"><rect height="0.50" width="0.70" x="5.65" y="0.65" rx="0.05" ry="0.05" /></a>
                <a class="seat" href="#"><rect height="0.50" width="0.70" x="6.45" y="0.65" rx="0.05" ry="0.05" /></a>
                <a class="seat" href="#"><rect height="0.50" width="0.70" x="7.25" y="0.65" rx="0.05" ry="0.05" /></a>
            </g>

            <g class="row" transform="translate(0.0, 3.6)">
                <a class="seat" href="#"><rect height="0.50" width="0.70" x="0.05" y="0.05" rx="0.05" ry="0.05" /></a>
                <a class="seat" href="#"><rect height="0.50" width="0.70" x="0.85" y="0.05" rx="0.05" ry="0.05" /></a>
                <a class="seat" href="#"><rect height="0.50" width="0.70" x="1.65" y="0.05" rx="0.05" ry="0.05" /></a>
                <a class="seat" href="#"><rect height="0.50" width="0.70" x="2.45" y="0.05" rx="0.05" ry="0.05" /></a>
                <a class="seat" href="#"><rect height="0.50" width="0.70" x="3.25" y="0.05" rx="0.05" ry="0.05" /></a>
                <a class="seat" href="#"><rect height="0.50" width="0.70" x="4.05" y="0.05" rx="0.05" ry="0.05" /></a>
                <a class="seat" href="#"><rect height="0.50" width="0.70" x="4.85" y="0.05" rx="0.05" ry="0.05" /></a>
                <a class="seat" href="#"><rect height="0.50" width="0.70" x="5.65" y="0.05" rx="0.05" ry="0.05" /></a>
                <a class="seat" href="#"><rect height="0.50" width="0.70" x="6.45" y="0.05" rx="0.05" ry="0.05" /></a>
                <a class="seat" href="#"><rect height="0.50" width="0.70" x="7.25" y="0.05" rx="0.05" ry="0.05" /></a>
                <a class="seat" href="#"><rect height="0.50" width="0.70" x="0.05" y="0.65" rx="0.05" ry="0.05" /></a>
                <a class="seat" href="#"><rect height="0.50" width="0.70" x="0.85" y="0.65" rx="0.05" ry="0.05" /></a>
                <a class="seat" href="#"><rect height="0.50" width="0.70" x="1.65" y="0.65" rx="0.05" ry="0.05" /></a>
                <a class="seat" href="#"><rect height="0.50" width="0.70" x="2.45" y="0.65" rx="0.05" ry="0.05" /></a>
                <a class="seat" href="#"><rect height="0.50" width="0.70" x="3.25" y="0.65" rx="0.05" ry="0.05" /></a>
                <a class="seat" href="#"><rect height="0.50" width="0.70" x="4.05" y="0.65" rx="0.05" ry="0.05" /></a>
                <a class="seat" href="#"><rect height="0.50" width="0.70" x="4.85" y="0.65" rx="0.05" ry="0.05" /></a>
                <a class="seat" href="#"><rect height="0.50" width="0.70" x="5.65" y="0.65" rx="0.05" ry="0.05" /></a>
                <a class="seat" href="#"><rect height="0.50" width="0.70" x="6.45" y="0.65" rx="0.05" ry="0.05" /></a>
                <a class="seat" href="#"><rect height="0.50" width="0.70" x="7.25" y="0.65" rx="0.05" ry="0.05" /></a>
            </g>

            <g class="row" transform="translate(0.0, 5.4)">
                <a class="seat" href="#"><rect height="0.50" width="0.70" x="0.05" y="0.05" rx="0.05" ry="0.05" /></a>
                <a class="seat" href="#"><rect height="0.50" width="0.70" x="0.85" y="0.05" rx="0.05" ry="0.05" /></a>
                <a class="seat" href="#"><rect height="0.50" width="0.70" x="1.65" y="0.05" rx="0.05" ry="0.05" /></a>
                <a class="seat" href="#"><rect height="0.50" width="0.70" x="2.45" y="0.05" rx="0.05" ry="0.05" /></a>
                <a class="seat" href="#"><rect height="0.50" width="0.70" x="3.25" y="0.05" rx="0.05" ry="0.05" /></a>
                <a class="seat" href="#"><rect height="0.50" width="0.70" x="4.05" y="0.05" rx="0.05" ry="0.05" /></a>
                <a class="seat" href="#"><rect height="0.50" width="0.70" x="4.85" y="0.05" rx="0.05" ry="0.05" /></a>
                <a class="seat" href="#"><rect height="0.50" width="0.70" x="5.65" y="0.05" rx="0.05" ry="0.05" /></a>
                <a class="seat" href="#"><rect height="0.50" width="0.70" x="6.45" y="0.05" rx="0.05" ry="0.05" /></a>
                <a class="seat" href="#"><rect height="0.50" width="0.70" x="7.25" y="0.05" rx="0.05" ry="0.05" /></a>
                <a class="seat" href="#"><rect height="0.50" width="0.70" x="0.05" y="0.65" rx="0.05" ry="0.05" /></a>
                <a class="seat" href="#"><rect height="0.50" width="0.70" x="0.85" y="0.65" rx="0.05" ry="0.05" /></a>
                <a class="seat" href="#"><rect height="0.50" width="0.70" x="1.65" y="0.65" rx="0.05" ry="0.05" /></a>
                <a class="seat" href="#"><rect height="0.50" width="0.70" x="2.45" y="0.65" rx="0.05" ry="0.05" /></a>
                <a class="seat" href="#"><rect height="0.50" width="0.70" x="3.25" y="0.65" rx="0.05" ry="0.05" /></a>
                <a class="seat" href="#"><rect height="0.50" width="0.70" x="4.05" y="0.65" rx="0.05" ry="0.05" /></a>
                <a class="seat" href="#"><rect height="0.50" width="0.70" x="4.85" y="0.65" rx="0.05" ry="0.05" /></a>
                <a class="seat" href="#"><rect height="0.50" width="0.70" x="5.65" y="0.65" rx="0.05" ry="0.05" /></a>
                <a class="seat" href="#"><rect height="0.50" width="0.70" x="6.45" y="0.65" rx="0.05" ry="0.05" /></a>
                <a class="seat" href="#"><rect height="0.50" width="0.70" x="7.25" y="0.65" rx="0.05" ry="0.05" /></a>
            </g>

            <g class="row" transform="translate(0.0, 7.2)">
                <a class="seat" href="#"><rect height="0.50" width="0.70" x="0.05" y="0.05" rx="0.05" ry="0.05" /></a>
                <a class="seat" href="#"><rect height="0.50" width="0.70" x="0.85" y="0.05" rx="0.05" ry="0.05" /></a>
                <a class="seat" href="#"><rect height="0.50" width="0.70" x="1.65" y="0.05" rx="0.05" ry="0.05" /></a>
                <a class="seat" href="#"><rect height="0.50" width="0.70" x="2.45" y="0.05" rx="0.05" ry="0.05" /></a>
                <a class="seat" href="#"><rect height="0.50" width="0.70" x="3.25" y="0.05" rx="0.05" ry="0.05" /></a>
                <a class="seat" href="#"><rect height="0.50" width="0.70" x="4.05" y="0.05" rx="0.05" ry="0.05" /></a>
                <a class="seat" href="#"><rect height="0.50" width="0.70" x="4.85" y="0.05" rx="0.05" ry="0.05" /></a>
                <a class="seat" href="#"><rect height="0.50" width="0.70" x="5.65" y="0.05" rx="0.05" ry="0.05" /></a>
                <a class="seat" href="#"><rect height="0.50" width="0.70" x="6.45" y="0.05" rx="0.05" ry="0.05" /></a>
                <a class="seat" href="#"><rect height="0.50" width="0.70" x="7.25" y="0.05" rx="0.05" ry="0.05" /></a>
                <a class="seat" href="#"><rect height="0.50" width="0.70" x="0.05" y="0.65" rx="0.05" ry="0.05" /></a>
                <a class="seat" href="#"><rect height="0.50" width="0.70" x="0.85" y="0.65" rx="0.05" ry="0.05" /></a>
                <a class="seat" href="#"><rect height="0.50" width="0.70" x="1.65" y="0.65" rx="0.05" ry="0.05" /></a>
                <a class="seat" href="#"><rect height="0.50" width="0.70" x="2.45" y="0.65" rx="0.05" ry="0.05" /></a>
                <a class="seat" href="#"><rect height="0.50" width="0.70" x="3.25" y="0.65" rx="0.05" ry="0.05" /></a>
                <a class="seat" href="#"><rect height="0.50" width="0.70" x="4.05" y="0.65" rx="0.05" ry="0.05" /></a>
                <a class="seat" href="#"><rect height="0.50" width="0.70" x="4.85" y="0.65" rx="0.05" ry="0.05" /></a>
                <a class="seat" href="#"><rect height="0.50" width="0.70" x="5.65" y="0.65" rx="0.05" ry="0.05" /></a>
                <a class="seat" href="#"><rect height="0.50" width="0.70" x="6.45" y="0.65" rx="0.05" ry="0.05" /></a>
                <a class="seat" href="#"><rect height="0.50" width="0.70" x="7.25" y="0.65" rx="0.05" ry="0.05" /></a>
            </g>
        </g>

        <g class="row-group" transform="translate(-20, 90) scale(38, 38) rotate(180)">
            <g class="row" transform="translate(0.0, 0.0)">
                <rect height="0.70" width="1.4" x="0.05" y="0.05" rx="0.05" ry="0.05"></rect>
                <rect height="0.70" width="1.4" x="1.55" y="0.05" rx="0.05" ry="0.05"></rect>
                <rect height="0.70" width="1.4" x="3.05" y="0.05" rx="0.05" ry="0.05"></rect>
                <rect height="0.70" width="1.4" x="4.55" y="0.05" rx="0.05" ry="0.05"></rect>
                <rect height="0.70" width="1.4" x="6.05" y="0.05" rx="0.05" ry="0.05"></rect>
                <rect height="0.70" width="1.4" x="0.05" y="0.85" rx="0.05" ry="0.05"></rect>
                <rect height="0.70" width="1.4" x="1.55" y="0.85" rx="0.05" ry="0.05"></rect>
                <rect height="0.70" width="1.4" x="3.05" y="0.85" rx="0.05" ry="0.05"></rect>
                <rect height="0.70" width="1.4" x="4.55" y="0.85" rx="0.05" ry="0.05"></rect>
                <rect height="0.70" width="1.4" x="6.05" y="0.85" rx="0.05" ry="0.05"></rect>
            </g>
        </g>
    </g>
</svg>
